<svg width="13" height="16" viewBox="0 0 13 16" fill="none" xmlns="http://www.w3.org/2000/svg">
<mask id="mask0_259_5607" style="mask-type:alpha" maskUnits="userSpaceOnUse" x="-4" y="-3" width="21" height="22">
<rect x="-3.81653" y="-2.28346" width="20.3548" height="20.3548" fill="#D9D9D9"/>
</mask>
<g mask="url(#mask0_259_5607)">
<path d="M5.7248 14.7279V11.0255H3.81651C2.75747 11.0255 1.85662 10.6542 1.11396 9.91152C0.37132 9.16888 0 8.26804 0 7.20899C0 6.40981 0.238674 5.68728 0.716024 5.04141C1.19336 4.39554 1.80607 3.91548 2.55415 3.60124C2.67593 2.51391 3.09129 1.64187 3.80023 0.985133C4.50916 0.328378 5.3627 0 6.36087 0C7.35903 0 8.21258 0.328378 8.92151 0.985133C9.63045 1.64187 10.0458 2.51391 10.1676 3.60124C10.9211 3.9046 11.5352 4.38193 12.0098 5.03325C12.4844 5.68456 12.7217 6.40981 12.7217 7.20899C12.7217 8.26804 12.3504 9.16888 11.6078 9.91152C10.8651 10.6542 9.96427 11.0255 8.90523 11.0255H6.99694V14.7279H11.2375C11.4178 14.7279 11.5688 14.7889 11.6907 14.9108C11.8127 15.0328 11.8736 15.1839 11.8736 15.3642C11.8736 15.5445 11.8127 15.6956 11.6907 15.8174C11.5688 15.9391 11.4178 16 11.2375 16H1.48421C1.30398 16 1.15291 15.939 1.03099 15.8171C0.909077 15.6951 0.848119 15.544 0.848119 15.3637C0.848119 15.1834 0.909077 15.0323 1.03099 14.9105C1.15291 14.7888 1.30398 14.7279 1.48421 14.7279H5.7248ZM3.81651 9.75335H8.90523C9.61199 9.75335 10.2127 9.50598 10.7075 9.01124C11.2022 8.51651 11.4496 7.91575 11.4496 7.20899C11.4496 6.66205 11.2816 6.17247 10.9456 5.74026C10.6096 5.30804 10.1839 4.98755 9.66851 4.77879L8.99004 4.49501L8.89545 3.73172C8.8052 2.97058 8.52738 2.37037 8.062 1.93108C7.59663 1.4918 7.02958 1.27216 6.36087 1.27216C5.69216 1.27216 5.12511 1.4918 4.65973 1.93108C4.19436 2.37037 3.91654 2.97058 3.82629 3.73172L3.7317 4.49501L2.98799 4.81142C2.49432 5.02019 2.08494 5.33795 1.75982 5.76473C1.43471 6.19152 1.27216 6.67294 1.27216 7.20899C1.27216 7.91575 1.51952 8.51651 2.01426 9.01124C2.509 9.50598 3.10975 9.75335 3.81651 9.75335Z" fill="#1C1B1F"/>
</g>
</svg>
