<svg width="24" height="24" viewBox="0 0 24 24" fill="none" xmlns="http://www.w3.org/2000/svg">
<path d="M5.02711 10.0492C4.92957 8.70471 5.3562 7.37461 6.21761 6.33768C6.41614 6.10487 6.71254 5.9789 7.01794 5.99754C10.483 6.2159 13.3357 8.80291 13.8908 12.2301" stroke="#0D1814" stroke-width="1.5" stroke-linecap="round" stroke-linejoin="round"/>
<path d="M14.0008 18.7543V21.0037C14.0008 21.5562 13.5529 22.0041 13.0004 22.0041H10.9996C10.447 22.0041 9.99915 21.5562 9.99915 21.0037V18.7543" stroke="#0D1814" stroke-width="1.5" stroke-linecap="round" stroke-linejoin="round"/>
<path d="M9.60764 18.6381C10.7997 14.0161 14.6987 10.5943 19.4364 10.0123C19.7365 9.98976 20.0306 10.1043 20.2364 10.3239C20.4421 10.5434 20.5374 10.8444 20.4955 11.1424C20.0513 15.5299 16.4093 18.9 12.0005 19.0029C7.58828 18.8997 3.94457 15.5247 3.50437 11.1333C3.46302 10.838 3.55633 10.5398 3.7586 10.3208C3.96087 10.1017 4.25075 9.98499 4.54837 10.0027C7.49483 10.2776 10.2583 11.5533 12.3786 13.6176" stroke="#0D1814" stroke-width="1.5" stroke-linecap="round" stroke-linejoin="round"/>
<path d="M12 8.36853C13.2974 6.97161 15.0797 6.12341 16.9821 5.99754C17.2875 5.9789 17.5839 6.10487 17.7824 6.33768C18.6459 7.38474 19.0692 8.7262 18.9629 10.0792" stroke="#0D1814" stroke-width="1.5" stroke-linecap="round" stroke-linejoin="round"/>
<path d="M8.25842 6.1776C8.84692 4.97535 9.78034 3.97574 10.9395 3.30641C11.587 2.89624 12.413 2.89624 13.0604 3.30641C14.223 3.97916 15.1596 4.98193 15.7515 6.18761" stroke="#0D1814" stroke-width="1.5" stroke-linecap="round" stroke-linejoin="round"/>
</svg>
