<svg width="82" height="79" viewBox="0 0 82 79" fill="none" xmlns="http://www.w3.org/2000/svg">
<path d="M26.7475 5.94512L32.767 1.0043C34.4185 -0.351202 36.8358 -0.333597 38.4634 1.05124L44.3931 6.09769C45.7514 7.25368 47.4447 7.95783 49.2338 8.1104L57.0544 8.79109C59.2025 8.97886 60.8958 10.6688 61.0514 12.7754L61.6079 20.4566C61.7335 22.2111 62.4216 23.8894 63.5765 25.239L68.6147 31.1422C69.9969 32.7617 69.9789 35.1324 68.5668 36.7285L63.4209 42.5436C62.2422 43.8756 61.5241 45.5363 61.3685 47.2908L60.6745 54.9602C60.483 57.0668 58.7597 58.7275 56.6116 58.88L48.7791 59.4257C46.99 59.549 45.2787 60.2238 43.9024 61.3563L37.8829 66.2971C36.2315 67.6526 33.8141 67.635 32.1866 66.2502L26.2568 61.2037C24.8986 60.0477 23.2052 59.3436 21.4161 59.191L13.5956 58.5103C11.4475 58.3226 9.75412 56.6326 9.59854 54.526L9.04207 46.8448C8.91642 45.0903 8.22828 43.4121 7.07345 42.0624L2.03528 36.1593C0.653069 34.5397 0.67103 32.169 2.08316 30.573L7.22903 24.7578C8.4078 23.4258 9.12582 21.7651 9.2814 20.0106L9.97551 12.3412C10.167 10.2346 11.8902 8.57397 14.0384 8.4214L21.8709 7.87569C23.66 7.75246 25.3713 7.07764 26.7475 5.94512Z" fill="#F5D188"/>
<path d="M25.7303 7.07762L31.7498 2.1368C33.4073 0.781298 35.8187 0.798894 37.4522 2.18373L43.3819 7.23019C44.7402 8.38617 46.4335 9.09033 48.2226 9.2429L56.0432 9.92358C58.1913 10.1114 59.8846 11.8013 60.0402 13.9079L60.5967 21.5891C60.7223 23.3436 61.4104 25.0218 62.5653 26.3715L67.6035 32.2747C68.9857 33.8942 68.9677 36.2649 67.5556 37.861L62.4097 43.6761C61.231 45.0081 60.5129 46.6688 60.3573 48.4233L59.6633 56.0927C59.4718 58.1993 57.7485 59.86 55.6004 60.0125L47.7679 60.5582C45.9788 60.6815 44.2675 61.3563 42.8913 62.4888L36.8717 67.4296C35.2203 68.7851 32.8029 68.7675 31.1754 67.3827L25.2456 62.3362C23.8874 61.1802 22.194 60.4761 20.4049 60.3235L12.5844 59.6428C10.4363 59.4551 8.74292 57.7651 8.58735 55.6585L8.03088 47.9773C7.90522 46.2169 7.21709 44.5446 6.06225 43.1949L1.02408 37.2918C-0.358127 35.6722 -0.340166 33.3016 1.07196 31.7055L6.21783 25.8903C7.3966 24.5583 8.11463 22.8977 8.2702 21.1431L8.96432 13.4737C9.15579 11.3671 10.8791 9.70647 13.0272 9.5539L20.8597 9.00818C22.6488 8.88495 24.3601 8.21014 25.7363 7.07762H25.7303Z" fill="#FFDD92"/>
<mask id="mask0_259_2074" style="mask-type:luminance" maskUnits="userSpaceOnUse" x="0" y="0" width="70" height="68">
<path d="M26.1971 6.52016L32.2166 1.57934C33.868 0.223841 36.2854 0.241446 37.913 1.62629L43.8427 6.67274C45.201 7.82873 46.8943 8.53288 48.6834 8.68544L56.504 9.36613C58.6521 9.55391 60.3454 11.2439 60.501 13.3505L61.0575 21.0316C61.1831 22.7862 61.8712 24.4644 63.0261 25.814L68.0642 31.7172C69.4464 33.3368 69.4285 35.7074 68.0164 37.3035L62.8705 43.1187C61.6917 44.4507 60.9737 46.1113 60.8181 47.8658L60.124 55.5353C59.9326 57.6419 58.2093 59.3025 56.0612 59.4551L48.2287 60.0008C46.4396 60.124 44.7282 60.8047 43.352 61.9313L37.3325 66.8722C35.6811 68.2277 33.2637 68.2101 31.6361 66.8252L25.7064 61.7788C24.3481 60.6228 22.6548 59.9186 20.8657 59.7661L13.0452 59.0854C10.8971 58.8976 9.20367 57.2076 9.0481 55.101L8.49163 47.4199C8.36597 45.6654 7.67787 43.9871 6.52304 42.6375L1.48487 36.7343C0.102658 35.1148 0.120583 32.7441 1.53271 31.148L6.67862 25.3329C7.85739 24.0008 8.57541 22.3402 8.73098 20.5857L9.42506 12.9163C9.61654 10.8097 11.3398 9.14901 13.4879 8.99645L21.3204 8.45073C23.1095 8.3275 24.8209 7.65268 26.1971 6.52016Z" fill="white"/>
</mask>
<g mask="url(#mask0_259_2074)">
<path d="M26.1971 6.52016L32.2166 1.57934C33.868 0.223841 36.2854 0.241446 37.913 1.62629L43.8427 6.67274C45.201 7.82873 46.8943 8.53288 48.6834 8.68544L56.504 9.36613C58.6521 9.55391 60.3454 11.2439 60.501 13.3505L61.0575 21.0316C61.1831 22.7862 61.8712 24.4644 63.0261 25.814L68.0642 31.7172C69.4464 33.3368 69.4285 35.7074 68.0164 37.3035L62.8705 43.1187C61.6917 44.4507 60.9737 46.1113 60.8181 47.8658L60.124 55.5353C59.9326 57.6419 58.2093 59.3025 56.0612 59.4551L48.2287 60.0008C46.4396 60.124 44.7282 60.8047 43.352 61.9313L37.3325 66.8722C35.6811 68.2277 33.2637 68.2101 31.6361 66.8252L25.7064 61.7788C24.3481 60.6228 22.6548 59.9186 20.8657 59.7661L13.0452 59.0854C10.8971 58.8976 9.20367 57.2076 9.0481 55.101L8.49163 47.4199C8.36597 45.6654 7.67787 43.9871 6.52304 42.6375L1.48487 36.7343C0.102658 35.1148 0.120583 32.7441 1.53271 31.148L6.67862 25.3329C7.85739 24.0008 8.57541 22.3402 8.73098 20.5857L9.42506 12.9163C9.61654 10.8097 11.3398 9.14901 13.4879 8.99645L21.3204 8.45073C23.1095 8.3275 24.8209 7.65268 26.1971 6.52016Z" fill="url(#paint0_linear_259_2074)"/>
<g style="mix-blend-mode:multiply">
<path opacity="0.4" d="M61.1652 28.9299C67.4659 44.2277 59.9325 61.6321 44.3333 67.8169C28.7341 73.9959 10.9868 66.6081 4.68007 51.3103C-1.62065 36.0125 5.91269 18.6082 21.5119 12.4233C37.1111 6.24436 54.8585 13.6321 61.1652 28.9299Z" fill="white"/>
<path opacity="0.44" d="M60.6983 28.9827C66.8854 43.9929 59.4897 61.0746 44.1836 67.142C28.8776 73.2036 11.4594 65.9567 5.27234 50.9465C-0.914692 35.9362 6.48105 18.8546 21.7871 12.7871C37.0931 6.72548 54.5113 13.9724 60.6983 28.9827Z" fill="#FEFBF6"/>
<path opacity="0.48" d="M41.724 67.2879C57.1909 62.5868 65.8433 46.4797 61.0495 31.3117C56.2558 16.1436 39.8313 7.65847 24.3644 12.3596C8.89747 17.0607 0.245142 33.1678 5.03887 48.3358C9.8326 63.5039 26.2571 71.989 41.724 67.2879Z" fill="#FEF6EC"/>
<path opacity="0.51" d="M41.3996 66.6263C56.6047 62.1386 65.2211 46.4125 60.6449 31.5012C56.0686 16.5899 40.0327 8.14001 24.8276 12.6278C9.62251 17.1156 1.00611 32.8416 5.58232 47.7529C10.1585 62.6642 26.1945 71.1141 41.3996 66.6263Z" fill="#FDF2E3"/>
<path opacity="0.55" d="M41.0381 66.0051C55.985 61.7466 64.5816 46.4116 60.2391 31.7536C55.8966 17.0956 40.2595 8.66516 25.3127 12.9237C10.3658 17.1823 1.76929 32.5172 6.11176 47.1752C10.4542 61.8332 26.0913 70.2637 41.0381 66.0051Z" fill="#FDEDD9"/>
<path opacity="0.59" d="M40.6439 65.4499C55.3398 61.4395 63.9381 46.5054 59.8487 32.0935C55.7594 17.6816 40.5309 9.24941 25.8351 13.2597C11.1392 17.2701 2.54085 32.2042 6.6302 46.6161C10.7195 61.0281 25.948 69.4602 40.6439 65.4499Z" fill="#FCE9D0"/>
<path opacity="0.62" d="M40.2018 64.8381C54.6471 61.0979 63.2656 46.5819 59.4517 32.4157C55.6378 18.2496 40.8357 9.79769 26.3904 13.5379C11.9451 17.2781 3.32669 31.7941 7.1406 45.9603C10.9545 60.1264 25.7565 68.5783 40.2018 64.8381Z" fill="#FBE4C6"/>
<path opacity="0.66" d="M39.7191 64.2237C53.9184 60.7828 62.5848 46.705 59.0761 32.7801C55.5674 18.8552 41.2122 10.3563 27.013 13.7972C12.8137 17.2381 4.14727 31.3159 7.65597 45.2407C11.1647 59.1656 25.5198 67.6646 39.7191 64.2237Z" fill="#FBE0BD"/>
<path opacity="0.7" d="M39.1502 63.6859C53.1091 60.5858 61.8625 46.9754 58.7013 33.2862C55.5402 19.597 41.6616 11.0128 27.7026 14.1129C13.7437 17.2129 4.99032 30.8233 8.15147 44.5125C11.3126 58.2018 25.1912 66.786 39.1502 63.6859Z" fill="#FADBB3"/>
<path opacity="0.74" d="M38.4892 63.1027C52.2124 60.3939 61.0982 47.2881 58.3361 33.8301C55.574 20.372 42.2099 11.6579 28.4867 14.3666C14.7634 17.0754 5.87763 30.1812 8.63974 43.6393C11.4019 57.0973 24.7659 65.8114 38.4892 63.1027Z" fill="#F9D7AA"/>
<path opacity="0.78" d="M37.7013 62.5266C51.193 60.2817 60.2744 47.7359 57.9852 34.5049C55.696 21.2739 42.903 12.368 29.4113 14.613C15.9196 16.858 6.83822 29.4037 9.12744 42.6347C11.4167 55.8657 24.2096 64.7716 37.7013 62.5266Z" fill="#F9D2A0"/>
<path opacity="0.81" d="M36.7179 61.9468C49.9783 60.2671 59.3395 48.3634 57.6267 35.3592C55.9139 22.355 43.7757 13.1747 30.5152 14.8544C17.2548 16.5342 7.89361 28.4378 9.60643 41.442C11.3192 54.4462 23.4575 63.6265 36.7179 61.9468Z" fill="#F8CE97"/>
<path opacity="0.85" d="M35.4691 61.3723C48.4883 60.4034 58.2415 49.2677 57.2534 36.5C56.2654 23.7324 44.9102 14.1677 31.891 15.1367C18.8718 16.1056 9.11862 27.2413 10.1067 40.009C11.0947 52.7766 22.4499 62.3413 35.4691 61.3723Z" fill="#F8C98D"/>
<path opacity="0.89" d="M33.8458 60.7036C46.5884 60.6491 56.8733 50.4746 56.8177 37.9782C56.7621 25.4819 46.3871 15.3958 33.6445 15.4503C20.9019 15.5048 10.6171 25.6793 10.6727 38.1757C10.7283 50.672 21.1033 60.7581 33.8458 60.7036Z" fill="#F7C584"/>
<path opacity="0.93" d="M56.2275 39.9899C57.382 27.854 48.286 17.098 35.911 15.9658C23.536 14.8336 12.5681 23.7538 11.4136 35.8897C10.259 48.0256 19.355 58.7815 31.7301 59.9138C44.1051 61.046 55.073 52.1258 56.2275 39.9899Z" fill="#F6C07A"/>
<path opacity="0.96" d="M55.2784 42.4961C57.9336 30.9042 50.5038 19.3963 38.6835 16.7925C26.8632 14.1886 15.1285 21.4749 12.4734 33.0667C9.81824 44.6586 17.2481 56.1665 29.0683 58.7704C40.8886 61.3742 52.6233 54.088 55.2784 42.4961Z" fill="#F6BC71"/>
<path d="M53.8431 45.2618C58.1394 34.4831 52.7122 22.3298 41.7211 18.1165C30.7301 13.9033 18.3373 19.2256 14.041 30.0042C9.74472 40.7829 15.1719 52.9362 26.1629 57.1495C37.154 61.3628 49.5468 56.0404 53.8431 45.2618Z" fill="#F5B767"/>
</g>
</g>
<mask id="mask1_259_2074" style="mask-type:luminance" maskUnits="userSpaceOnUse" x="10" y="10" width="49" height="47">
<path d="M51.4453 50.1292C60.7315 41.0224 60.7315 26.2575 51.4453 17.1507C42.1591 8.04396 27.1032 8.04397 17.817 17.1507C8.53083 26.2575 8.53083 41.0224 17.817 50.1292C27.1032 59.2359 42.1591 59.2359 51.4453 50.1292Z" fill="white"/>
</mask>
<g mask="url(#mask1_259_2074)">
<path d="M51.4453 50.1292C60.7315 41.0224 60.7315 26.2575 51.4453 17.1507C42.1591 8.04396 27.1032 8.04397 17.817 17.1507C8.53083 26.2575 8.53083 41.0224 17.817 50.1292C27.1032 59.2359 42.1591 59.2359 51.4453 50.1292Z" fill="url(#paint1_linear_259_2074)"/>
<path d="M34.6338 10.3285C27.9502 10.3285 21.9247 13.0395 17.6046 17.3935C21.8888 13.3035 27.651 10.8507 34.1013 10.8507C47.2353 10.8507 57.8023 21.5128 57.8023 34.393C57.8023 40.7187 55.1276 47.1265 50.5621 50.9113C56.4321 46.0526 58.4126 40.2023 58.4126 33.6478C58.4126 20.7676 47.7678 10.3285 34.6338 10.3285Z" fill="#FFAB1A"/>
<path d="M35.2443 56.3627C22.1103 56.3627 11.4655 45.9236 11.4655 33.0434C11.4655 26.7589 14.0145 21.0611 18.1372 16.8713C13.6555 21.1139 10.8552 27.0522 10.8552 33.642C10.8552 46.5221 21.5 56.9613 34.6339 56.9613C41.3535 56.9613 47.4149 54.215 51.735 49.8199C47.4568 53.863 41.6527 56.3627 35.2443 56.3627Z" fill="#FFC153"/>
<g style="mix-blend-mode:screen">
<path d="M36.052 58.1583C50.642 58.1583 62.4695 46.5593 62.4695 32.2512C62.4695 17.9431 50.642 6.34416 36.052 6.34416C21.462 6.34416 9.63446 17.9431 9.63446 32.2512C9.63446 46.5593 21.462 58.1583 36.052 58.1583Z" fill="#947446"/>
<path opacity="0.96" d="M61.1401 38.4805C64.4612 24.6812 55.7465 10.8544 41.6753 7.5975C27.6041 4.34057 13.5049 12.8868 10.1838 26.6861C6.86265 40.4854 15.5773 54.3122 29.6485 57.5692C43.7197 60.8261 57.819 52.2798 61.1401 38.4805Z" fill="#8B6D42"/>
<path opacity="0.93" d="M35.304 58.3754C49.6296 58.3754 61.2428 46.9866 61.2428 32.9378C61.2428 18.889 49.6296 7.50018 35.304 7.50018C20.9783 7.50018 9.36511 18.889 9.36511 32.9378C9.36511 46.9866 20.9783 58.3754 35.304 58.3754Z" fill="#82663D"/>
<path opacity="0.89" d="M60.3032 37.3339C62.5768 23.5978 53.0652 10.6549 39.0583 8.4252C25.0515 6.19551 11.8536 15.5233 9.58001 29.2595C7.30638 42.9956 16.818 55.9385 30.8248 58.1682C44.8316 60.3979 58.0295 51.0701 60.3032 37.3339Z" fill="#785E39"/>
<path opacity="0.85" d="M52.5546 51.2779C62.495 41.5295 62.4951 25.7242 52.5546 15.9758C42.6141 6.22745 26.4974 6.22746 16.5569 15.9759C6.61643 25.7242 6.61644 41.5295 16.5569 51.2779C26.4974 61.0263 42.6141 61.0263 52.5546 51.2779Z" fill="#6F5735"/>
<path opacity="0.81" d="M34.179 58.6982C48.1048 58.6982 59.3939 47.6272 59.3939 33.9706C59.3939 20.3139 48.1048 9.24296 34.179 9.24296C20.2532 9.24296 8.9642 20.3139 8.9642 33.9706C8.9642 47.6272 20.2532 58.6982 34.179 58.6982Z" fill="#665030"/>
<path opacity="0.78" d="M51.4556 51.6332C61.2068 42.0704 61.2068 26.5661 51.4556 17.0033C41.7044 7.44055 25.8946 7.44054 16.1434 17.0033C6.39216 26.5661 6.39215 42.0704 16.1433 51.6332C25.8946 61.196 41.7044 61.1959 51.4556 51.6332Z" fill="#5D492C"/>
<path opacity="0.74" d="M33.4312 58.9152C47.0893 58.9152 58.1614 48.0571 58.1614 34.6629C58.1614 21.2688 47.0893 10.4106 33.4312 10.4106C19.7731 10.4106 8.70108 21.2688 8.70108 34.6629C8.70108 48.0571 19.7731 58.9152 33.4312 58.9152Z" fill="#534127"/>
<path opacity="0.7" d="M33.0541 59.0267C46.5801 59.0267 57.545 48.2737 57.545 35.0092C57.545 21.7446 46.5801 10.9916 33.0541 10.9916C19.5282 10.9916 8.56329 21.7446 8.56329 35.0092C8.56329 48.2737 19.5282 59.0267 33.0541 59.0267Z" fill="#4A3A23"/>
<path opacity="0.66" d="M56.2851 40.7001C59.3018 27.9061 51.1714 15.1361 38.1252 12.1777C25.079 9.21925 12.0574 17.1926 9.0407 29.9866C6.02396 42.7807 14.1544 55.5507 27.2006 58.5091C40.2468 61.4676 53.2683 53.4942 56.2851 40.7001Z" fill="#41331F"/>
<path opacity="0.62" d="M32.3064 59.238C45.5646 59.238 56.3125 48.6978 56.3125 35.6957C56.3125 22.6937 45.5646 12.1535 32.3064 12.1535C19.0481 12.1535 8.30017 22.6937 8.30017 35.6957C8.30017 48.6978 19.0481 59.238 32.3064 59.238Z" fill="#382C1A"/>
<path opacity="0.59" d="M55.3693 39.8635C57.5222 27.1654 48.7708 15.16 35.8225 13.0488C22.8742 10.9375 10.6323 19.5198 8.4794 32.2179C6.32653 44.916 15.078 56.9213 28.0263 59.0326C40.9745 61.1439 53.2164 52.5615 55.3693 39.8635Z" fill="#2E2416"/>
<path opacity="0.55" d="M54.5209 41.4885C57.3856 29.0626 49.4363 16.7119 36.7656 13.9025C24.0948 11.0931 11.5008 18.8888 8.63604 31.3147C5.77127 43.7406 13.7206 56.0913 26.3913 58.9007C39.0621 61.7101 51.6561 53.9144 54.5209 41.4885Z" fill="#251D12"/>
<path opacity="0.51" d="M31.1814 59.5666C44.0398 59.5666 54.4635 49.3443 54.4635 36.7344C54.4635 24.1245 44.0398 13.9021 31.1814 13.9021C18.323 13.9021 7.89926 24.1245 7.89926 36.7344C7.89926 49.3443 18.323 59.5666 31.1814 59.5666Z" fill="#1C160D"/>
<path opacity="0.48" d="M47.096 53.0528C56.0948 44.2279 56.0948 29.9199 47.096 21.095C38.0972 12.2701 23.5073 12.2701 14.5086 21.095C5.50978 29.9199 5.50978 44.2279 14.5085 53.0528C23.5073 61.8776 38.0972 61.8776 47.096 53.0528Z" fill="#130F09"/>
<path opacity="0.44" d="M52.9735 40.9362C54.9453 28.7411 46.4629 17.2875 34.0276 15.3538C21.5923 13.4202 9.91297 21.7386 7.94118 33.9337C5.96939 46.1287 14.4518 57.5823 26.8871 59.516C39.3225 61.4497 51.0017 53.1312 52.9735 40.9362Z" fill="#090704"/>
<path opacity="0.4" d="M30.0565 59.8893C42.515 59.8893 52.6146 49.9848 52.6146 37.7671C52.6146 25.5493 42.515 15.6448 30.0565 15.6448C17.598 15.6448 7.49834 25.5493 7.49834 37.7671C7.49834 49.9848 17.598 59.8893 30.0565 59.8893Z" fill="black"/>
</g>
</g>
<path d="M59.4957 35.5021C49.7604 35.5021 41.5629 41.8981 38.9959 50.6297C37.518 50.1133 35.9383 49.8199 34.2808 49.8199C26.5201 49.8199 20.2254 55.993 20.2254 63.6037C20.2254 71.2145 26.5201 77.3876 34.2808 77.3876H59.5016C71.2953 77.3876 80.8571 68.0106 80.8571 56.4448C80.8571 44.8791 71.2953 35.5021 59.5016 35.5021H59.4957Z" fill="white"/>
<path d="M60.6386 36.6228C50.9033 36.6228 42.7117 43.0131 40.1388 51.7504C38.6608 51.2341 37.0812 50.9407 35.4237 50.9407C27.663 50.9407 21.3683 57.1138 21.3683 64.7245C21.3683 72.3353 27.663 78.5083 35.4237 78.5083H60.6446C72.4382 78.5083 82 69.1314 82 57.5656C82 45.9998 72.4382 36.6228 60.6446 36.6228H60.6386Z" fill="white"/>
<mask id="mask2_259_2074" style="mask-type:luminance" maskUnits="userSpaceOnUse" x="20" y="36" width="62" height="42">
<path d="M60.1239 36.1182C50.3886 36.1182 42.1911 42.5084 39.6242 51.2458C38.1462 50.7294 36.5665 50.4302 34.9091 50.4302C27.1484 50.4302 20.8536 56.6033 20.8536 64.214C20.8536 71.8248 27.1484 77.9979 34.9091 77.9979H60.1299C71.9236 77.9979 81.4854 68.6209 81.4854 57.0551C81.4854 45.4893 71.9236 36.1123 60.1299 36.1123L60.1239 36.1182Z" fill="white"/>
</mask>
<g mask="url(#mask2_259_2074)">
<path d="M60.1238 36.1182C50.3885 36.1182 42.191 42.5084 39.624 51.2458C38.1461 50.7294 36.5664 50.4302 34.909 50.4302C27.1482 50.4302 20.8535 56.6033 20.8535 64.214C20.8535 71.8248 27.1482 77.9979 34.909 77.9979H60.1298C71.9235 77.9979 81.4852 68.6209 81.4852 57.0551C81.4852 45.4893 71.9235 36.1123 60.1298 36.1123L60.1238 36.1182Z" fill="url(#paint2_linear_259_2074)"/>
<g style="mix-blend-mode:multiply" opacity="0.4">
<path d="M36.1357 74.4361C58.2801 74.4361 76.2317 56.8314 76.2317 35.1148C76.2317 13.3983 58.2801 -4.2064 36.1357 -4.2064C13.9912 -4.2064 -3.96038 13.3983 -3.96038 35.1148C-3.96038 56.8314 13.9912 74.4361 36.1357 74.4361Z" fill="white"/>
</g>
<g style="mix-blend-mode:multiply" opacity="0.44">
<path d="M36.1357 73.3857C57.6886 73.3857 75.1607 56.2512 75.1607 35.1148C75.1607 13.9784 57.6886 -3.15605 36.1357 -3.15605C14.5828 -3.15605 -2.8892 13.9784 -2.8892 35.1148C-2.8892 56.2512 14.5828 73.3857 36.1357 73.3857Z" fill="#FFFDFA"/>
</g>
<g style="mix-blend-mode:multiply" opacity="0.48">
<path d="M36.1356 72.3294C57.0937 72.3294 74.0835 55.6679 74.0835 35.1148C74.0835 14.5617 57.0937 -2.09984 36.1356 -2.09984C15.1776 -2.09984 -1.81229 14.5617 -1.81229 35.1148C-1.81229 55.6679 15.1776 72.3294 36.1356 72.3294Z" fill="#FFFBF5"/>
</g>
<g style="mix-blend-mode:multiply" opacity="0.51">
<path d="M36.1357 71.2732C56.499 71.2732 73.0066 55.0846 73.0066 35.1148C73.0066 15.1451 56.499 -1.04357 36.1357 -1.04357C15.7725 -1.04357 -0.735127 15.1451 -0.735127 35.1148C-0.735127 55.0846 15.7725 71.2732 36.1357 71.2732Z" fill="#FFF9F0"/>
</g>
<g style="mix-blend-mode:multiply" opacity="0.55">
<path d="M36.1356 70.217C55.904 70.217 71.9295 54.5012 71.9295 35.1148C71.9295 15.7284 55.904 0.012643 36.1356 0.012643C16.3672 0.012643 0.341789 15.7284 0.341789 35.1148C0.341789 54.5012 16.3672 70.217 36.1356 70.217Z" fill="#FFF7EB"/>
</g>
<g style="mix-blend-mode:multiply" opacity="0.59">
<path d="M36.1356 69.1666C55.3124 69.1666 70.8584 53.9211 70.8584 35.1148C70.8584 16.3086 55.3124 1.06305 36.1356 1.06305C16.9587 1.06305 1.41284 16.3086 1.41284 35.1148C1.41284 53.9211 16.9587 69.1666 36.1356 69.1666Z" fill="#FFF5E5"/>
</g>
<g style="mix-blend-mode:multiply" opacity="0.62">
<path d="M36.1357 68.1104C54.7177 68.1104 69.7814 53.3378 69.7814 35.1148C69.7814 16.8919 54.7177 2.11926 36.1357 2.11926C17.5537 2.11926 2.49 16.8919 2.49 35.1148C2.49 53.3378 17.5537 68.1104 36.1357 68.1104Z" fill="#FFF3E0"/>
</g>
<g style="mix-blend-mode:multiply" opacity="0.66">
<path d="M36.1356 67.0541C54.1228 67.0541 68.7043 52.7544 68.7043 35.1148C68.7043 17.4752 54.1228 3.17547 36.1356 3.17547C18.1484 3.17547 3.56692 17.4752 3.56692 35.1148C3.56692 52.7544 18.1484 67.0541 36.1356 67.0541Z" fill="#FFF1DB"/>
</g>
<g style="mix-blend-mode:multiply" opacity="0.7">
<path d="M58.4108 56.9546C70.7114 44.8917 70.7114 25.3339 58.4108 13.271C46.1102 1.20812 26.1671 1.20812 13.8665 13.271C1.56589 25.3339 1.56588 44.8917 13.8665 56.9546C26.167 69.0175 46.1102 69.0175 58.4108 56.9546Z" fill="#FFEFD6"/>
</g>
<g style="mix-blend-mode:multiply" opacity="0.74">
<path d="M36.1359 64.9475C52.9367 64.9475 66.5565 51.5909 66.5565 35.1148C66.5565 18.6386 52.9367 5.28203 36.1359 5.28203C19.3351 5.28203 5.71537 18.6386 5.71537 35.1148C5.71537 51.5909 19.3351 64.9475 36.1359 64.9475Z" fill="#FFECD1"/>
</g>
<g style="mix-blend-mode:multiply" opacity="0.78">
<path d="M36.1357 63.8913C52.3417 63.8913 65.4792 51.0076 65.4792 35.1148C65.4792 19.222 52.3417 6.3383 36.1357 6.3383C19.9297 6.3383 6.79217 19.222 6.79217 35.1148C6.79217 51.0076 19.9297 63.8913 36.1357 63.8913Z" fill="#FFEACC"/>
</g>
<g style="mix-blend-mode:multiply" opacity="0.81">
<path d="M36.1357 62.8409C51.7501 62.8409 64.4081 50.4275 64.4081 35.1148C64.4081 19.8021 51.7501 7.38865 36.1357 7.38865C20.5212 7.38865 7.86322 19.8021 7.86322 35.1148C7.86322 50.4275 20.5212 62.8409 36.1357 62.8409Z" fill="#FFE8C7"/>
</g>
<g style="mix-blend-mode:multiply" opacity="0.85">
<path d="M36.1357 61.7847C51.1553 61.7847 63.3311 49.8442 63.3311 35.1148C63.3311 20.3854 51.1553 8.44492 36.1357 8.44492C21.1161 8.44492 8.94026 20.3854 8.94026 35.1148C8.94026 49.8442 21.1161 61.7847 36.1357 61.7847Z" fill="#FFE6C2"/>
</g>
<g style="mix-blend-mode:multiply" opacity="0.89">
<path d="M36.1356 60.7285C50.5604 60.7285 62.254 49.2608 62.254 35.1148C62.254 20.9688 50.5604 9.50113 36.1356 9.50113C21.7109 9.50113 10.0173 20.9688 10.0173 35.1148C10.0173 49.2608 21.7109 60.7285 36.1356 60.7285Z" fill="#FFE4BC"/>
</g>
<g style="mix-blend-mode:multiply" opacity="0.93">
<path d="M36.1354 59.672C49.9653 59.672 61.1767 48.6773 61.1767 35.1146C61.1767 21.5519 49.9653 10.5572 36.1354 10.5572C22.3055 10.5572 11.0941 21.5519 11.0941 35.1146C11.0941 48.6773 22.3055 59.672 36.1354 59.672Z" fill="#FFE2B7"/>
</g>
<g style="mix-blend-mode:multiply" opacity="0.96">
<path d="M36.1354 58.6218C49.3738 58.6218 60.1057 48.0973 60.1057 35.1147C60.1057 22.1322 49.3738 11.6077 36.1354 11.6077C22.897 11.6077 12.1651 22.1322 12.1651 35.1147C12.1651 48.0973 22.897 58.6218 36.1354 58.6218Z" fill="#FFE0B2"/>
</g>
<g style="mix-blend-mode:multiply">
<path d="M36.1356 57.5656C48.7792 57.5656 59.0289 47.514 59.0289 35.1148C59.0289 22.7155 48.7792 12.664 36.1356 12.664C23.4921 12.664 13.2424 22.7155 13.2424 35.1148C13.2424 47.514 23.4921 57.5656 36.1356 57.5656Z" fill="#FFDEAD"/>
</g>
<g style="mix-blend-mode:multiply">
<path d="M36.1356 57.3075C48.6338 57.3075 58.7655 47.3715 58.7655 35.1148C58.7655 22.8582 48.6338 12.9222 36.1356 12.9222C23.6374 12.9222 13.5057 22.8582 13.5057 35.1148C13.5057 47.3715 23.6374 57.3075 36.1356 57.3075Z" fill="#FFDDAB"/>
</g>
<g style="mix-blend-mode:multiply">
<path d="M36.1357 57.0493C48.4885 57.0493 58.5023 47.2289 58.5023 35.1148C58.5023 23.0008 48.4885 13.1804 36.1357 13.1804C23.7829 13.1804 13.769 23.0008 13.769 35.1148C13.769 47.2289 23.7829 57.0493 36.1357 57.0493Z" fill="#FFDCA8"/>
</g>
<g style="mix-blend-mode:multiply">
<path d="M36.1357 56.7969C48.3463 56.7969 58.245 47.0895 58.245 35.1148C58.245 23.1401 48.3463 13.4327 36.1357 13.4327C23.925 13.4327 14.0263 23.1401 14.0263 35.1148C14.0263 47.0895 23.925 56.7969 36.1357 56.7969Z" fill="#FFDBA6"/>
</g>
<g style="mix-blend-mode:multiply">
<path d="M36.1357 56.5387C48.201 56.5387 57.9818 46.9469 57.9818 35.1148C57.9818 23.2827 48.201 13.6909 36.1357 13.6909C24.0705 13.6909 14.2897 23.2827 14.2897 35.1148C14.2897 46.9469 24.0705 56.5387 36.1357 56.5387Z" fill="#FFDAA3"/>
</g>
<g style="mix-blend-mode:multiply">
<path d="M36.1356 56.2805C48.0554 56.2805 57.7184 46.8043 57.7184 35.1148C57.7184 23.4253 48.0554 13.949 36.1356 13.949C24.2157 13.949 14.5528 23.4253 14.5528 35.1148C14.5528 46.8043 24.2157 56.2805 36.1356 56.2805Z" fill="#FFD9A1"/>
</g>
<g style="mix-blend-mode:multiply">
<path d="M36.1359 56.0223C47.9104 56.0223 57.4554 46.6616 57.4554 35.1147C57.4554 23.5678 47.9104 14.2071 36.1359 14.2071C24.3615 14.2071 14.8164 23.5678 14.8164 35.1147C14.8164 46.6616 24.3615 56.0223 36.1359 56.0223Z" fill="#FFD89E"/>
</g>
<g style="mix-blend-mode:multiply">
<path d="M36.1356 55.77C47.768 55.77 57.1979 46.5224 57.1979 35.1148C57.1979 23.7072 47.768 14.4596 36.1356 14.4596C24.5033 14.4596 15.0734 23.7072 15.0734 35.1148C15.0734 46.5224 24.5033 55.77 36.1356 55.77Z" fill="#FFD79C"/>
</g>
<g style="mix-blend-mode:multiply">
<path d="M36.1357 55.5118C47.6227 55.5118 56.9347 46.3798 56.9347 35.1148C56.9347 23.8498 47.6227 14.7177 36.1357 14.7177C24.6488 14.7177 15.3368 23.8498 15.3368 35.1148C15.3368 46.3798 24.6488 55.5118 36.1357 55.5118Z" fill="#FFD699"/>
</g>
<g style="mix-blend-mode:multiply">
<path d="M36.1356 55.2537C47.4771 55.2537 56.6712 46.2372 56.6712 35.1148C56.6712 23.9925 47.4771 14.976 36.1356 14.976C24.794 14.976 15.5999 23.9925 15.5999 35.1148C15.5999 46.2372 24.794 55.2537 36.1356 55.2537Z" fill="#FFD597"/>
</g>
<g style="mix-blend-mode:multiply">
<path d="M36.1354 54.9955C47.3315 54.9955 56.4078 46.0947 56.4078 35.1149C56.4078 24.1351 47.3315 15.2342 36.1354 15.2342C24.9393 15.2342 15.863 24.1351 15.863 35.1149C15.863 46.0947 24.9393 54.9955 36.1354 54.9955Z" fill="#FFD494"/>
</g>
<g style="mix-blend-mode:multiply">
<path d="M36.1356 54.7431C47.1897 54.7431 56.1507 45.9552 56.1507 35.1148C56.1507 24.2744 47.1897 15.4865 36.1356 15.4865C25.0816 15.4865 16.1205 24.2744 16.1205 35.1148C16.1205 45.9552 25.0816 54.7431 36.1356 54.7431Z" fill="#FFD392"/>
</g>
<g style="mix-blend-mode:multiply">
<path d="M36.1357 54.485C47.0443 54.485 55.8875 45.8126 55.8875 35.1148C55.8875 24.417 47.0443 15.7446 36.1357 15.7446C25.2271 15.7446 16.3839 24.417 16.3839 35.1148C16.3839 45.8126 25.2271 54.485 36.1357 54.485Z" fill="#FFD28F"/>
</g>
<g style="mix-blend-mode:multiply">
<path d="M36.1357 54.2267C46.8989 54.2267 55.6242 45.67 55.6242 35.1148C55.6242 24.5595 46.8989 16.0028 36.1357 16.0028C25.3724 16.0028 16.6471 24.5595 16.6471 35.1148C16.6471 45.67 25.3724 54.2267 36.1357 54.2267Z" fill="#FFD18D"/>
</g>
<g style="mix-blend-mode:multiply">
<path d="M36.1359 53.9683C46.7537 53.9683 55.3612 45.5272 55.3612 35.1146C55.3612 24.7019 46.7537 16.2608 36.1359 16.2608C25.5181 16.2608 16.9106 24.7019 16.9106 35.1146C16.9106 45.5272 25.5181 53.9683 36.1359 53.9683Z" fill="#FFD08A"/>
</g>
<g style="mix-blend-mode:multiply">
<path d="M36.1356 53.7162C46.6113 53.7162 55.1036 45.3881 55.1036 35.1148C55.1036 24.8415 46.6113 16.5134 36.1356 16.5134C25.6599 16.5134 17.1676 24.8415 17.1676 35.1148C17.1676 45.3881 25.6599 53.7162 36.1356 53.7162Z" fill="#FFCF88"/>
</g>
<g style="mix-blend-mode:multiply">
<path d="M36.1357 53.4581C46.466 53.4581 54.8404 45.2455 54.8404 35.1148C54.8404 24.9841 46.466 16.7715 36.1357 16.7715C25.8054 16.7715 17.431 24.9841 17.431 35.1148C17.431 45.2455 25.8054 53.4581 36.1357 53.4581Z" fill="#FFCE85"/>
</g>
<g style="mix-blend-mode:screen">
<g style="mix-blend-mode:multiply" opacity="0.4">
<path d="M36.1357 76.5954C59.4962 76.5954 78.4336 58.0239 78.4336 35.1148C78.4336 12.2057 59.4962 -6.36585 36.1357 -6.36585C12.7751 -6.36585 -6.16234 12.2057 -6.16234 35.1148C-6.16234 58.0239 12.7751 76.5954 36.1357 76.5954Z" fill="black"/>
</g>
<g style="mix-blend-mode:multiply" opacity="0.44">
<path d="M36.1356 75.6096C58.941 75.6096 77.4284 57.4794 77.4284 35.1148C77.4284 12.7501 58.941 -5.38006 36.1356 -5.38006C13.3303 -5.38006 -5.15713 12.7501 -5.15713 35.1148C-5.15713 57.4794 13.3303 75.6096 36.1356 75.6096Z" fill="#0C0A03"/>
</g>
<g style="mix-blend-mode:multiply" opacity="0.48">
<path d="M36.1357 74.6238C58.3859 74.6238 76.4232 56.935 76.4232 35.1148C76.4232 13.2946 58.3859 -4.39421 36.1357 -4.39421C13.8855 -4.39421 -4.15179 13.2946 -4.15179 35.1148C-4.15179 56.935 13.8855 74.6238 36.1357 74.6238Z" fill="#171405"/>
</g>
<g style="mix-blend-mode:multiply" opacity="0.51">
<path d="M36.1357 73.6321C57.8274 73.6321 75.412 56.3873 75.412 35.1148C75.412 13.8422 57.8274 -3.40256 36.1357 -3.40256C14.444 -3.40256 -3.1406 13.8422 -3.1406 35.1148C-3.1406 56.3873 14.444 73.6321 36.1357 73.6321Z" fill="#231E08"/>
</g>
<g style="mix-blend-mode:multiply" opacity="0.55">
<path d="M36.1354 72.6462C57.2719 72.6462 74.4064 55.8427 74.4064 35.1147C74.4064 14.3866 57.2719 -2.41683 36.1354 -2.41683C14.9989 -2.41683 -2.13563 14.3866 -2.13563 35.1147C-2.13563 55.8427 14.9989 72.6462 36.1354 72.6462Z" fill="#2E280A"/>
</g>
<g style="mix-blend-mode:multiply" opacity="0.59">
<path d="M36.1356 71.6604C56.7169 71.6604 73.4014 55.2984 73.4014 35.1148C73.4014 14.9311 56.7169 -1.43092 36.1356 -1.43092C15.5543 -1.43092 -1.13018 14.9311 -1.13018 35.1148C-1.13018 55.2984 15.5543 71.6604 36.1356 71.6604Z" fill="#3A320D"/>
</g>
<g style="mix-blend-mode:multiply" opacity="0.62">
<path d="M36.1356 70.6688C56.1584 70.6688 72.3901 54.7507 72.3901 35.1148C72.3901 15.4789 56.1584 -0.439207 36.1356 -0.439207C16.1127 -0.439207 -0.118979 15.4789 -0.118979 35.1148C-0.118979 54.7507 16.1127 70.6688 36.1356 70.6688Z" fill="#453C0F"/>
</g>
<g style="mix-blend-mode:multiply" opacity="0.66">
<path d="M36.1357 69.6829C55.6033 69.6829 71.385 54.2062 71.385 35.1148C71.385 16.0233 55.6033 0.546581 36.1357 0.546581C16.668 0.546581 0.886354 16.0233 0.886354 35.1148C0.886354 54.2062 16.668 69.6829 36.1357 69.6829Z" fill="#514612"/>
</g>
<g style="mix-blend-mode:multiply" opacity="0.7">
<path d="M69.4809 42.8197C73.8157 24.7664 62.4062 6.68521 43.9972 2.43422C25.5882 -1.81676 7.15073 9.3722 2.81598 27.4255C-1.51877 45.4788 9.89069 63.56 28.2997 67.8109C46.7087 72.0619 65.1462 60.873 69.4809 42.8197Z" fill="#5C5014"/>
</g>
<g style="mix-blend-mode:multiply" opacity="0.74">
<path d="M36.1357 67.7054C54.4897 67.7054 69.3686 53.1141 69.3686 35.1148C69.3686 17.1154 54.4897 2.52408 36.1357 2.52408C17.7817 2.52408 2.90288 17.1154 2.90288 35.1148C2.90288 53.1141 17.7817 67.7054 36.1357 67.7054Z" fill="#685916"/>
</g>
<g style="mix-blend-mode:multiply" opacity="0.78">
<path d="M36.1356 66.7196C53.9344 66.7196 68.3632 52.5697 68.3632 35.1148C68.3632 17.6599 53.9344 3.50993 36.1356 3.50993C18.3368 3.50993 3.90797 17.6599 3.90797 35.1148C3.90797 52.5697 18.3368 66.7196 36.1356 66.7196Z" fill="#736319"/>
</g>
<g style="mix-blend-mode:multiply" opacity="0.81">
<path d="M36.1357 65.7338C53.3793 65.7338 67.358 52.0252 67.358 35.1148C67.358 18.2043 53.3793 4.49572 36.1357 4.49572C18.892 4.49572 4.91331 18.2043 4.91331 35.1148C4.91331 52.0252 18.892 65.7338 36.1357 65.7338Z" fill="#7F6D1C"/>
</g>
<g style="mix-blend-mode:multiply" opacity="0.85">
<path d="M36.1356 64.7421C52.8208 64.7421 66.3468 51.4775 66.3468 35.1148C66.3468 18.7521 52.8208 5.48743 36.1356 5.48743C19.4505 5.48743 5.9245 18.7521 5.9245 35.1148C5.9245 51.4775 19.4505 64.7421 36.1356 64.7421Z" fill="#8A771E"/>
</g>
<g style="mix-blend-mode:multiply" opacity="0.89">
<path d="M36.1357 63.7563C52.2657 63.7563 65.3416 50.933 65.3416 35.1147C65.3416 19.2965 52.2657 6.47322 36.1357 6.47322C20.0058 6.47322 6.92984 19.2965 6.92984 35.1147C6.92984 50.933 20.0058 63.7563 36.1357 63.7563Z" fill="#968121"/>
</g>
<g style="mix-blend-mode:multiply" opacity="0.93">
<path d="M36.1356 62.7705C51.7104 62.7705 64.3362 50.3886 64.3362 35.1148C64.3362 19.841 51.7104 7.45907 36.1356 7.45907C20.5608 7.45907 7.93492 19.841 7.93492 35.1148C7.93492 50.3886 20.5608 62.7705 36.1356 62.7705Z" fill="#A18B23"/>
</g>
<g style="mix-blend-mode:multiply" opacity="0.96">
<path d="M36.1357 61.7788C51.152 61.7788 63.3251 49.8409 63.3251 35.1148C63.3251 20.3886 51.152 8.45072 36.1357 8.45072C21.1194 8.45072 8.94624 20.3886 8.94624 35.1148C8.94624 49.8409 21.1194 61.7788 36.1357 61.7788Z" fill="#AD9526"/>
</g>
<g style="mix-blend-mode:multiply">
<path d="M36.1356 60.793C50.5968 60.793 62.3198 49.2965 62.3198 35.1148C62.3198 20.9331 50.5968 9.43657 36.1356 9.43657C21.6745 9.43657 9.95145 20.9331 9.95145 35.1148C9.95145 49.2965 21.6745 60.793 36.1356 60.793Z" fill="#B89F28"/>
</g>
<g style="mix-blend-mode:multiply">
<path d="M36.1357 60.2942C50.3159 60.2942 61.8113 49.021 61.8113 35.1148C61.8113 21.2085 50.3159 9.93533 36.1357 9.93533C21.9554 9.93533 10.4601 21.2085 10.4601 35.1148C10.4601 49.021 21.9554 60.2942 36.1357 60.2942Z" fill="#BCA026"/>
</g>
<g style="mix-blend-mode:multiply">
<path d="M45.3497 58.0963C58.2876 53.1061 64.6508 38.7751 59.5622 26.0872C54.4737 13.3993 39.8603 7.15908 26.9224 12.1493C13.9845 17.1395 7.62128 31.4705 12.7098 44.1584C17.7984 56.8464 32.4118 63.0866 45.3497 58.0963Z" fill="#C1A023"/>
</g>
<g style="mix-blend-mode:multiply">
<path d="M45.1638 57.6323C57.8403 52.7428 64.075 38.7014 59.0892 26.2698C54.1035 13.8383 39.7853 7.72416 27.1088 12.6136C14.4323 17.503 8.1977 31.5444 13.1834 43.976C18.1692 56.4075 32.4873 62.5217 45.1638 57.6323Z" fill="#C5A121"/>
</g>
<g style="mix-blend-mode:multiply">
<path d="M44.9776 57.168C57.3927 52.3795 63.4987 38.6276 58.6158 26.4524C53.7329 14.2772 39.71 8.2891 27.2949 13.0777C14.8798 17.8663 8.77374 31.6181 13.6567 43.7934C18.5396 55.9686 32.5625 61.9566 44.9776 57.168Z" fill="#CAA21E"/>
</g>
<g style="mix-blend-mode:multiply">
<path d="M44.649 56.7299C56.8364 52.118 62.904 38.6904 58.2013 26.7385C53.4985 14.7866 39.8064 8.83633 27.6189 13.4482C15.4315 18.06 9.364 31.4876 14.0667 43.4395C18.7695 55.3914 32.4616 61.3417 44.649 56.7299Z" fill="#CEA21C"/>
</g>
<g style="mix-blend-mode:multiply">
<path d="M44.8 56.1353C56.6533 51.4435 62.3839 38.2168 57.5997 26.5926C52.8155 14.9684 39.3281 9.34849 27.4748 14.0403C15.6216 18.732 9.89096 31.9588 14.6752 43.583C19.4594 55.2072 32.9467 60.8271 44.8 56.1353Z" fill="#D3A319"/>
</g>
<g style="mix-blend-mode:multiply">
<path d="M46.6471 54.76C57.7188 49.0667 61.9881 35.6495 56.1827 24.7917C50.3772 13.9338 36.6956 9.74712 25.6238 15.4404C14.5521 21.1336 10.2828 34.5509 16.0882 45.4087C21.8937 56.2665 35.5753 60.4532 46.6471 54.76Z" fill="#D7A416"/>
</g>
<g style="mix-blend-mode:multiply">
<path d="M46.4485 54.3284C57.2615 48.7446 61.4115 35.6217 55.7176 25.0175C50.0238 14.4134 36.6423 10.3437 25.8292 15.9275C15.0161 21.5113 10.8662 34.6342 16.56 45.2384C22.2539 55.8425 35.6354 59.9122 46.4485 54.3284Z" fill="#DCA414"/>
</g>
<g style="mix-blend-mode:multiply">
<path d="M40.1797 55.9179C51.9127 53.7312 59.6167 42.631 57.387 31.1247C55.1573 19.6184 43.8383 12.0633 32.1053 14.25C20.3723 16.4366 12.6683 27.5369 14.898 39.0431C17.1277 50.5494 28.4467 58.1045 40.1797 55.9179Z" fill="#E0A512"/>
</g>
<g style="mix-blend-mode:multiply">
<path d="M44.0962 54.2835C54.8976 49.9714 60.0895 37.8888 55.6925 27.2961C51.2955 16.7033 38.9747 11.6119 28.1733 15.9239C17.3718 20.2359 12.18 32.3186 16.577 42.9113C20.974 53.504 33.2948 58.5955 44.0962 54.2835Z" fill="#E4A60F"/>
</g>
<g style="mix-blend-mode:multiply">
<path d="M43.9692 53.8415C54.497 49.6009 59.5259 37.7937 55.2018 27.4694C50.8776 17.1451 38.8377 12.2133 28.31 16.4539C17.7823 20.6946 12.7533 32.5018 17.0775 42.8261C21.4016 53.1504 33.4415 58.0822 43.9692 53.8415Z" fill="#E9A70D"/>
</g>
<g style="mix-blend-mode:multiply">
<path d="M43.747 53.3371C54.0246 49.2157 58.9493 37.7041 54.7468 27.6251C50.5442 17.5461 38.8057 12.7165 28.5281 16.8379C18.2506 20.9593 13.3258 32.4709 17.5284 42.5499C21.731 52.6289 33.4694 57.4585 43.747 53.3371Z" fill="#EDA70A"/>
</g>
<g style="mix-blend-mode:multiply">
<path d="M43.5545 52.8755C53.5721 48.8584 58.3723 37.638 54.276 27.814C50.1798 17.99 38.7383 13.2825 28.7207 17.2996C18.7031 21.3167 13.9029 32.5372 17.9992 42.3612C22.0954 52.1852 33.537 56.8926 43.5545 52.8755Z" fill="#F2A808"/>
</g>
<g style="mix-blend-mode:multiply">
<path d="M43.362 52.4138C53.1196 48.5009 57.7952 37.5717 53.8053 28.0027C49.8153 18.4337 38.6708 13.8484 28.9132 17.7613C19.1556 21.6741 14.48 32.6033 18.47 42.1723C22.4599 51.7414 33.6045 56.3266 43.362 52.4138Z" fill="#F6A905"/>
</g>
<g style="mix-blend-mode:multiply">
<path d="M54.7207 35.1148C54.7207 45.1783 46.4036 53.3407 36.1357 53.3407C25.8679 53.3407 17.5507 45.1842 17.5507 35.1148C17.5507 25.0453 25.8679 16.8889 36.1357 16.8889C46.4036 16.8889 54.7207 25.0453 54.7207 35.1148Z" fill="#FBA903"/>
</g>
<g style="mix-blend-mode:multiply">
<path d="M54.2118 35.115C54.2118 44.9028 46.116 52.8421 36.1354 52.8421C26.1548 52.8421 18.059 44.9086 18.059 35.115C18.059 25.3214 26.1548 17.3879 36.1354 17.3879C46.116 17.3879 54.2118 25.3214 54.2118 35.115Z" fill="#FFAA00"/>
</g>
</g>
<g style="mix-blend-mode:screen">
<path d="M64.1807 36.482C53.6077 34.575 44.1177 40.3138 40.4259 49.016C39.9053 50.2366 38.559 50.8468 37.2366 50.6238C35.2261 50.2835 33.072 50.3656 30.8402 51.0287C25.8439 52.5075 21.9665 56.7089 21.0809 61.7495C19.5432 70.4458 26.3345 77.9979 34.915 77.9979H60.1358C73.3356 77.9979 83.7351 66.2561 81.0724 52.8419C79.4329 44.6033 72.6116 37.996 64.1927 36.482H64.1807Z" fill="#6686BA"/>
<path opacity="0.95" d="M63.66 35.9482C53.087 34.0411 43.597 39.78 39.9051 48.4822C39.3845 49.7027 38.0383 50.313 36.7099 50.09C34.6994 49.7497 32.5453 49.8318 30.3134 50.4949C25.3171 51.9736 21.4398 56.1751 20.5542 61.2157C19.0164 69.912 25.8078 77.4641 34.3883 77.4641H59.6091C72.8089 77.4641 83.2084 65.7223 80.5457 52.3081C78.9062 44.0695 72.0849 37.4622 63.666 35.9482H63.66Z" fill="#607EAE"/>
<path opacity="0.9" d="M63.1397 35.4141C52.5667 33.507 43.0767 39.2459 39.3848 47.9481C38.8643 49.1686 37.518 49.7847 36.1956 49.5559C34.1851 49.2156 32.031 49.2977 29.7992 49.9608C24.8029 51.4395 20.9255 55.641 20.0399 60.6816C18.5021 69.3779 25.2935 76.93 33.8799 76.93H59.1008C72.3006 76.93 82.7 65.1882 80.0373 51.774C78.3978 43.5354 71.5766 36.928 63.1577 35.4141H63.1397Z" fill="#5975A3"/>
<path opacity="0.85" d="M62.6191 34.886C52.0461 32.9789 42.5561 38.7178 38.8643 47.4199C38.3437 48.6405 36.9974 49.2566 35.675 49.0278C33.6645 48.6874 31.5105 48.7696 29.2786 49.4327C24.2823 50.9114 20.4049 55.1128 19.5193 60.1534C17.9815 68.8497 24.7729 76.4018 33.3594 76.4018H58.5802C71.78 76.4018 82.1795 64.66 79.5168 51.2459C77.8773 43.0072 71.056 36.3999 62.6371 34.886H62.6191Z" fill="#536D97"/>
<path opacity="0.8" d="M62.0982 34.3519C51.5252 32.4448 42.0353 38.1837 38.3434 46.8859C37.8228 48.1064 36.4765 48.7226 35.1541 48.4937C33.1436 48.1534 30.9896 48.2355 28.7577 48.8986C23.7614 50.3773 19.884 54.5788 18.9984 59.6194C17.4607 68.3157 24.252 75.8678 32.8385 75.8678H58.0593C71.2591 75.8678 81.6586 64.126 78.9959 50.7118C77.3564 42.4732 70.5351 35.8658 62.1162 34.3519H62.0982Z" fill="#4D658B"/>
<path opacity="0.75" d="M61.5779 33.818C51.0049 31.9109 41.5149 37.6498 37.823 46.352C37.3024 47.5725 35.9561 48.1887 34.6337 47.9598C32.6233 47.6195 30.4692 47.7016 28.2373 48.3647C23.241 49.8435 19.3636 54.0449 18.4781 59.0855C16.9403 67.7818 23.7317 75.3339 32.3181 75.3339H57.5389C70.7387 75.3339 81.1382 63.5921 78.4755 50.1779C76.836 41.9393 70.0147 35.332 61.5958 33.818H61.5779Z" fill="#465C80"/>
<path opacity="0.7" d="M61.0634 33.284C50.4904 31.3769 41.0004 37.1158 37.3085 45.8179C36.7879 47.0385 35.4416 47.6546 34.1192 47.4258C32.1087 47.0854 29.9547 47.1676 27.7228 47.8307C22.7265 49.3094 18.8491 53.5109 17.9635 58.5514C16.4258 67.2478 23.2171 74.7998 31.8036 74.7998H57.0244C70.2242 74.7998 80.6237 63.058 77.961 49.6439C76.3215 41.4053 69.5002 34.7979 61.0813 33.284H61.0634Z" fill="#405474"/>
<path opacity="0.65" d="M60.5427 32.75C49.9697 30.843 40.4797 36.5818 36.7879 45.284C36.2673 46.5045 34.921 47.1207 33.5986 46.8918C31.5881 46.5515 29.434 46.6336 27.2022 47.2967C22.2059 48.7754 18.3285 52.9769 17.4429 58.0175C15.9051 66.7138 22.6965 74.2659 31.283 74.2659H56.5038C69.7036 74.2659 80.1031 62.5241 77.4404 49.1099C75.8009 40.8713 68.9796 34.264 60.5607 32.75H60.5427Z" fill="#394B69"/>
<path opacity="0.6" d="M60.0222 32.216C49.4492 30.309 39.9592 36.0478 36.2674 44.75C35.7468 45.9705 34.4005 46.5867 33.0781 46.3578C31.0676 46.0175 28.9135 46.0996 26.6817 46.7627C21.6854 48.2414 17.808 52.4429 16.9224 57.4835C15.3846 66.1798 22.176 73.7319 30.7625 73.7319H55.9833C69.1831 73.7319 79.5826 61.9901 76.9199 48.5759C75.2804 40.3373 68.4591 33.73 60.0402 32.216H60.0222Z" fill="#33435D"/>
<path opacity="0.55" d="M59.5016 31.682C48.9286 29.775 39.4386 35.5138 35.7467 44.216C35.2262 45.4365 33.8799 46.0527 32.5575 45.8238C30.547 45.4835 28.3929 45.5656 26.161 46.2287C21.1647 47.7075 17.2874 51.9089 16.4018 56.9495C14.864 65.6458 21.6554 73.1979 30.2418 73.1979H55.4626C68.6624 73.1979 79.062 61.4561 76.3993 48.0419C74.7598 39.8033 67.9384 33.196 59.5195 31.682H59.5016Z" fill="#2D3B51"/>
<path opacity="0.5" d="M58.9811 31.148C48.4081 29.241 38.9181 34.9798 35.2262 43.682C34.7056 44.9025 33.3594 45.5187 32.037 45.2898C30.0265 44.9495 27.8724 45.0316 25.6405 45.6947C20.6442 47.1735 16.7669 51.3749 15.8813 56.4155C14.3435 65.1118 21.1349 72.6639 29.7213 72.6639H54.9421C68.1419 72.6639 78.5414 60.9221 75.8787 47.5079C74.2392 39.2693 67.4179 32.662 58.999 31.148H58.9811Z" fill="#263246"/>
<path opacity="0.45" d="M58.4604 30.6141C47.8874 28.707 38.3975 34.4459 34.7056 43.1481C34.185 44.3686 32.8387 44.9847 31.5164 44.7559C29.5059 44.4155 27.3518 44.4977 25.1199 45.1608C20.1236 46.6395 16.2462 50.841 15.3607 55.8815C13.8229 64.5779 20.6143 72.1299 29.2007 72.1299H54.4215C67.6213 72.1299 78.0208 60.3881 75.3581 46.974C73.7186 38.7354 66.8973 32.128 58.4784 30.6141H58.4604Z" fill="#202A3A"/>
<path opacity="0.4" d="M57.9398 30.0801C47.3668 28.173 37.8768 33.9119 34.185 42.6141C33.6644 43.8346 32.3181 44.4507 30.9957 44.2219C28.9853 43.8815 26.8312 43.9637 24.5993 44.6268C19.603 46.1055 15.7256 50.307 14.84 55.3476C13.3023 64.0439 20.0936 71.5959 28.6801 71.5959H53.9009C67.1007 71.5959 77.5002 59.8542 74.8375 46.44C73.198 38.2014 66.3767 31.594 57.9578 30.0801H57.9398Z" fill="#1A222F"/>
<path opacity="0.35" d="M57.4253 29.5461C46.8523 27.639 37.3624 33.3779 33.6705 42.0801C33.1499 43.3006 31.8036 43.9168 30.4812 43.6879C28.4707 43.3476 26.3166 43.4297 24.0848 44.0928C19.0885 45.5715 15.2111 49.773 14.3255 54.8136C12.7878 63.5099 19.5791 71.062 28.1656 71.062H53.3864C66.5862 71.062 76.9857 59.3202 74.323 45.906C72.6835 37.6674 65.8622 31.06 57.4433 29.5461H57.4253Z" fill="#131923"/>
<path opacity="0.3" d="M56.9047 29.0122C46.3317 27.1051 36.8417 32.8439 33.1499 41.5461C32.6293 42.7667 31.283 43.3828 29.9606 43.154C27.9501 42.8136 25.796 42.8958 23.5641 43.5589C18.5678 45.0376 14.6905 49.239 13.8049 54.2796C12.2671 62.9759 19.0585 70.528 27.645 70.528H52.8658C66.0656 70.528 76.4651 58.7862 73.8024 45.3721C72.1629 37.1334 65.3416 30.5261 56.9227 29.0122H56.9047Z" fill="#0D1117"/>
<path opacity="0.25" d="M56.3841 28.4782C45.8111 26.5711 36.3211 32.3099 32.6292 41.0121C32.1087 42.2327 30.7624 42.8488 29.44 42.62C27.4295 42.2796 25.2754 42.3618 23.0435 43.0248C18.0472 44.4977 14.1699 48.705 13.2843 53.7456C11.7465 62.4419 18.5379 69.994 27.1243 69.994H52.3452C65.545 69.994 75.9444 58.2522 73.2817 44.838C71.6422 36.5994 64.8209 29.9921 56.402 28.4782H56.3841Z" fill="#06080C"/>
<path opacity="0.2" d="M55.8636 27.9442C45.2906 26.0371 35.8006 31.7759 32.1087 40.4781C31.5882 41.6987 30.2418 42.3148 28.9135 42.086C26.903 41.7456 24.7489 41.8278 22.517 42.4908C17.5207 43.9637 13.6434 48.171 12.7578 53.2116C11.22 61.9079 18.0114 69.46 26.5978 69.46H51.8187C65.0185 69.46 75.418 57.7182 72.7553 44.3041C71.1158 36.0654 64.2944 29.4581 55.8755 27.9442H55.8636Z" fill="black"/>
</g>
<path style="mix-blend-mode:screen" d="M39.6298 71.2556C57.0288 71.2556 71.1334 59.4333 71.1334 44.8498C71.1334 30.2663 57.0288 18.444 39.6298 18.444C22.2309 18.444 8.12622 30.2663 8.12622 44.8498C8.12622 59.4333 22.2309 71.2556 39.6298 71.2556Z" fill="url(#paint3_radial_259_2074)"/>
</g>
<defs>
<linearGradient id="paint0_linear_259_2074" x1="38.6952" y1="2.58675" x2="30.7051" y2="69.5945" gradientUnits="userSpaceOnUse">
<stop stop-color="#FFF9E3"/>
<stop offset="1" stop-color="#F5B767"/>
</linearGradient>
<linearGradient id="paint1_linear_259_2074" x1="34.6349" y1="11.1019" x2="34.6349" y2="56.1502" gradientUnits="userSpaceOnUse">
<stop stop-color="#FFD461"/>
<stop offset="1" stop-color="#FF9822"/>
</linearGradient>
<linearGradient id="paint2_linear_259_2074" x1="51.1664" y1="38.882" x2="51.1664" y2="78.8135" gradientUnits="userSpaceOnUse">
<stop stop-color="#EDF9FF"/>
<stop offset="0.19" stop-color="#E5F4FC"/>
<stop offset="0.47" stop-color="#D0E6F7"/>
<stop offset="0.82" stop-color="#ADD1ED"/>
<stop offset="1" stop-color="#99C4E8"/>
</linearGradient>
<radialGradient id="paint3_radial_259_2074" cx="0" cy="0" r="1" gradientUnits="userSpaceOnUse" gradientTransform="translate(41.0937 44.3105) scale(31.5736 26.3587)">
<stop offset="0.09" stop-color="#FFCC00"/>
<stop offset="0.28" stop-color="#FFB030"/>
<stop offset="0.36" stop-color="#D69428"/>
<stop offset="0.49" stop-color="#96671C"/>
<stop offset="0.62" stop-color="#604212"/>
<stop offset="0.74" stop-color="#36250A"/>
<stop offset="0.84" stop-color="#181104"/>
<stop offset="0.94" stop-color="#060401"/>
<stop offset="1"/>
</radialGradient>
</defs>
</svg>
