<svg width="52" height="50" viewBox="0 0 52 50" fill="none" xmlns="http://www.w3.org/2000/svg">
<g opacity="0.5" filter="url(#filter0_f_259_5280)">
<path d="M19.8624 11.3173L22.3351 9.28767C23.0135 8.73086 24.0065 8.73809 24.6751 9.30696L27.1109 11.3799C27.6689 11.8548 28.3645 12.1441 29.0994 12.2067L32.3119 12.4863C33.1943 12.5635 33.8899 13.2577 33.9538 14.123L34.1824 17.2783C34.2341 17.999 34.5167 18.6884 34.9911 19.2428L37.0607 21.6677C37.6285 22.333 37.6211 23.3068 37.041 23.9625L34.9272 26.3512C34.443 26.8984 34.148 27.5806 34.0841 28.3013L33.799 31.4518C33.7203 32.3171 33.0125 32.9993 32.1301 33.0619L28.9126 33.2861C28.1777 33.3367 27.4747 33.6139 26.9094 34.0791L24.4367 36.1087C23.7583 36.6656 22.7653 36.6583 22.0967 36.0895L19.6609 34.0165C19.1029 33.5416 18.4073 33.2524 17.6724 33.1897L14.4599 32.9101C13.5775 32.8329 12.8819 32.1387 12.818 31.2734L12.5894 28.1181C12.5378 27.3974 12.2551 26.708 11.7807 26.1536L9.71113 23.7287C9.14334 23.0634 9.15072 22.0896 9.73079 21.4339L11.8446 19.0452C12.3288 18.498 12.6238 17.8158 12.6877 17.0951L12.9728 13.9447C13.0515 13.0793 13.7594 12.3972 14.6418 12.3345L17.8592 12.1103C18.5941 12.0597 19.2971 11.7825 19.8624 11.3173Z" fill="#F5D188"/>
<path d="M19.4446 11.7824L21.9173 9.75283C22.5981 9.19601 23.5887 9.20324 24.2597 9.77211L26.6955 11.8451C27.2535 12.32 27.9491 12.6092 28.684 12.6719L31.8966 12.9515C32.779 13.0286 33.4746 13.7228 33.5385 14.5882L33.767 17.7435C33.8187 18.4642 34.1013 19.1536 34.5757 19.708L36.6453 22.1329C37.2131 22.7982 37.2057 23.772 36.6256 24.4276L34.5118 26.8164C34.0276 27.3636 33.7326 28.0457 33.6687 28.7664L33.3836 31.9169C33.305 32.7823 32.5971 33.4644 31.7147 33.5271L28.4972 33.7513C27.7623 33.8019 27.0593 34.0791 26.494 34.5443L24.0213 36.5739C23.3429 37.1307 22.3499 37.1235 21.6813 36.5546L19.2455 34.4816C18.6875 34.0068 17.992 33.7175 17.257 33.6548L14.0445 33.3752C13.1621 33.2981 12.4665 32.6039 12.4026 31.7385L12.174 28.5833C12.1224 27.8601 11.8397 27.1731 11.3653 26.6187L9.29574 24.1938C8.72795 23.5285 8.73533 22.5547 9.31541 21.8991L11.4292 19.5103C11.9134 18.9632 12.2084 18.281 12.2723 17.5603L12.5574 14.4098C12.6361 13.5445 13.344 12.8623 14.2264 12.7996L17.4438 12.5755C18.1788 12.5248 18.8817 12.2476 19.4471 11.7824H19.4446Z" fill="#FFDD92"/>
<mask id="mask0_259_5280" style="mask-type:luminance" maskUnits="userSpaceOnUse" x="9" y="9" width="29" height="28">
<path d="M19.6363 11.5536L22.109 9.524C22.7874 8.96719 23.7804 8.97442 24.449 9.54328L26.8848 11.6163C27.4428 12.0911 28.1384 12.3804 28.8733 12.4431L32.0858 12.7227C32.9682 12.7998 33.6638 13.494 33.7277 14.3594L33.9563 17.5146C34.0079 18.2354 34.2906 18.9248 34.765 19.4792L36.8346 21.9041C37.4024 22.5694 37.395 23.5432 36.8149 24.1988L34.7011 26.5876C34.2169 27.1347 33.9219 27.8169 33.858 28.5376L33.5729 31.6881C33.4942 32.5534 32.7863 33.2356 31.9039 33.2983L28.6865 33.5224C27.9516 33.5731 27.2486 33.8527 26.6833 34.3155L24.2106 36.3451C23.5322 36.9019 22.5392 36.8947 21.8706 36.3258L19.4348 34.2528C18.8768 33.7779 18.1812 33.4887 17.4463 33.426L14.2338 33.1464C13.3514 33.0693 12.6558 32.3751 12.5918 31.5097L12.3633 28.3544C12.3116 27.6337 12.029 26.9443 11.5546 26.3899L9.48502 23.965C8.91723 23.2997 8.92459 22.3259 9.50467 21.6703L11.6185 19.2815C12.1027 18.7343 12.3977 18.0522 12.4616 17.3314L12.7467 14.181C12.8254 13.3156 13.5333 12.6335 14.4157 12.5708L17.6331 12.3466C18.368 12.296 19.071 12.0188 19.6363 11.5536Z" fill="white"/>
</mask>
<g mask="url(#mask0_259_5280)">
<path d="M19.6363 11.5536L22.109 9.524C22.7874 8.96719 23.7804 8.97442 24.4489 9.54328L26.8847 11.6163C27.4427 12.0911 28.1383 12.3804 28.8732 12.4431L32.0858 12.7227C32.9682 12.7998 33.6638 13.494 33.7277 14.3594L33.9563 17.5146C34.0079 18.2354 34.2905 18.9248 34.7649 19.4792L36.8345 21.9041C37.4023 22.5694 37.3949 23.5432 36.8149 24.1988L34.701 26.5876C34.2168 27.1347 33.9218 27.8169 33.8579 28.5376L33.5728 31.6881C33.4942 32.5534 32.7863 33.2356 31.9039 33.2983L28.6864 33.5224C27.9515 33.5731 27.2485 33.8527 26.6832 34.3155L24.2105 36.3451C23.5321 36.9019 22.5391 36.8947 21.8705 36.3258L19.4347 34.2528C18.8768 33.7779 18.1812 33.4887 17.4462 33.426L14.2337 33.1464C13.3513 33.0693 12.6557 32.3751 12.5918 31.5097L12.3632 28.3544C12.3116 27.6337 12.0289 26.9443 11.5545 26.3899L9.48496 23.965C8.91717 23.2997 8.92453 22.3259 9.50461 21.6703L11.6185 19.2815C12.1027 18.7343 12.3976 18.0522 12.4615 17.3314L12.7466 14.181C12.8253 13.3156 13.5332 12.6335 14.4156 12.5708L17.633 12.3466C18.368 12.296 19.0709 12.0188 19.6363 11.5536Z" fill="url(#paint0_linear_259_5280)"/>
<g style="mix-blend-mode:multiply">
<path opacity="0.4" d="M34.0004 20.759C36.5886 27.043 33.4941 34.1924 27.0862 36.733C20.6784 39.2712 13.3881 36.2365 10.7974 29.9524C8.20919 23.6684 11.3037 16.519 17.7116 13.9784C24.1195 11.4402 31.4097 14.4749 34.0004 20.759Z" fill="white"/>
<path opacity="0.44" d="M33.8088 20.7807C36.3503 26.9466 33.3123 33.9634 27.0249 36.4558C20.7374 38.9458 13.5824 35.9689 11.0408 29.803C8.49932 23.6371 11.5374 16.6202 17.8248 14.1278C24.1122 11.6378 31.2673 14.6147 33.8088 20.7807Z" fill="#FEFBF6"/>
<path opacity="0.48" d="M26.0145 36.5158C32.368 34.5847 35.9222 27.9681 33.953 21.7374C31.9839 15.5067 25.237 12.0211 18.8835 13.9522C12.53 15.8834 8.97574 22.4999 10.9449 28.7306C12.9141 34.9614 19.661 38.4469 26.0145 36.5158Z" fill="#FEF6EC"/>
<path opacity="0.51" d="M25.8812 36.244C32.1272 34.4005 35.6666 27.9406 33.7868 21.8153C31.907 15.69 25.3197 12.2189 19.0737 14.0624C12.8278 15.9059 9.28831 22.3659 11.1681 28.4912C13.048 34.6164 19.6352 38.0875 25.8812 36.244Z" fill="#FDF2E3"/>
<path opacity="0.55" d="M25.7328 35.9888C31.8727 34.2395 35.404 27.9402 33.6202 21.9189C31.8364 15.8977 25.413 12.4346 19.2731 14.184C13.1332 15.9333 9.60193 22.2326 11.3857 28.2538C13.1695 34.2751 19.5929 37.7381 25.7328 35.9888Z" fill="#FDEDD9"/>
<path opacity="0.59" d="M25.5708 35.7607C31.6076 34.1133 35.1396 27.9787 33.4598 22.0585C31.78 16.1384 25.5244 12.6746 19.4876 14.322C13.4508 15.9693 9.91882 22.104 11.5986 28.0242C13.2785 33.9443 19.534 37.4081 25.5708 35.7607Z" fill="#FCE9D0"/>
<path opacity="0.62" d="M25.3893 35.5093C31.3232 33.9729 34.8635 28.01 33.2968 22.1908C31.7301 16.3716 25.6497 12.8997 19.7158 14.4361C13.782 15.9725 10.2417 21.9354 11.8084 27.7546C13.3751 33.5738 19.4555 37.0457 25.3893 35.5093Z" fill="#FBE4C6"/>
<path opacity="0.66" d="M25.1909 35.257C31.0237 33.8435 34.5837 28.0607 33.1424 22.3406C31.7011 16.6205 25.8043 13.1293 19.9715 14.5428C14.1387 15.9562 10.5787 21.7391 12.02 27.4592C13.4613 33.1793 19.3581 36.6705 25.1909 35.257Z" fill="#FBE0BD"/>
<path opacity="0.7" d="M24.9572 35.036C30.6913 33.7626 34.287 28.1717 32.9885 22.5484C31.69 16.9252 25.9889 13.3989 20.2548 14.6724C14.5207 15.9458 10.925 21.5367 12.2236 27.16C13.5221 32.7833 19.2232 36.3095 24.9572 35.036Z" fill="#FADBB3"/>
<path opacity="0.74" d="M24.6858 34.7965C30.323 33.6838 33.9732 28.3002 32.8385 22.7719C31.7039 17.2436 26.2142 13.664 20.577 14.7767C14.9397 15.8894 11.2896 21.273 12.4242 26.8013C13.5588 32.3297 19.0485 35.9092 24.6858 34.7965Z" fill="#F9D7AA"/>
<path opacity="0.78" d="M24.362 34.5599C29.9042 33.6378 33.6346 28.4842 32.6943 23.0492C31.7539 17.6141 26.4988 13.9557 20.9567 14.8779C15.4145 15.8001 11.6841 20.9537 12.6244 26.3887C13.5648 31.8238 18.8199 35.4821 24.362 34.5599Z" fill="#F9D2A0"/>
<path opacity="0.81" d="M23.9581 34.3218C29.4052 33.6318 33.2506 28.742 32.547 23.4001C31.8434 18.0582 26.8573 14.2871 21.4102 14.9771C15.963 15.6671 12.1176 20.5569 12.8212 25.8988C13.5248 31.2407 18.511 35.0118 23.9581 34.3218Z" fill="#F8CE97"/>
<path opacity="0.85" d="M23.4451 34.0858C28.7931 33.6878 32.7996 29.1134 32.3937 23.8687C31.9878 18.624 27.3233 14.695 21.9753 15.093C16.6272 15.4911 12.6208 20.0654 13.0267 25.3101C13.4326 30.5548 18.097 34.4838 23.4451 34.0858Z" fill="#F8C98D"/>
<path opacity="0.89" d="M22.7783 33.811C28.0127 33.7886 32.2375 29.6091 32.2147 24.4759C32.1918 19.3426 27.93 15.1994 22.6956 15.2218C17.4612 15.2442 13.2364 19.4237 13.2592 24.557C13.282 29.6902 17.5439 33.8334 22.7783 33.811Z" fill="#F7C584"/>
<path opacity="0.93" d="M31.9722 25.3022C32.4465 20.317 28.71 15.8986 23.6266 15.4335C18.5432 14.9684 14.0378 18.6327 13.5635 23.6179C13.0892 28.6031 16.8257 33.0214 21.9091 33.4865C26.9926 33.9516 31.498 30.2874 31.9722 25.3022Z" fill="#F6C07A"/>
<path opacity="0.96" d="M31.5824 26.3318C32.6731 21.5701 29.6211 16.8429 24.7655 15.7733C19.9099 14.7036 15.0896 17.6967 13.9989 22.4584C12.9082 27.2201 15.9602 31.9474 20.8158 33.017C25.6713 34.0866 30.4917 31.0935 31.5824 26.3318Z" fill="#F6BC71"/>
<path d="M30.9928 27.4679C32.7576 23.0402 30.5283 18.0478 26.0133 16.3171C21.4984 14.5864 16.4077 16.7727 14.6429 21.2003C12.878 25.628 15.1074 30.6204 19.6223 32.3511C24.1372 34.0818 29.228 31.8955 30.9928 27.4679Z" fill="#F5B767"/>
</g>
</g>
<mask id="mask1_259_5280" style="mask-type:luminance" maskUnits="userSpaceOnUse" x="13" y="13" width="20" height="20">
<path d="M30.0078 29.4673C33.8224 25.7264 33.8224 19.6612 30.0078 15.9203C26.1932 12.1795 20.0085 12.1795 16.1939 15.9203C12.3793 19.6612 12.3793 25.7264 16.1939 29.4673C20.0085 33.2082 26.1932 33.2082 30.0078 29.4673Z" fill="white"/>
</mask>
<g mask="url(#mask1_259_5280)">
<path d="M30.0077 29.4673C33.8223 25.7264 33.8223 19.6612 30.0077 15.9203C26.1931 12.1795 20.0085 12.1795 16.1939 15.9203C12.3793 19.6612 12.3793 25.7264 16.1939 29.4673C20.0085 33.2082 26.1931 33.2082 30.0077 29.4673Z" fill="url(#paint1_linear_259_5280)"/>
<path d="M23.102 13.1179C20.3564 13.1179 17.8813 14.2316 16.1067 16.0201C17.8666 14.34 20.2336 13.3325 22.8832 13.3325C28.2784 13.3325 32.6191 17.7123 32.6191 23.0032C32.6191 25.6017 31.5204 28.2339 29.645 29.7886C32.0563 27.7928 32.8698 25.3895 32.8698 22.6971C32.8698 17.4061 28.4972 13.1179 23.102 13.1179Z" fill="#FFAB1A"/>
<path d="M23.3527 32.0278C17.9575 32.0278 13.5848 27.7396 13.5848 22.4487C13.5848 19.8671 14.6319 17.5266 16.3254 15.8055C14.4844 17.5483 13.3341 19.9876 13.3341 22.6946C13.3341 27.9855 17.7068 32.2737 23.102 32.2737C25.8622 32.2737 28.3521 31.1456 30.1268 29.3402C28.3694 31.001 25.9851 32.0278 23.3527 32.0278Z" fill="#FFC153"/>
<g style="mix-blend-mode:screen">
<path d="M23.6844 32.7655C29.6777 32.7655 34.5363 28.0009 34.5363 22.1234C34.5363 16.2459 29.6777 11.4812 23.6844 11.4812C17.6911 11.4812 12.8326 16.2459 12.8326 22.1234C12.8326 28.0009 17.6911 32.7655 23.6844 32.7655Z" fill="#947446"/>
<path opacity="0.96" d="M33.9903 24.6821C35.3545 19.0136 31.7747 13.3338 25.9945 11.9959C20.2143 10.658 14.4226 14.1687 13.0584 19.8372C11.6941 25.5057 15.2739 31.1855 21.0541 32.5234C26.8343 33.8612 32.626 30.3506 33.9903 24.6821Z" fill="#8B6D42"/>
<path opacity="0.93" d="M23.3773 32.8546C29.262 32.8546 34.0325 28.1763 34.0325 22.4053C34.0325 16.6343 29.262 11.956 23.3773 11.956C17.4926 11.956 12.7221 16.6343 12.7221 22.4053C12.7221 28.1763 17.4926 32.8546 23.3773 32.8546Z" fill="#82663D"/>
<path opacity="0.89" d="M33.6465 24.2111C34.5804 18.5686 30.6732 13.2519 24.9195 12.336C19.1657 11.4201 13.7443 15.2518 12.8103 20.8943C11.8764 26.5369 15.7836 31.8535 21.5373 32.7695C27.291 33.6854 32.7125 29.8537 33.6465 24.2111Z" fill="#785E39"/>
<path opacity="0.85" d="M30.4635 29.9391C34.5468 25.9347 34.5468 19.4421 30.4635 15.4377C26.3801 11.4332 19.7596 11.4332 15.6763 15.4377C11.5929 19.4421 11.5929 25.9347 15.6763 29.9391C19.7597 33.9436 26.3801 33.9436 30.4635 29.9391Z" fill="#6F5735"/>
<path opacity="0.81" d="M22.9152 32.9873C28.6356 32.9873 33.2729 28.4395 33.2729 22.8296C33.2729 17.2197 28.6356 12.672 22.9152 12.672C17.1947 12.672 12.5574 17.2197 12.5574 22.8296C12.5574 28.4395 17.1947 32.9873 22.9152 32.9873Z" fill="#665030"/>
<path opacity="0.78" d="M30.0121 30.0851C34.0177 26.1569 34.0177 19.788 30.0121 15.8598C26.0065 11.9316 19.5121 11.9316 15.5065 15.8598C11.5009 19.788 11.5009 26.1569 15.5065 30.0851C19.5121 34.0133 26.0065 34.0133 30.0121 30.0851Z" fill="#5D492C"/>
<path opacity="0.74" d="M22.6079 33.0764C28.2184 33.0764 32.7666 28.6161 32.7666 23.114C32.7666 17.612 28.2184 13.1517 22.6079 13.1517C16.9974 13.1517 12.4493 17.612 12.4493 23.114C12.4493 28.6161 16.9974 33.0764 22.6079 33.0764Z" fill="#534127"/>
<path opacity="0.7" d="M22.4531 33.1223C28.0093 33.1223 32.5135 28.7051 32.5135 23.2563C32.5135 17.8075 28.0093 13.3903 22.4531 13.3903C16.8969 13.3903 12.3927 17.8075 12.3927 23.2563C12.3927 28.7051 16.8969 33.1223 22.4531 33.1223Z" fill="#4A3A23"/>
<path opacity="0.66" d="M31.9959 25.594C33.2351 20.3384 29.8952 15.0928 24.5361 13.8775C19.177 12.6622 13.828 15.9375 12.5888 21.1931C11.3495 26.4486 14.6894 31.6943 20.0485 32.9096C25.4076 34.1249 30.7566 30.8495 31.9959 25.594Z" fill="#41331F"/>
<path opacity="0.62" d="M22.1459 33.2088C27.5921 33.2088 32.0072 28.8791 32.0072 23.5381C32.0072 18.1971 27.5921 13.8674 22.1459 13.8674C16.6996 13.8674 12.2846 18.1971 12.2846 23.5381C12.2846 28.8791 16.6996 33.2088 22.1459 33.2088Z" fill="#382C1A"/>
<path opacity="0.59" d="M31.6198 25.2503C32.5041 20.0342 28.9092 15.1026 23.5903 14.2353C18.2714 13.3681 13.2426 16.8935 12.3583 22.1096C11.4739 27.3258 15.0688 32.2574 20.3878 33.1246C25.7067 33.9919 30.7354 30.4664 31.6198 25.2503Z" fill="#2E2416"/>
<path opacity="0.55" d="M31.2713 25.9179C32.4481 20.8136 29.1826 15.7401 23.9777 14.5861C18.7728 13.432 13.5994 16.6344 12.4226 21.7387C11.2458 26.843 14.5113 31.9164 19.7162 33.0705C24.9211 34.2245 30.0945 31.0222 31.2713 25.9179Z" fill="#251D12"/>
<path opacity="0.51" d="M21.6837 33.344C26.9657 33.344 31.2476 29.1448 31.2476 23.9649C31.2476 18.785 26.9657 14.5859 21.6837 14.5859C16.4018 14.5859 12.1199 18.785 12.1199 23.9649C12.1199 29.1448 16.4018 33.344 21.6837 33.344Z" fill="#1C160D"/>
<path opacity="0.48" d="M28.2212 30.6682C31.9177 27.0431 31.9177 21.1657 28.2212 17.5406C24.5247 13.9155 18.5314 13.9155 14.8349 17.5406C11.1384 21.1657 11.1384 27.0431 14.8349 30.6682C18.5314 34.2933 24.5247 34.2933 28.2212 30.6682Z" fill="#130F09"/>
<path opacity="0.44" d="M30.6356 25.691C31.4455 20.6815 27.9611 15.9766 22.8529 15.1822C17.7447 14.3879 12.9471 17.805 12.1371 22.8145C11.3271 27.824 14.8115 32.5289 19.9197 33.3232C25.0279 34.1176 29.8256 30.7005 30.6356 25.691Z" fill="#090704"/>
<path opacity="0.4" d="M21.2217 33.4766C26.3394 33.4766 30.4881 29.4081 30.4881 24.3892C30.4881 19.3704 26.3394 15.3018 21.2217 15.3018C16.1039 15.3018 11.9552 19.3704 11.9552 24.3892C11.9552 29.4081 16.1039 33.4766 21.2217 33.4766Z" fill="black"/>
</g>
</g>
<path d="M33.3148 23.4588C29.3157 23.4588 25.9483 26.0862 24.8939 29.6729C24.2868 29.4608 23.6379 29.3403 22.957 29.3403C19.7691 29.3403 17.1833 31.8761 17.1833 35.0024C17.1833 38.1288 19.7691 40.6646 22.957 40.6646H33.3172C38.1619 40.6646 42.0897 36.8127 42.0897 32.0617C42.0897 27.3107 38.1619 23.4588 33.3172 23.4588H33.3148Z" fill="white"/>
<path d="M33.7843 23.9191C29.7852 23.9191 26.4202 26.5441 25.3633 30.1333C24.7562 29.9211 24.1073 29.8006 23.4265 29.8006C20.2385 29.8006 17.6528 32.3364 17.6528 35.4628C17.6528 38.5891 20.2385 41.1249 23.4265 41.1249H33.7867C38.6313 41.1249 42.5591 37.273 42.5591 32.522C42.5591 27.771 38.6313 23.9191 33.7867 23.9191H33.7843Z" fill="white"/>
<mask id="mask2_259_5280" style="mask-type:luminance" maskUnits="userSpaceOnUse" x="17" y="23" width="26" height="18">
<path d="M33.5728 23.7119C29.5738 23.7119 26.2064 26.3369 25.1519 29.926C24.5448 29.7139 23.8959 29.591 23.2151 29.591C20.0271 29.591 17.4413 32.1268 17.4413 35.2531C17.4413 38.3795 20.0271 40.9153 23.2151 40.9153H33.5753C38.4199 40.9153 42.3477 37.0634 42.3477 32.3124C42.3477 27.5614 38.4199 23.7095 33.5753 23.7095L33.5728 23.7119Z" fill="white"/>
</mask>
<g mask="url(#mask2_259_5280)">
<path d="M33.5727 23.7119C29.5736 23.7119 26.2062 26.3369 25.1517 29.926C24.5446 29.7139 23.8957 29.591 23.2149 29.591C20.0269 29.591 17.4412 32.1268 17.4412 35.2531C17.4412 38.3795 20.0269 40.9153 23.2149 40.9153H33.5751C38.4197 40.9153 42.3475 37.0634 42.3475 32.3124C42.3475 27.5614 38.4197 23.7095 33.5751 23.7095L33.5727 23.7119Z" fill="url(#paint2_linear_259_5280)"/>
<g style="mix-blend-mode:multiply" opacity="0.4">
<path d="M23.7189 39.452C32.8154 39.452 40.1896 32.2203 40.1896 23.2996C40.1896 14.3788 32.8154 7.14715 23.7189 7.14715C14.6224 7.14715 7.24821 14.3788 7.24821 23.2996C7.24821 32.2203 14.6224 39.452 23.7189 39.452Z" fill="white"/>
</g>
<g style="mix-blend-mode:multiply" opacity="0.44">
<path d="M23.7189 39.0206C32.5724 39.0206 39.7496 31.9821 39.7496 23.2997C39.7496 14.6172 32.5724 7.57871 23.7189 7.57871C14.8653 7.57871 7.68814 14.6172 7.68814 23.2997C7.68814 31.9821 14.8653 39.0206 23.7189 39.0206Z" fill="#FFFDFA"/>
</g>
<g style="mix-blend-mode:multiply" opacity="0.48">
<path d="M23.7189 38.5867C32.3281 38.5867 39.3072 31.7425 39.3072 23.2997C39.3072 14.8569 32.3281 8.01261 23.7189 8.01261C15.1097 8.01261 8.13059 14.8569 8.13059 23.2997C8.13059 31.7425 15.1097 38.5867 23.7189 38.5867Z" fill="#FFFBF5"/>
</g>
<g style="mix-blend-mode:multiply" opacity="0.51">
<path d="M23.7188 38.1529C32.0837 38.1529 38.8647 31.5029 38.8647 23.2997C38.8647 15.0965 32.0837 8.44651 23.7188 8.44651C15.354 8.44651 8.57298 15.0965 8.57298 23.2997C8.57298 31.5029 15.354 38.1529 23.7188 38.1529Z" fill="#FFF9F0"/>
</g>
<g style="mix-blend-mode:multiply" opacity="0.55">
<path d="M23.7189 37.7189C31.8393 37.7189 38.4223 31.2632 38.4223 23.2996C38.4223 15.336 31.8393 8.88029 23.7189 8.88029C15.5984 8.88029 9.01543 15.336 9.01543 23.2996C9.01543 31.2632 15.5984 37.7189 23.7189 37.7189Z" fill="#FFF7EB"/>
</g>
<g style="mix-blend-mode:multiply" opacity="0.59">
<path d="M23.7189 37.2875C31.5964 37.2875 37.9823 31.025 37.9823 23.2997C37.9823 15.5744 31.5964 9.31186 23.7189 9.31186C15.8414 9.31186 9.45543 15.5744 9.45543 23.2997C9.45543 31.025 15.8414 37.2875 23.7189 37.2875Z" fill="#FFF5E5"/>
</g>
<g style="mix-blend-mode:multiply" opacity="0.62">
<path d="M23.719 36.8536C31.3521 36.8536 37.54 30.7852 37.54 23.2996C37.54 15.814 31.3521 9.74564 23.719 9.74564C16.0858 9.74564 9.89794 15.814 9.89794 23.2996C9.89794 30.7852 16.0858 36.8536 23.719 36.8536Z" fill="#FFF3E0"/>
</g>
<g style="mix-blend-mode:multiply" opacity="0.66">
<path d="M23.7189 36.4198C31.1077 36.4198 37.0975 30.5458 37.0975 23.2997C37.0975 16.0537 31.1077 10.1797 23.7189 10.1797C16.3301 10.1797 10.3403 16.0537 10.3403 23.2997C10.3403 30.5458 16.3301 36.4198 23.7189 36.4198Z" fill="#FFF1DB"/>
</g>
<g style="mix-blend-mode:multiply" opacity="0.7">
<path d="M32.8691 32.2709C37.9219 27.3157 37.9219 19.2817 32.8691 14.3265C27.8162 9.3713 19.624 9.37131 14.5711 14.3265C9.51826 19.2817 9.51826 27.3157 14.5711 32.2709C19.624 37.2261 27.8162 37.2261 32.8691 32.2709Z" fill="#FFEFD6"/>
</g>
<g style="mix-blend-mode:multiply" opacity="0.74">
<path d="M23.7189 35.5543C30.6204 35.5543 36.2151 30.0677 36.2151 23.2996C36.2151 16.5315 30.6204 11.0449 23.7189 11.0449C16.8174 11.0449 11.2227 16.5315 11.2227 23.2996C11.2227 30.0677 16.8174 35.5543 23.7189 35.5543Z" fill="#FFECD1"/>
</g>
<g style="mix-blend-mode:multiply" opacity="0.78">
<path d="M23.7189 35.1205C30.376 35.1205 35.7726 29.8281 35.7726 23.2996C35.7726 16.7712 30.376 11.4788 23.7189 11.4788C17.0618 11.4788 11.6651 16.7712 11.6651 23.2996C11.6651 29.8281 17.0618 35.1205 23.7189 35.1205Z" fill="#FFEACC"/>
</g>
<g style="mix-blend-mode:multiply" opacity="0.81">
<path d="M23.7188 34.689C30.133 34.689 35.3326 29.5898 35.3326 23.2996C35.3326 17.0094 30.133 11.9102 23.7188 11.9102C17.3047 11.9102 12.105 17.0094 12.105 23.2996C12.105 29.5898 17.3047 34.689 23.7188 34.689Z" fill="#FFE8C7"/>
</g>
<g style="mix-blend-mode:multiply" opacity="0.85">
<path d="M23.7189 34.2551C29.8886 34.2551 34.8902 29.3502 34.8902 23.2996C34.8902 17.2491 29.8886 12.3441 23.7189 12.3441C17.5491 12.3441 12.5475 17.2491 12.5475 23.2996C12.5475 29.3502 17.5491 34.2551 23.7189 34.2551Z" fill="#FFE6C2"/>
</g>
<g style="mix-blend-mode:multiply" opacity="0.89">
<path d="M23.7189 33.8213C29.6443 33.8213 34.4478 29.1106 34.4478 23.2996C34.4478 17.4887 29.6443 12.778 23.7189 12.778C17.7934 12.778 12.9899 17.4887 12.9899 23.2996C12.9899 29.1106 17.7934 33.8213 23.7189 33.8213Z" fill="#FFE4BC"/>
</g>
<g style="mix-blend-mode:multiply" opacity="0.93">
<path d="M23.7189 33.3874C29.4 33.3874 34.0054 28.871 34.0054 23.2997C34.0054 17.7284 29.4 13.2119 23.7189 13.2119C18.0378 13.2119 13.4324 17.7284 13.4324 23.2997C13.4324 28.871 18.0378 33.3874 23.7189 33.3874Z" fill="#FFE2B7"/>
</g>
<g style="mix-blend-mode:multiply" opacity="0.96">
<path d="M23.7189 32.9559C29.1569 32.9559 33.5654 28.6326 33.5654 23.2996C33.5654 17.9666 29.1569 13.6434 23.7189 13.6434C18.2808 13.6434 13.8723 17.9666 13.8723 23.2996C13.8723 28.6326 18.2808 32.9559 23.7189 32.9559Z" fill="#FFE0B2"/>
</g>
<g style="mix-blend-mode:multiply">
<path d="M23.7188 32.522C28.9126 32.522 33.1229 28.393 33.1229 23.2997C33.1229 18.2063 28.9126 14.0773 23.7188 14.0773C18.5251 14.0773 14.3147 18.2063 14.3147 23.2997C14.3147 28.393 18.5251 32.522 23.7188 32.522Z" fill="#FFDEAD"/>
</g>
<g style="mix-blend-mode:multiply">
<path d="M23.7189 32.416C28.8529 32.416 33.0148 28.3344 33.0148 23.2996C33.0148 18.2648 28.8529 14.1833 23.7189 14.1833C18.5849 14.1833 14.4229 18.2648 14.4229 23.2996C14.4229 28.3344 18.5849 32.416 23.7189 32.416Z" fill="#FFDDAB"/>
</g>
<g style="mix-blend-mode:multiply">
<path d="M23.7189 32.3099C28.7931 32.3099 32.9067 28.2759 32.9067 23.2996C32.9067 18.3234 28.7931 14.2894 23.7189 14.2894C18.6446 14.2894 14.531 18.3234 14.531 23.2996C14.531 28.2759 18.6446 32.3099 23.7189 32.3099Z" fill="#FFDCA8"/>
</g>
<g style="mix-blend-mode:multiply">
<path d="M23.7188 32.2063C28.7347 32.2063 32.8009 28.2187 32.8009 23.2997C32.8009 18.3807 28.7347 14.3931 23.7188 14.3931C18.7029 14.3931 14.6367 18.3807 14.6367 23.2997C14.6367 28.2187 18.7029 32.2063 23.7188 32.2063Z" fill="#FFDBA6"/>
</g>
<g style="mix-blend-mode:multiply">
<path d="M23.7189 32.1002C28.6751 32.1002 32.6929 28.1601 32.6929 23.2997C32.6929 18.4393 28.6751 14.4991 23.7189 14.4991C18.7628 14.4991 14.745 18.4393 14.745 23.2997C14.745 28.1601 18.7628 32.1002 23.7189 32.1002Z" fill="#FFDAA3"/>
</g>
<g style="mix-blend-mode:multiply">
<path d="M23.7189 31.9942C28.6153 31.9942 32.5847 28.1015 32.5847 23.2997C32.5847 18.4978 28.6153 14.6052 23.7189 14.6052C18.8224 14.6052 14.8531 18.4978 14.8531 23.2997C14.8531 28.1015 18.8224 31.9942 23.7189 31.9942Z" fill="#FFD9A1"/>
</g>
<g style="mix-blend-mode:multiply">
<path d="M23.7189 31.8881C28.5556 31.8881 32.4765 28.0429 32.4765 23.2996C32.4765 18.5564 28.5556 14.7112 23.7189 14.7112C18.8821 14.7112 14.9612 18.5564 14.9612 23.2996C14.9612 28.0429 18.8821 31.8881 23.7189 31.8881Z" fill="#FFD89E"/>
</g>
<g style="mix-blend-mode:multiply">
<path d="M23.7188 31.7845C28.4972 31.7845 32.3708 27.9857 32.3708 23.2997C32.3708 18.6137 28.4972 14.8149 23.7188 14.8149C18.9405 14.8149 15.0669 18.6137 15.0669 23.2997C15.0669 27.9857 18.9405 31.7845 23.7188 31.7845Z" fill="#FFD79C"/>
</g>
<g style="mix-blend-mode:multiply">
<path d="M23.7189 31.6784C28.4375 31.6784 32.2627 27.9271 32.2627 23.2997C32.2627 18.6723 28.4375 14.921 23.7189 14.921C19.0003 14.921 15.1751 18.6723 15.1751 23.2997C15.1751 27.9271 19.0003 31.6784 23.7189 31.6784Z" fill="#FFD699"/>
</g>
<g style="mix-blend-mode:multiply">
<path d="M23.7189 31.5723C28.3778 31.5723 32.1546 27.8685 32.1546 23.2997C32.1546 18.7308 28.3778 15.027 23.7189 15.027C19.06 15.027 15.2832 18.7308 15.2832 23.2997C15.2832 27.8685 19.06 31.5723 23.7189 31.5723Z" fill="#FFD597"/>
</g>
<g style="mix-blend-mode:multiply">
<path d="M23.7189 31.4663C28.318 31.4663 32.0464 27.81 32.0464 23.2997C32.0464 18.7894 28.318 15.1331 23.7189 15.1331C19.1197 15.1331 15.3913 18.7894 15.3913 23.2997C15.3913 27.81 19.1197 31.4663 23.7189 31.4663Z" fill="#FFD494"/>
</g>
<g style="mix-blend-mode:multiply">
<path d="M23.7189 31.3625C28.2597 31.3625 31.9407 27.7526 31.9407 23.2996C31.9407 18.8466 28.2597 15.2366 23.7189 15.2366C19.1781 15.2366 15.4971 18.8466 15.4971 23.2996C15.4971 27.7526 19.1781 31.3625 23.7189 31.3625Z" fill="#FFD392"/>
</g>
<g style="mix-blend-mode:multiply">
<path d="M23.7188 31.2565C28.1999 31.2565 31.8325 27.6941 31.8325 23.2996C31.8325 18.9051 28.1999 15.3427 23.7188 15.3427C19.2378 15.3427 15.6052 18.9051 15.6052 23.2996C15.6052 27.6941 19.2378 31.2565 23.7188 31.2565Z" fill="#FFD28F"/>
</g>
<g style="mix-blend-mode:multiply">
<path d="M23.7188 31.1504C28.1402 31.1504 31.7244 27.6355 31.7244 23.2996C31.7244 18.9637 28.1402 15.4487 23.7188 15.4487C19.2975 15.4487 15.7133 18.9637 15.7133 23.2996C15.7133 27.6355 19.2975 31.1504 23.7188 31.1504Z" fill="#FFD18D"/>
</g>
<g style="mix-blend-mode:multiply">
<path d="M23.7188 31.0443C28.0804 31.0443 31.6162 27.5769 31.6162 23.2996C31.6162 19.0222 28.0804 15.5548 23.7188 15.5548C19.3572 15.5548 15.8214 19.0222 15.8214 23.2996C15.8214 27.5769 19.3572 31.0443 23.7188 31.0443Z" fill="#FFD08A"/>
</g>
<g style="mix-blend-mode:multiply">
<path d="M23.7189 30.9407C28.0221 30.9407 31.5106 27.5197 31.5106 23.2996C31.5106 19.0795 28.0221 15.6585 23.7189 15.6585C19.4156 15.6585 15.9272 19.0795 15.9272 23.2996C15.9272 27.5197 19.4156 30.9407 23.7189 30.9407Z" fill="#FFCF88"/>
</g>
<g style="mix-blend-mode:multiply">
<path d="M23.7189 30.8347C27.9624 30.8347 31.4024 27.4611 31.4024 23.2996C31.4024 19.1381 27.9624 15.7645 23.7189 15.7645C19.4754 15.7645 16.0353 19.1381 16.0353 23.2996C16.0353 27.4611 19.4754 30.8347 23.7189 30.8347Z" fill="#FFCE85"/>
</g>
<g style="mix-blend-mode:screen">
<g style="mix-blend-mode:multiply" opacity="0.4">
<path d="M23.7188 40.3392C33.3149 40.3392 41.0941 32.7104 41.0941 23.2997C41.0941 13.8891 33.3149 6.26027 23.7188 6.26027C14.1228 6.26027 6.34362 13.8891 6.34362 23.2997C6.34362 32.7104 14.1228 40.3392 23.7188 40.3392Z" fill="black"/>
</g>
<g style="mix-blend-mode:multiply" opacity="0.44">
<path d="M23.7188 39.9343C33.0868 39.9343 40.6811 32.4868 40.6811 23.2998C40.6811 14.1128 33.0868 6.66526 23.7188 6.66526C14.3508 6.66526 6.75655 14.1128 6.75655 23.2998C6.75655 32.4868 14.3508 39.9343 23.7188 39.9343Z" fill="#0C0A03"/>
</g>
<g style="mix-blend-mode:multiply" opacity="0.48">
<path d="M23.7188 39.5292C32.8588 39.5292 40.2682 32.263 40.2682 23.2997C40.2682 14.3364 32.8588 7.07013 23.7188 7.07013C14.5789 7.07013 7.16947 14.3364 7.16947 23.2997C7.16947 32.263 14.5789 39.5292 23.7188 39.5292Z" fill="#171405"/>
</g>
<g style="mix-blend-mode:multiply" opacity="0.51">
<path d="M23.7188 39.1218C32.6294 39.1218 39.8528 32.038 39.8528 23.2997C39.8528 14.5613 32.6294 7.47746 23.7188 7.47746C14.8083 7.47746 7.58486 14.5613 7.58486 23.2997C7.58486 32.038 14.8083 39.1218 23.7188 39.1218Z" fill="#231E08"/>
</g>
<g style="mix-blend-mode:multiply" opacity="0.55">
<path d="M23.7189 38.7169C32.4013 38.7169 39.4399 31.8144 39.4399 23.2997C39.4399 14.785 32.4013 7.88245 23.7189 7.88245C15.0364 7.88245 7.99785 14.785 7.99785 23.2997C7.99785 31.8144 15.0364 38.7169 23.7189 38.7169Z" fill="#2E280A"/>
</g>
<g style="mix-blend-mode:multiply" opacity="0.59">
<path d="M23.7189 38.3119C32.1733 38.3119 39.0269 31.5906 39.0269 23.2996C39.0269 15.0085 32.1733 8.28732 23.7189 8.28732C15.2644 8.28732 8.41078 15.0085 8.41078 23.2996C8.41078 31.5906 15.2644 38.3119 23.7189 38.3119Z" fill="#3A320D"/>
</g>
<g style="mix-blend-mode:multiply" opacity="0.62">
<path d="M23.7188 37.9046C31.9439 37.9046 38.6115 31.3658 38.6115 23.2997C38.6115 15.2336 31.9439 8.69477 23.7188 8.69477C15.4938 8.69477 8.82616 15.2336 8.82616 23.2997C8.82616 31.3658 15.4938 37.9046 23.7188 37.9046Z" fill="#453C0F"/>
</g>
<g style="mix-blend-mode:multiply" opacity="0.66">
<path d="M23.7188 37.4997C31.7158 37.4997 38.1986 31.1421 38.1986 23.2997C38.1986 15.4573 31.7158 9.09977 23.7188 9.09977C15.7219 9.09977 9.23909 15.4573 9.23909 23.2997C9.23909 31.1421 15.7219 37.4997 23.7188 37.4997Z" fill="#514612"/>
</g>
<g style="mix-blend-mode:multiply" opacity="0.7">
<path d="M37.4164 26.4648C39.1971 19.0488 34.5103 11.6214 26.9482 9.87521C19.3861 8.12899 11.8124 12.7252 10.0317 20.1412C8.25109 27.5571 12.9379 34.9845 20.5 36.7307C28.062 38.477 35.6358 33.8808 37.4164 26.4648Z" fill="#5C5014"/>
</g>
<g style="mix-blend-mode:multiply" opacity="0.74">
<path d="M23.7189 36.6874C31.2584 36.6874 37.3703 30.6935 37.3703 23.2997C37.3703 15.9059 31.2584 9.91209 23.7189 9.91209C16.1794 9.91209 10.0675 15.9059 10.0675 23.2997C10.0675 30.6935 16.1794 36.6874 23.7189 36.6874Z" fill="#685916"/>
</g>
<g style="mix-blend-mode:multiply" opacity="0.78">
<path d="M23.7188 36.2824C31.0302 36.2824 36.9573 30.4699 36.9573 23.2998C36.9573 16.1296 31.0302 10.3171 23.7188 10.3171C16.4074 10.3171 10.4803 16.1296 10.4803 23.2998C10.4803 30.4699 16.4074 36.2824 23.7188 36.2824Z" fill="#736319"/>
</g>
<g style="mix-blend-mode:multiply" opacity="0.81">
<path d="M23.7189 35.8774C30.8022 35.8774 36.5444 30.2462 36.5444 23.2997C36.5444 16.3532 30.8022 10.7219 23.7189 10.7219C16.6355 10.7219 10.8933 16.3532 10.8933 23.2997C10.8933 30.2462 16.6355 35.8774 23.7189 35.8774Z" fill="#7F6D1C"/>
</g>
<g style="mix-blend-mode:multiply" opacity="0.85">
<path d="M23.7188 35.47C30.5728 35.47 36.129 30.0211 36.129 23.2996C36.129 16.5781 30.5728 11.1293 23.7188 11.1293C16.8649 11.1293 11.3086 16.5781 11.3086 23.2996C11.3086 30.0211 16.8649 35.47 23.7188 35.47Z" fill="#8A771E"/>
</g>
<g style="mix-blend-mode:multiply" opacity="0.89">
<path d="M23.7189 35.0651C30.3448 35.0651 35.7161 29.7975 35.7161 23.2997C35.7161 16.8018 30.3448 11.5343 23.7189 11.5343C17.093 11.5343 11.7216 16.8018 11.7216 23.2997C11.7216 29.7975 17.093 35.0651 23.7189 35.0651Z" fill="#968121"/>
</g>
<g style="mix-blend-mode:multiply" opacity="0.93">
<path d="M23.7189 34.66C30.1167 34.66 35.3032 29.5738 35.3032 23.2996C35.3032 17.0254 30.1167 11.9391 23.7189 11.9391C17.321 11.9391 12.1346 17.0254 12.1346 23.2996C12.1346 29.5738 17.321 34.66 23.7189 34.66Z" fill="#A18B23"/>
</g>
<g style="mix-blend-mode:multiply" opacity="0.96">
<path d="M23.7189 34.2528C29.8873 34.2528 34.8878 29.3489 34.8878 23.2997C34.8878 17.2505 29.8873 12.3466 23.7189 12.3466C17.5504 12.3466 12.5499 17.2505 12.5499 23.2997C12.5499 29.3489 17.5504 34.2528 23.7189 34.2528Z" fill="#AD9526"/>
</g>
<g style="mix-blend-mode:multiply">
<path d="M23.7188 33.8478C29.6592 33.8478 34.4748 29.1253 34.4748 23.2997C34.4748 17.4741 29.6592 12.7516 23.7188 12.7516C17.7785 12.7516 12.9629 17.4741 12.9629 23.2997C12.9629 29.1253 17.7785 33.8478 23.7188 33.8478Z" fill="#B89F28"/>
</g>
<g style="mix-blend-mode:multiply">
<path d="M23.7189 33.643C29.5438 33.643 34.2659 29.0122 34.2659 23.2998C34.2659 17.5874 29.5438 12.9565 23.7189 12.9565C17.8939 12.9565 13.1718 17.5874 13.1718 23.2998C13.1718 29.0122 17.8939 33.643 23.7189 33.643Z" fill="#BCA026"/>
</g>
<g style="mix-blend-mode:multiply">
<path d="M27.5039 32.74C32.8186 30.6902 35.4325 24.8033 33.3422 19.5913C31.2519 14.3793 25.249 11.816 19.9343 13.8659C14.6197 15.9158 12.0058 21.8027 14.0961 27.0146C16.1864 32.2266 22.1893 34.7899 27.5039 32.74Z" fill="#C1A023"/>
</g>
<g style="mix-blend-mode:multiply">
<path d="M27.4275 32.5495C32.6347 30.541 35.1958 24.773 33.1477 19.6664C31.0997 14.5597 25.2181 12.0482 20.0108 14.0566C14.8035 16.0651 12.2425 21.8331 14.2905 26.9397C16.3386 32.0464 22.2202 34.5579 27.4275 32.5495Z" fill="#C5A121"/>
</g>
<g style="mix-blend-mode:multiply">
<path d="M27.351 32.3588C32.4509 30.3917 34.9591 24.7427 32.9533 19.7413C30.9475 14.74 25.1872 12.2802 20.0873 14.2473C14.9874 16.2143 12.4791 21.8633 14.4849 26.8647C16.4908 31.866 22.2511 34.3258 27.351 32.3588Z" fill="#CAA21E"/>
</g>
<g style="mix-blend-mode:multiply">
<path d="M27.216 32.1788C32.2224 30.2843 34.7148 24.7685 32.783 19.8589C30.8512 14.9493 25.2267 12.505 20.2204 14.3995C15.214 16.294 12.7216 21.8098 14.6534 26.7194C16.5852 31.629 22.2096 34.0733 27.216 32.1788Z" fill="#CEA21C"/>
</g>
<g style="mix-blend-mode:multiply">
<path d="M27.2779 31.9347C32.147 30.0074 34.501 24.5741 32.5358 19.7991C30.5705 15.0241 25.0301 12.7155 20.161 14.6428C15.2919 16.5701 12.9379 22.0034 14.9032 26.7784C16.8685 31.5534 22.4088 33.862 27.2779 31.9347Z" fill="#D3A319"/>
</g>
<g style="mix-blend-mode:multiply">
<path d="M28.0368 31.3695C32.5849 29.0308 34.3386 23.5193 31.9538 19.0591C29.5691 14.5989 23.9489 12.8791 19.4008 15.2177C14.8528 17.5564 13.099 23.068 15.4838 27.5282C17.8686 31.9883 23.4887 33.7082 28.0368 31.3695Z" fill="#D7A416"/>
</g>
<g style="mix-blend-mode:multiply">
<path d="M27.9552 31.1923C32.397 28.8986 34.1017 23.508 31.7628 19.152C29.4238 14.796 23.927 13.1242 19.4852 15.418C15.0433 17.7117 13.3386 23.1023 15.6776 27.4583C18.0165 31.8143 23.5134 33.4861 27.9552 31.1923Z" fill="#DCA414"/>
</g>
<g style="mix-blend-mode:multiply">
<path d="M25.38 31.8453C30.1997 30.9471 33.3644 26.3873 32.4485 21.6607C31.5325 16.9342 26.8829 13.8307 22.0632 14.7289C17.2435 15.6271 14.0789 20.1869 14.9948 24.9135C15.9107 29.6401 20.5603 32.7435 25.38 31.8453Z" fill="#E0A512"/>
</g>
<g style="mix-blend-mode:multiply">
<path d="M26.9888 31.1738C31.4259 29.4025 33.5586 24.4391 31.7524 20.0879C29.9462 15.7366 24.885 13.6451 20.448 15.4164C16.011 17.1877 13.8783 22.151 15.6845 26.5023C17.4907 30.8536 22.5518 32.9451 26.9888 31.1738Z" fill="#E4A60F"/>
</g>
<g style="mix-blend-mode:multiply">
<path d="M26.9368 30.9923C31.2614 29.2504 33.3272 24.4002 31.5509 20.1592C29.7746 15.9181 24.8289 13.8922 20.5043 15.6342C16.1797 17.3762 14.1139 22.2264 15.8902 26.4674C17.6664 30.7084 22.6122 32.7343 26.9368 30.9923Z" fill="#E9A70D"/>
</g>
<g style="mix-blend-mode:multiply">
<path d="M26.8454 30.7851C31.0673 29.0921 33.0903 24.3634 31.364 20.2231C29.6376 16.0829 24.8157 14.099 20.5938 15.7919C16.372 17.4849 14.349 22.2137 16.0753 26.3539C17.8017 30.4942 22.6236 32.4781 26.8454 30.7851Z" fill="#EDA70A"/>
</g>
<g style="mix-blend-mode:multiply">
<path d="M26.7664 30.5954C30.8814 28.9453 32.8532 24.3361 31.1705 20.3006C29.4879 16.2651 24.7879 14.3314 20.6729 15.9816C16.5579 17.6317 14.586 22.2408 16.2687 26.2764C17.9514 30.3119 22.6513 32.2456 26.7664 30.5954Z" fill="#F2A808"/>
</g>
<g style="mix-blend-mode:multiply">
<path d="M26.6873 30.4059C30.6955 28.7986 32.6162 24.3091 30.9772 20.3783C29.3382 16.4475 24.7602 14.564 20.752 16.1713C16.7438 17.7786 14.8231 22.2681 16.4621 26.1989C18.1011 30.1297 22.6791 32.0132 26.6873 30.4059Z" fill="#F6A905"/>
</g>
<g style="mix-blend-mode:multiply">
<path d="M31.3532 23.2997C31.3532 27.4337 27.9367 30.7866 23.7188 30.7866C19.501 30.7866 16.0845 27.4361 16.0845 23.2997C16.0845 19.1634 19.501 15.8129 23.7188 15.8129C27.9367 15.8129 31.3532 19.1634 31.3532 23.2997Z" fill="#FBA903"/>
</g>
<g style="mix-blend-mode:multiply">
<path d="M31.1443 23.2997C31.1443 27.3203 27.8187 30.5817 23.7189 30.5817C19.619 30.5817 16.2934 27.3227 16.2934 23.2997C16.2934 19.2766 19.619 16.0177 23.7189 16.0177C27.8187 16.0177 31.1443 19.2766 31.1443 23.2997Z" fill="#FFAA00"/>
</g>
</g>
<g style="mix-blend-mode:screen">
<path d="M35.2393 23.8614C30.8961 23.078 26.9978 25.4354 25.4812 29.0101C25.2674 29.5114 24.7143 29.7621 24.1711 29.6705C23.3453 29.5307 22.4604 29.5645 21.5436 29.8369C19.4912 30.4443 17.8985 32.1702 17.5347 34.2407C16.903 37.813 19.6928 40.9153 23.2174 40.9153H33.5777C38.9999 40.9153 43.2718 36.092 42.178 30.5817C41.5046 27.1974 38.7025 24.4832 35.2442 23.8614H35.2393Z" fill="#6686BA"/>
<path opacity="0.95" d="M35.0254 23.642C30.6822 22.8586 26.7839 25.216 25.2673 28.7907C25.0535 29.2921 24.5005 29.5428 23.9548 29.4512C23.1289 29.3114 22.2441 29.3451 21.3273 29.6175C19.2749 30.2249 17.6821 31.9508 17.3183 34.0214C16.6867 37.5937 19.4764 40.6959 23.0011 40.6959H33.3613C38.7836 40.6959 43.0555 35.8726 41.9617 30.3623C41.2882 26.9781 38.4862 24.2639 35.0278 23.642H35.0254Z" fill="#607EAE"/>
<path opacity="0.9" d="M34.8116 23.4225C30.4684 22.6391 26.5701 24.9966 25.0535 28.5712C24.8397 29.0726 24.2866 29.3257 23.7434 29.2317C22.9176 29.0919 22.0327 29.1257 21.1159 29.398C19.0635 30.0055 17.4708 31.7314 17.107 33.8019C16.4753 37.3742 19.2651 40.4765 22.7922 40.4765H33.1524C38.5747 40.4765 42.8466 35.6531 41.7528 30.1429C41.0793 26.7586 38.2773 24.0444 34.8189 23.4225H34.8116Z" fill="#5975A3"/>
<path opacity="0.85" d="M34.5977 23.2056C30.2545 22.4222 26.3562 24.7797 24.8397 28.3544C24.6258 28.8557 24.0728 29.1088 23.5296 29.0148C22.7037 28.875 21.8189 28.9088 20.902 29.1811C18.8497 29.7886 17.2569 31.5145 16.8931 33.585C16.2614 37.1573 19.0512 40.2596 22.5783 40.2596H32.9386C38.3608 40.2596 42.6327 35.4363 41.5389 29.926C40.8655 26.5417 38.0634 23.8275 34.6051 23.2056H34.5977Z" fill="#536D97"/>
<path opacity="0.8" d="M34.3839 22.9864C30.0407 22.203 26.1424 24.5604 24.6258 28.1351C24.412 28.6365 23.859 28.8896 23.3158 28.7956C22.4899 28.6558 21.605 28.6895 20.6882 28.9619C18.6358 29.5693 17.0431 31.2952 16.6793 33.3658C16.0476 36.9381 18.8374 40.0403 22.3645 40.0403H32.7248C38.147 40.0403 42.4189 35.217 41.3251 29.7067C40.6516 26.3225 37.8496 23.6083 34.3913 22.9864H34.3839Z" fill="#4D658B"/>
<path opacity="0.75" d="M34.1701 22.7669C29.8269 21.9835 25.9286 24.341 24.412 27.9157C24.1982 28.417 23.6451 28.6701 23.1019 28.5761C22.2761 28.4363 21.3912 28.4701 20.4744 28.7424C18.422 29.3499 16.8293 31.0758 16.4655 33.1463C15.8338 36.7186 18.6236 39.8209 22.1507 39.8209H32.511C37.9332 39.8209 42.2051 34.9976 41.1113 29.4873C40.4378 26.103 37.6358 23.3888 34.1774 22.7669H34.1701Z" fill="#465C80"/>
<path opacity="0.7" d="M33.9587 22.5476C29.6155 21.7642 25.7172 24.1216 24.2006 27.6963C23.9868 28.1977 23.4337 28.4508 22.8905 28.3568C22.0647 28.217 21.1798 28.2507 20.263 28.5231C18.2106 29.1305 16.6178 30.8564 16.2541 32.927C15.6224 36.4993 18.4121 39.6015 21.9393 39.6015H32.2995C37.7218 39.6015 41.9937 34.7782 40.8999 29.2679C40.2264 25.8837 37.4244 23.1695 33.966 22.5476H33.9587Z" fill="#405474"/>
<path opacity="0.65" d="M33.7448 22.3282C29.4016 21.5448 25.5033 23.9023 23.9867 27.477C23.7729 27.9783 23.2199 28.2314 22.6766 28.1374C21.8508 27.9976 20.9659 28.0314 20.0491 28.3037C17.9967 28.9112 16.404 30.6371 16.0402 32.7076C15.4085 36.2799 18.1983 39.3822 21.7254 39.3822H32.0857C37.5079 39.3822 41.7798 34.5589 40.686 29.0486C40.0125 25.6643 37.2105 22.9501 33.7521 22.3282H33.7448Z" fill="#394B69"/>
<path opacity="0.6" d="M33.5308 22.1089C29.1876 21.3255 25.2894 23.6829 23.7728 27.2576C23.559 27.759 23.0059 28.0121 22.4627 27.9181C21.6368 27.7783 20.752 27.812 19.8352 28.0844C17.7828 28.6918 16.19 30.4177 15.8263 32.4883C15.1946 36.0606 17.9843 39.1628 21.5115 39.1628H31.8717C37.2939 39.1628 41.5659 34.3395 40.4721 28.8292C39.7986 25.445 36.9965 22.7308 33.5382 22.1089H33.5308Z" fill="#33435D"/>
<path opacity="0.55" d="M33.3171 21.8895C28.974 21.1061 25.0757 23.4636 23.5591 27.0383C23.3453 27.5396 22.7922 27.7927 22.249 27.6987C21.4231 27.5589 20.5383 27.5927 19.6215 27.865C17.5691 28.4725 15.9763 30.1984 15.6126 32.2689C14.9809 35.8412 17.7706 38.9435 21.2978 38.9435H31.658C37.0803 38.9435 41.3522 34.1202 40.2584 28.6099C39.5849 25.2256 36.7829 22.5114 33.3245 21.8895H33.3171Z" fill="#2D3B51"/>
<path opacity="0.5" d="M33.1033 21.6702C28.7601 20.8868 24.8618 23.2442 23.3452 26.8189C23.1314 27.3203 22.5783 27.5734 22.0351 27.4794C21.2093 27.3396 20.3244 27.3733 19.4076 27.6457C17.3552 28.2531 15.7625 29.979 15.3987 32.0496C14.767 35.6219 17.5568 38.7241 21.0839 38.7241H31.4442C36.8664 38.7241 41.1383 33.9008 40.0445 28.3905C39.371 25.0063 36.569 22.2921 33.1106 21.6702H33.1033Z" fill="#263246"/>
<path opacity="0.45" d="M32.8895 21.451C28.5463 20.6676 24.648 23.025 23.1315 26.5997C22.9176 27.1011 22.3646 27.3542 21.8214 27.2601C20.9955 27.1203 20.1107 27.1541 19.1938 27.4265C17.1415 28.0339 15.5487 29.7598 15.1849 31.8304C14.5532 35.4026 17.343 38.5049 20.8702 38.5049H31.2304C36.6526 38.5049 40.9245 33.6816 39.8307 28.1713C39.1573 24.787 36.3552 22.0729 32.8969 21.451H32.8895Z" fill="#202A3A"/>
<path opacity="0.4" d="M32.6756 21.2315C28.3324 20.4481 24.4341 22.8055 22.9175 26.3802C22.7037 26.8816 22.1507 27.1347 21.6075 27.0407C20.7816 26.9009 19.8967 26.9346 18.9799 27.207C16.9275 27.8144 15.3348 29.5403 14.971 31.6109C14.3393 35.1832 17.1291 38.2854 20.6562 38.2854H31.0165C36.4387 38.2854 40.7106 33.4621 39.6168 27.9518C38.9433 24.5676 36.1413 21.8534 32.683 21.2315H32.6756Z" fill="#1A222F"/>
<path opacity="0.35" d="M32.4641 21.012C28.1209 20.2286 24.2226 22.586 22.7061 26.1607C22.4922 26.6621 21.9392 26.9152 21.396 26.8212C20.5701 26.6814 19.6852 26.7151 18.7684 26.9875C16.716 27.595 15.1233 29.3208 14.7595 31.3914C14.1278 34.9637 16.9176 38.066 20.4448 38.066H30.805C36.2272 38.066 40.4991 33.2426 39.4054 27.7324C38.7319 24.3481 35.9298 21.6339 32.4715 21.012H32.4641Z" fill="#131923"/>
<path opacity="0.3" d="M32.2504 20.7929C27.9072 20.0095 24.0089 22.3669 22.4923 25.9416C22.2785 26.443 21.7254 26.6961 21.1822 26.6021C20.3564 26.4623 19.4715 26.496 18.5547 26.7684C16.5023 27.3759 14.9095 29.1017 14.5458 31.1723C13.9141 34.7446 16.7038 37.8468 20.231 37.8468H30.5912C36.0135 37.8468 40.2854 33.0235 39.1916 27.5132C38.5181 24.129 35.7161 21.4148 32.2577 20.7929H32.2504Z" fill="#0D1117"/>
<path opacity="0.25" d="M32.0365 20.5734C27.6934 19.79 23.7951 22.1475 22.2785 25.7222C22.0647 26.2235 21.5116 26.4766 20.9684 26.3826C20.1425 26.2428 19.2577 26.2766 18.3409 26.5489C16.2885 27.154 14.6957 28.8823 14.332 30.9528C13.7003 34.5251 16.49 37.6274 20.0172 37.6274H30.3774C35.7997 37.6274 40.0716 32.8041 38.9778 27.2938C38.3043 23.9095 35.5022 21.1953 32.0439 20.5734H32.0365Z" fill="#06080C"/>
<path opacity="0.2" d="M31.8227 20.3541C27.4795 19.5707 23.5812 21.9281 22.0646 25.5028C21.8508 26.0042 21.2977 26.2573 20.7521 26.1633C19.9262 26.0235 19.0413 26.0572 18.1245 26.3296C16.0721 26.9346 14.4794 28.6629 14.1156 30.7335C13.4839 34.3058 16.2737 37.408 19.8009 37.408H30.1611C35.5833 37.408 39.8552 32.5847 38.7614 27.0744C38.088 23.6902 35.2859 20.976 31.8276 20.3541H31.8227Z" fill="black"/>
</g>
<path style="mix-blend-mode:screen" d="M25.1542 38.1455C32.3014 38.1455 38.0953 33.2892 38.0953 27.2985C38.0953 21.3079 32.3014 16.4515 25.1542 16.4515C18.007 16.4515 12.2131 21.3079 12.2131 27.2985C12.2131 33.2892 18.007 38.1455 25.1542 38.1455Z" fill="url(#paint3_radial_259_5280)"/>
</g>
</g>
<path d="M20.6083 12.5513L22.8327 10.7255C23.443 10.2246 24.3364 10.2311 24.9378 10.7428L27.1291 12.6077C27.631 13.0349 28.2568 13.2951 28.9179 13.3515L31.8079 13.603C32.6017 13.6724 33.2275 14.2969 33.285 15.0754L33.4906 17.9139C33.537 18.5622 33.7913 19.1824 34.2181 19.6812L36.0799 21.8626C36.5907 22.4611 36.584 23.3372 36.0622 23.927L34.1606 26.0759C33.725 26.5682 33.4596 27.1818 33.4022 27.8302L33.1457 30.6643C33.0749 31.4428 32.4381 32.0565 31.6443 32.1129L28.7499 32.3145C28.0887 32.3601 27.4563 32.6094 26.9477 33.028L24.7233 34.8538C24.113 35.3547 23.2197 35.3482 22.6183 34.8364L20.427 32.9716C19.9251 32.5444 19.2993 32.2842 18.6382 32.2278L15.7482 31.9763C14.9543 31.9069 14.3286 31.2824 14.2711 30.5039L14.0655 27.6654C14.019 27.017 13.7647 26.3968 13.338 25.8981L11.4762 23.7166C10.9654 23.1182 10.972 22.2421 11.4939 21.6523L13.3955 19.5034C13.8311 19.0111 14.0964 18.3974 14.1539 17.7491L14.4104 14.9149C14.4812 14.1365 15.118 13.5228 15.9118 13.4664L18.8062 13.2647C19.4674 13.2192 20.0997 12.9698 20.6083 12.5513Z" fill="#F5D188"/>
<path d="M20.2324 12.97L22.4569 11.1441C23.0693 10.6432 23.9605 10.6497 24.5641 11.1615L26.7554 13.0263C27.2573 13.4535 27.8831 13.7137 28.5442 13.7701L31.4342 14.0217C32.228 14.091 32.8538 14.7156 32.9113 15.494L33.1169 18.3325C33.1634 18.9809 33.4176 19.6011 33.8444 20.0998L35.7062 22.2813C36.217 22.8798 36.2104 23.7558 35.6885 24.3456L33.7869 26.4946C33.3513 26.9868 33.086 27.6005 33.0285 28.2488L32.772 31.083C32.7012 31.8615 32.0644 32.4751 31.2706 32.5315L28.3762 32.7332C27.715 32.7787 27.0826 33.0281 26.5741 33.4466L24.3496 35.2724C23.7393 35.7733 22.846 35.7668 22.2446 35.2551L20.0533 33.3902C19.5514 32.963 18.9256 32.7028 18.2645 32.6464L15.3745 32.3949C14.5807 32.3255 13.9549 31.701 13.8974 30.9225L13.6918 28.084C13.6453 27.4335 13.391 26.8155 12.9643 26.3167L11.1025 24.1353C10.5917 23.5368 10.5983 22.6607 11.1202 22.0709L13.0218 19.922C13.4574 19.4298 13.7227 18.8161 13.7802 18.1677L14.0367 15.3336C14.1075 14.5551 14.7443 13.9414 15.5381 13.885L18.4325 13.6834C19.0937 13.6378 19.7261 13.3885 20.2346 12.97H20.2324Z" fill="#FFDD92"/>
<mask id="mask3_259_5280" style="mask-type:luminance" maskUnits="userSpaceOnUse" x="10" y="10" width="27" height="26">
<path d="M20.4049 12.7638L22.6293 10.9379C23.2396 10.437 24.1329 10.4435 24.7344 10.9553L26.9256 12.8202C27.4276 13.2473 28.0534 13.5076 28.7145 13.5639L31.6045 13.8155C32.3983 13.8849 33.0241 14.5094 33.0816 15.2878L33.2872 18.1263C33.3336 18.7747 33.5879 19.3949 34.0147 19.8936L35.8765 22.0751C36.3873 22.6736 36.3806 23.5496 35.8588 24.1394L33.9572 26.2884C33.5216 26.7806 33.2562 27.3943 33.1987 28.0426L32.9423 30.8768C32.8715 31.6553 32.2347 32.269 31.4409 32.3253L28.5464 32.527C27.8853 32.5725 27.2529 32.8241 26.7443 33.2404L24.5199 35.0662C23.9096 35.5672 23.0163 35.5607 22.4148 35.0489L20.2236 33.184C19.7216 32.7569 19.0959 32.4966 18.4347 32.4403L15.5447 32.1887C14.7509 32.1193 14.1252 31.4948 14.0677 30.7163L13.862 27.8778C13.8156 27.2295 13.5613 26.6093 13.1346 26.1106L11.2727 23.9291C10.762 23.3306 10.7686 22.4546 11.2904 21.8647L13.192 19.7158C13.6276 19.2236 13.893 18.6099 13.9505 17.9615L14.207 15.1274C14.2777 14.3489 14.9146 13.7352 15.7084 13.6789L18.6028 13.4772C19.2639 13.4317 19.8963 13.1823 20.4049 12.7638Z" fill="white"/>
</mask>
<g mask="url(#mask3_259_5280)">
<path d="M20.4049 12.7638L22.6293 10.9379C23.2396 10.437 24.1329 10.4435 24.7344 10.9553L26.9256 12.8202C27.4276 13.2473 28.0534 13.5076 28.7145 13.5639L31.6045 13.8155C32.3983 13.8849 33.0241 14.5094 33.0816 15.2878L33.2872 18.1263C33.3336 18.7747 33.5879 19.3949 34.0147 19.8936L35.8765 22.0751C36.3873 22.6736 36.3806 23.5496 35.8588 24.1394L33.9572 26.2884C33.5216 26.7806 33.2562 27.3943 33.1987 28.0426L32.9423 30.8768C32.8715 31.6553 32.2347 32.269 31.4409 32.3253L28.5464 32.527C27.8853 32.5725 27.2529 32.8241 26.7443 33.2404L24.5199 35.0662C23.9096 35.5672 23.0163 35.5607 22.4148 35.0489L20.2236 33.184C19.7216 32.7569 19.0959 32.4966 18.4347 32.4403L15.5447 32.1887C14.7509 32.1193 14.1252 31.4948 14.0677 30.7163L13.862 27.8778C13.8156 27.2295 13.5613 26.6093 13.1346 26.1106L11.2727 23.9291C10.762 23.3306 10.7686 22.4546 11.2904 21.8647L13.192 19.7158C13.6276 19.2236 13.893 18.6099 13.9505 17.9615L14.207 15.1274C14.2777 14.3489 14.9146 13.7352 15.7084 13.6789L18.6028 13.4772C19.2639 13.4317 19.8963 13.1823 20.4049 12.7638Z" fill="url(#paint4_linear_259_5280)"/>
<g style="mix-blend-mode:multiply">
<path opacity="0.4" d="M33.327 21.0451C35.6554 26.6982 32.8715 33.1299 27.107 35.4154C21.3425 37.6988 14.7841 34.9687 12.4535 29.3156C10.1252 23.6624 12.909 17.2308 18.6736 14.9453C24.4381 12.6619 30.9964 15.392 33.327 21.0451Z" fill="white"/>
<path opacity="0.44" d="M33.1545 21.0647C35.4409 26.6116 32.7078 32.9239 27.0517 35.1661C21.3955 37.4061 14.9587 34.7281 12.6724 29.1812C10.386 23.6343 13.1191 17.322 18.7752 15.0798C24.4314 12.8398 30.8681 15.5178 33.1545 21.0647Z" fill="#FEFBF6"/>
<path opacity="0.48" d="M26.1428 35.2199C31.8584 33.4827 35.0558 27.5305 33.2843 21.9253C31.5128 16.3201 25.4433 13.1845 19.7277 14.9217C14.012 16.659 10.8147 22.6112 12.5861 28.2164C14.3576 33.8216 20.4271 36.9572 26.1428 35.2199Z" fill="#FEF6EC"/>
<path opacity="0.51" d="M26.0229 34.9754C31.6418 33.317 34.8259 27.5056 33.1348 21.9953C31.4437 16.4849 25.5178 13.3624 19.8989 15.0208C14.28 16.6792 11.0959 22.4906 12.787 28.0009C14.4781 33.5112 20.404 36.6338 26.0229 34.9754Z" fill="#FDF2E3"/>
<path opacity="0.55" d="M25.8893 34.7461C31.4127 33.1724 34.5895 27.5055 32.9848 22.0888C31.3801 16.672 25.6016 13.5567 20.0781 15.1304C14.5546 16.7041 11.3779 22.3709 12.9826 27.7877C14.5873 33.2044 20.3658 36.3198 25.8893 34.7461Z" fill="#FDEDD9"/>
<path opacity="0.59" d="M25.7436 34.5408C31.1743 33.0589 34.3517 27.5401 32.8405 22.2143C31.3294 16.8886 25.7019 13.7725 20.2711 15.2545C14.8404 16.7365 11.663 22.2553 13.1742 27.581C14.6854 32.9068 20.3129 36.0228 25.7436 34.5408Z" fill="#FCE9D0"/>
<path opacity="0.62" d="M25.5803 34.3147C30.9184 32.9326 34.1032 27.5683 32.6939 22.3334C31.2845 17.0984 25.8145 13.9751 20.4764 15.3572C15.1383 16.7394 11.9534 22.1036 13.3628 27.3386C14.7722 32.5736 20.2422 35.6969 25.5803 34.3147Z" fill="#FBE4C6"/>
<path opacity="0.66" d="M25.4019 34.0875C30.6491 32.816 33.8517 27.6137 32.555 22.4679C31.2584 17.3221 25.9536 14.1814 20.7064 15.453C15.4592 16.7245 12.2567 21.9268 13.5533 27.0726C14.8499 32.2184 20.1547 35.3591 25.4019 34.0875Z" fill="#FBE0BD"/>
<path opacity="0.7" d="M25.1916 33.8889C30.35 32.7433 33.5847 27.7137 32.4165 22.655C31.2484 17.5963 26.1197 14.4241 20.9613 15.5697C15.8029 16.7153 12.5682 21.7449 13.7363 26.8036C14.9045 31.8623 20.0332 35.0345 25.1916 33.8889Z" fill="#FADBB3"/>
<path opacity="0.74" d="M24.9473 33.6734C30.0186 32.6724 33.3023 27.8293 32.2816 22.856C31.2608 17.8827 26.3223 14.6625 21.251 15.6635C16.1797 16.6645 12.8961 21.5076 13.9168 26.4809C14.9375 31.4542 19.876 34.6744 24.9473 33.6734Z" fill="#F9D7AA"/>
<path opacity="0.78" d="M24.6562 33.4604C29.6419 32.6308 32.9979 27.9947 32.1519 23.1053C31.3059 18.2159 26.5784 14.9248 21.5927 15.7544C16.607 16.584 13.251 21.2202 14.097 26.1096C14.943 30.9989 19.6705 34.29 24.6562 33.4604Z" fill="#F9D2A0"/>
<path opacity="0.81" d="M24.2928 33.2462C29.1931 32.6254 32.6524 28.2266 32.0194 23.421C31.3865 18.6154 26.9009 15.2229 22.0007 15.8437C17.1004 16.4644 13.6411 20.8633 14.274 25.6688C14.907 30.4744 19.3925 33.8669 24.2928 33.2462Z" fill="#F8CE97"/>
<path opacity="0.85" d="M23.8313 33.0339C28.6424 32.6758 32.2466 28.5607 31.8815 23.8426C31.5164 19.1244 27.3202 15.5899 22.5091 15.948C17.698 16.306 14.0938 20.4211 14.4589 25.1393C14.824 29.8574 19.0202 33.392 23.8313 33.0339Z" fill="#F8C98D"/>
<path opacity="0.89" d="M23.2314 32.7868C27.9403 32.7667 31.741 29.0068 31.7204 24.3889C31.6999 19.771 27.8659 16.0438 23.157 16.0639C18.4481 16.0841 14.6475 19.8439 14.668 24.4618C14.6886 29.0797 18.5225 32.807 23.2314 32.7868Z" fill="#F7C584"/>
<path opacity="0.93" d="M31.5023 25.1324C31.929 20.6477 28.5677 16.6729 23.9946 16.2545C19.4215 15.8361 15.3685 19.1325 14.9418 23.6172C14.5152 28.1019 17.8765 32.0767 22.4496 32.4951C27.0226 32.9135 31.0757 29.6171 31.5023 25.1324Z" fill="#F6C07A"/>
<path opacity="0.96" d="M31.1517 26.0585C32.1328 21.7748 29.3872 17.5222 25.0192 16.56C20.6511 15.5977 16.3147 18.2903 15.3335 22.574C14.3523 26.8576 17.0979 31.1103 21.466 32.0725C25.834 33.0347 30.1705 30.3421 31.1517 26.0585Z" fill="#F6BC71"/>
<path d="M30.6212 27.0804C32.2089 23.0973 30.2033 18.6061 26.1417 17.0492C22.0801 15.4922 17.5004 17.459 15.9128 21.4422C14.3251 25.4253 16.3307 29.9164 20.3923 31.4734C24.454 33.0304 29.0336 31.0636 30.6212 27.0804Z" fill="#F5B767"/>
</g>
</g>
<mask id="mask4_259_5280" style="mask-type:luminance" maskUnits="userSpaceOnUse" x="14" y="14" width="19" height="18">
<path d="M29.7351 28.8791C33.1667 25.5138 33.1667 20.0576 29.7351 16.6923C26.3035 13.327 20.7398 13.327 17.3081 16.6923C13.8765 20.0576 13.8765 25.5138 17.3081 28.8791C20.7398 32.2444 26.3035 32.2444 29.7351 28.8791Z" fill="white"/>
</mask>
<g mask="url(#mask4_259_5280)">
<path d="M29.7351 28.8791C33.1667 25.5138 33.1667 20.0576 29.7351 16.6923C26.3035 13.327 20.7398 13.327 17.3081 16.6923C13.8765 20.0576 13.8765 25.5138 17.3081 28.8791C20.7398 32.2444 26.3035 32.2444 29.7351 28.8791Z" fill="url(#paint5_linear_259_5280)"/>
<path d="M23.5226 14.1713C21.0527 14.1713 18.8261 15.1731 17.2296 16.7821C18.8128 15.2707 20.9422 14.3643 23.3258 14.3643C28.1794 14.3643 32.0843 18.3043 32.0843 23.0641C32.0843 25.4016 31.0959 27.7696 29.4088 29.1682C31.5779 27.3728 32.3098 25.2108 32.3098 22.7887C32.3098 18.0289 28.3761 14.1713 23.5226 14.1713Z" fill="#FFAB1A"/>
<path d="M23.7482 31.1828C18.8947 31.1828 14.961 27.3251 14.961 22.5654C14.961 20.243 15.9029 18.1374 17.4264 16.5892C15.7703 18.1569 14.7355 20.3514 14.7355 22.7866C14.7355 27.5463 18.6691 31.404 23.5227 31.404C26.0058 31.404 28.2457 30.3892 29.8422 28.765C28.2612 30.259 26.1164 31.1828 23.7482 31.1828Z" fill="#FFC153"/>
<g style="mix-blend-mode:screen">
<path d="M24.0467 31.8462C29.4383 31.8462 33.8091 27.5599 33.8091 22.2725C33.8091 16.9851 29.4383 12.6988 24.0467 12.6988C18.6551 12.6988 14.2844 16.9851 14.2844 22.2725C14.2844 27.5599 18.6551 31.8462 24.0467 31.8462Z" fill="#947446"/>
<path opacity="0.96" d="M33.3177 24.5746C34.545 19.4752 31.3246 14.3657 26.1247 13.1621C20.9249 11.9585 15.7146 15.1167 14.4873 20.2161C13.2601 25.3155 16.4805 30.4251 21.6803 31.6286C26.8802 32.8322 32.0905 29.674 33.3177 24.5746Z" fill="#8B6D42"/>
<path opacity="0.93" d="M23.7703 31.9265C29.0642 31.9265 33.3557 27.7179 33.3557 22.5263C33.3557 17.3347 29.0642 13.1261 23.7703 13.1261C18.4764 13.1261 14.1849 17.3347 14.1849 22.5263C14.1849 27.7179 18.4764 31.9265 23.7703 31.9265Z" fill="#82663D"/>
<path opacity="0.89" d="M33.0085 24.1507C33.8487 19.0747 30.3338 14.2918 25.1577 13.4678C19.9816 12.6438 15.1045 16.0908 14.2643 21.1669C13.4241 26.243 16.939 31.0258 22.1151 31.8498C27.2912 32.6738 32.1683 29.2268 33.0085 24.1507Z" fill="#785E39"/>
<path opacity="0.85" d="M30.145 29.3037C33.8184 25.7013 33.8184 19.8606 30.145 16.2582C26.4716 12.6557 20.5158 12.6557 16.8424 16.2582C13.169 19.8606 13.169 25.7012 16.8424 29.3037C20.5159 32.9061 26.4716 32.9061 30.145 29.3037Z" fill="#6F5735"/>
<path opacity="0.81" d="M23.3546 32.0458C28.5007 32.0458 32.6724 27.9546 32.6724 22.9079C32.6724 17.8612 28.5007 13.7701 23.3546 13.7701C18.2084 13.7701 14.0367 17.8612 14.0367 22.9079C14.0367 27.9546 18.2084 32.0458 23.3546 32.0458Z" fill="#665030"/>
<path opacity="0.78" d="M29.7389 29.435C33.3424 25.9012 33.3424 20.1717 29.7389 16.6379C26.1355 13.104 20.2931 13.104 16.6897 16.6379C13.0862 20.1717 13.0862 25.9012 16.6897 29.435C20.2931 32.9688 26.1355 32.9688 29.7389 29.435Z" fill="#5D492C"/>
<path opacity="0.74" d="M23.0782 32.1259C28.1254 32.1259 32.217 28.1134 32.217 23.1637C32.217 18.214 28.1254 14.2015 23.0782 14.2015C18.031 14.2015 13.9394 18.214 13.9394 23.1637C13.9394 28.1134 18.031 32.1259 23.0782 32.1259Z" fill="#534127"/>
<path opacity="0.7" d="M22.9388 32.1671C27.9372 32.1671 31.9892 28.1934 31.9892 23.2917C31.9892 18.3899 27.9372 14.4162 22.9388 14.4162C17.9405 14.4162 13.8885 18.3899 13.8885 23.2917C13.8885 28.1934 17.9405 32.1671 22.9388 32.1671Z" fill="#4A3A23"/>
<path opacity="0.66" d="M31.5236 25.3949C32.6384 20.6669 29.6339 15.9479 24.8128 14.8547C19.9917 13.7614 15.1798 16.7079 14.065 21.4358C12.9501 26.1637 15.9547 30.8827 20.7758 31.976C25.5968 33.0693 30.4088 30.1228 31.5236 25.3949Z" fill="#41331F"/>
<path opacity="0.62" d="M22.6625 32.2453C27.5619 32.2453 31.5337 28.3503 31.5337 23.5455C31.5337 18.7407 27.5619 14.8457 22.6625 14.8457C17.763 14.8457 13.7912 18.7407 13.7912 23.5455C13.7912 28.3503 17.763 32.2453 22.6625 32.2453Z" fill="#382C1A"/>
<path opacity="0.59" d="M31.1852 25.0855C31.9808 20.3931 28.7468 15.9566 23.9619 15.1764C19.177 14.3962 14.6531 17.5677 13.8575 22.2602C13.062 26.9526 16.296 31.3891 21.0809 32.1693C25.8658 32.9495 30.3897 29.778 31.1852 25.0855Z" fill="#2E2416"/>
<path opacity="0.55" d="M30.8717 25.6861C31.9303 21.0942 28.9927 16.5302 24.3104 15.492C19.628 14.4538 14.9741 17.3346 13.9154 21.9265C12.8568 26.5183 15.7943 31.0824 20.4767 32.1206C25.159 33.1588 29.813 30.278 30.8717 25.6861Z" fill="#251D12"/>
<path opacity="0.51" d="M22.2468 32.3666C26.9985 32.3666 30.8505 28.5891 30.8505 23.9292C30.8505 19.2694 26.9985 15.4918 22.2468 15.4918C17.4951 15.4918 13.6431 19.2694 13.6431 23.9292C13.6431 28.5891 17.4951 32.3666 22.2468 32.3666Z" fill="#1C160D"/>
<path opacity="0.48" d="M28.1279 29.9595C31.4533 26.6984 31.4533 21.411 28.1279 18.1499C24.8025 14.8887 19.4109 14.8887 16.0855 18.1499C12.7601 21.411 12.7601 26.6984 16.0855 29.9595C19.4109 33.2207 24.8025 33.2207 28.1279 29.9595Z" fill="#130F09"/>
<path opacity="0.44" d="M30.2999 25.4821C31.0285 20.9755 27.8939 16.743 23.2986 16.0284C18.7032 15.3138 14.3873 18.3878 13.6586 22.8944C12.93 27.4009 16.0645 31.6335 20.6599 32.3481C25.2552 33.0626 29.5712 29.9886 30.2999 25.4821Z" fill="#090704"/>
<path opacity="0.4" d="M21.6859 32.5587C26.4169 32.5587 30.2522 28.949 30.2522 24.4962C30.2522 20.0435 26.4169 16.4338 21.6859 16.4338C16.9548 16.4338 13.1195 20.0435 13.1195 24.4962C13.1195 28.949 16.9548 32.5587 21.6859 32.5587Z" fill="black"/>
</g>
</g>
<path d="M32.7101 23.4739C29.1125 23.4739 26.0832 25.8375 25.1346 29.0642C24.5884 28.8733 24.0047 28.7649 23.3922 28.7649C20.5243 28.7649 18.1981 31.0461 18.1981 33.8586C18.1981 36.6711 20.5243 38.9523 23.3922 38.9523H32.7123C37.0705 38.9523 40.6039 35.4871 40.6039 31.2131C40.6039 26.9391 37.0705 23.4739 32.7123 23.4739H32.7101Z" fill="white"/>
<path d="M33.1324 23.888C29.5348 23.888 26.5077 26.2494 25.5569 29.4783C25.0107 29.2874 24.427 29.179 23.8145 29.179C20.9466 29.179 18.6205 31.4602 18.6205 34.2727C18.6205 37.0852 20.9466 39.3664 23.8145 39.3664H33.1346C37.4928 39.3664 41.0263 35.9012 41.0263 31.6272C41.0263 27.3532 37.4928 23.888 33.1346 23.888H33.1324Z" fill="white"/>
<mask id="mask5_259_5280" style="mask-type:luminance" maskUnits="userSpaceOnUse" x="18" y="23" width="23" height="17">
<path d="M32.9422 23.7014C29.3446 23.7014 26.3153 26.0629 25.3667 29.2917C24.8206 29.1009 24.2368 28.9903 23.6243 28.9903C20.7564 28.9903 18.4303 31.2715 18.4303 34.084C18.4303 36.8964 20.7564 39.1776 23.6243 39.1776H32.9444C37.3026 39.1776 40.8361 35.7125 40.8361 31.4385C40.8361 27.1645 37.3026 23.6993 32.9444 23.6993L32.9422 23.7014Z" fill="white"/>
</mask>
<g mask="url(#mask5_259_5280)">
<path d="M32.9422 23.7014C29.3446 23.7014 26.3153 26.0629 25.3667 29.2917C24.8206 29.1009 24.2368 28.9903 23.6243 28.9903C20.7564 28.9903 18.4303 31.2715 18.4303 34.084C18.4303 36.8964 20.7564 39.1776 23.6243 39.1776H32.9444C37.3026 39.1776 40.8361 35.7125 40.8361 31.4385C40.8361 27.1645 37.3026 23.6993 32.9444 23.6993L32.9422 23.7014Z" fill="url(#paint6_linear_259_5280)"/>
<g style="mix-blend-mode:multiply" opacity="0.4">
<path d="M24.0776 37.8615C32.2609 37.8615 38.8947 31.3558 38.8947 23.3307C38.8947 15.3056 32.2609 8.79996 24.0776 8.79996C15.8944 8.79996 9.26056 15.3056 9.26056 23.3307C9.26056 31.3558 15.8944 37.8615 24.0776 37.8615Z" fill="white"/>
</g>
<g style="mix-blend-mode:multiply" opacity="0.44">
<path d="M24.0777 37.4732C32.0423 37.4732 38.4989 31.1413 38.4989 23.3306C38.4989 15.5198 32.0423 9.18797 24.0777 9.18797C16.113 9.18797 9.65638 15.5198 9.65638 23.3306C9.65638 31.1413 16.113 37.4732 24.0777 37.4732Z" fill="#FFFDFA"/>
</g>
<g style="mix-blend-mode:multiply" opacity="0.48">
<path d="M24.0776 37.083C31.8225 37.083 38.1009 30.9259 38.1009 23.3307C38.1009 15.7356 31.8225 9.57845 24.0776 9.57845C16.3328 9.57845 10.0544 15.7356 10.0544 23.3307C10.0544 30.9259 16.3328 37.083 24.0776 37.083Z" fill="#FFFBF5"/>
</g>
<g style="mix-blend-mode:multiply" opacity="0.51">
<path d="M24.0776 36.6927C31.6026 36.6927 37.7029 30.7104 37.7029 23.3308C37.7029 15.9512 31.6026 9.9688 24.0776 9.9688C16.5526 9.9688 10.4523 15.9512 10.4523 23.3308C10.4523 30.7104 16.5526 36.6927 24.0776 36.6927Z" fill="#FFF9F0"/>
</g>
<g style="mix-blend-mode:multiply" opacity="0.55">
<path d="M24.0776 36.3023C31.3828 36.3023 37.3049 30.4947 37.3049 23.3307C37.3049 16.1666 31.3828 10.359 24.0776 10.359C16.7724 10.359 10.8504 16.1666 10.8504 23.3307C10.8504 30.4947 16.7724 36.3023 24.0776 36.3023Z" fill="#FFF7EB"/>
</g>
<g style="mix-blend-mode:multiply" opacity="0.59">
<path d="M24.0776 35.9143C31.1643 35.9143 36.9091 30.2805 36.9091 23.3308C36.9091 16.3811 31.1643 10.7473 24.0776 10.7473C16.991 10.7473 11.2462 16.3811 11.2462 23.3308C11.2462 30.2805 16.991 35.9143 24.0776 35.9143Z" fill="#FFF5E5"/>
</g>
<g style="mix-blend-mode:multiply" opacity="0.62">
<path d="M24.0776 35.5239C30.9444 35.5239 36.511 30.0648 36.511 23.3307C36.511 16.5966 30.9444 11.1375 24.0776 11.1375C17.2108 11.1375 11.6442 16.5966 11.6442 23.3307C11.6442 30.0648 17.2108 35.5239 24.0776 35.5239Z" fill="#FFF3E0"/>
</g>
<g style="mix-blend-mode:multiply" opacity="0.66">
<path d="M24.0776 35.1336C30.7246 35.1336 36.113 29.8493 36.113 23.3307C36.113 16.8122 30.7246 11.5279 24.0776 11.5279C17.4306 11.5279 12.0422 16.8122 12.0422 23.3307C12.0422 29.8493 17.4306 35.1336 24.0776 35.1336Z" fill="#FFF1DB"/>
</g>
<g style="mix-blend-mode:multiply" opacity="0.7">
<path d="M32.3092 31.4014C36.8547 26.9436 36.8548 19.7163 32.3092 15.2585C27.7636 10.8008 20.3938 10.8008 15.8483 15.2585C11.3027 19.7163 11.3027 26.9437 15.8483 31.4014C20.3938 35.8591 27.7636 35.8591 32.3092 31.4014Z" fill="#FFEFD6"/>
</g>
<g style="mix-blend-mode:multiply" opacity="0.74">
<path d="M24.0777 34.3551C30.2863 34.3551 35.3193 29.4193 35.3193 23.3307C35.3193 17.2421 30.2863 12.3064 24.0777 12.3064C17.8691 12.3064 12.8361 17.2421 12.8361 23.3307C12.8361 29.4193 17.8691 34.3551 24.0777 34.3551Z" fill="#FFECD1"/>
</g>
<g style="mix-blend-mode:multiply" opacity="0.78">
<path d="M24.0777 33.9647C30.0664 33.9647 34.9213 29.2037 34.9213 23.3307C34.9213 17.4576 30.0664 12.6966 24.0777 12.6966C18.0889 12.6966 13.2341 17.4576 13.2341 23.3307C13.2341 29.2037 18.0889 33.9647 24.0777 33.9647Z" fill="#FFEACC"/>
</g>
<g style="mix-blend-mode:multiply" opacity="0.81">
<path d="M24.0776 33.5767C29.8478 33.5767 34.5254 28.9894 34.5254 23.3308C34.5254 17.6721 29.8478 13.0849 24.0776 13.0849C18.3075 13.0849 13.6298 17.6721 13.6298 23.3308C13.6298 28.9894 18.3075 33.5767 24.0776 33.5767Z" fill="#FFE8C7"/>
</g>
<g style="mix-blend-mode:multiply" opacity="0.85">
<path d="M24.0777 33.1863C29.628 33.1863 34.1275 28.7738 34.1275 23.3307C34.1275 17.8876 29.628 13.4751 24.0777 13.4751C18.5273 13.4751 14.0279 17.8876 14.0279 23.3307C14.0279 28.7738 18.5273 33.1863 24.0777 33.1863Z" fill="#FFE6C2"/>
</g>
<g style="mix-blend-mode:multiply" opacity="0.89">
<path d="M24.0776 32.796C29.4082 32.796 33.7294 28.5582 33.7294 23.3307C33.7294 18.1032 29.4082 13.8654 24.0776 13.8654C18.7471 13.8654 14.4259 18.1032 14.4259 23.3307C14.4259 28.5582 18.7471 32.796 24.0776 32.796Z" fill="#FFE4BC"/>
</g>
<g style="mix-blend-mode:multiply" opacity="0.93">
<path d="M24.0775 32.4056C29.1882 32.4056 33.3313 28.3426 33.3313 23.3306C33.3313 18.3187 29.1882 14.2557 24.0775 14.2557C18.9668 14.2557 14.8237 18.3187 14.8237 23.3306C14.8237 28.3426 18.9668 32.4056 24.0775 32.4056Z" fill="#FFE2B7"/>
</g>
<g style="mix-blend-mode:multiply" opacity="0.96">
<path d="M24.0775 32.0175C28.9696 32.0175 32.9355 28.1283 32.9355 23.3307C32.9355 18.5331 28.9696 14.6439 24.0775 14.6439C19.1854 14.6439 15.2195 18.5331 15.2195 23.3307C15.2195 28.1283 19.1854 32.0175 24.0775 32.0175Z" fill="#FFE0B2"/>
</g>
<g style="mix-blend-mode:multiply">
<path d="M24.0776 31.6271C28.7499 31.6271 32.5376 27.9126 32.5376 23.3306C32.5376 18.7486 28.7499 15.0342 24.0776 15.0342C19.4053 15.0342 15.6176 18.7486 15.6176 23.3306C15.6176 27.9126 19.4053 31.6271 24.0776 31.6271Z" fill="#FFDEAD"/>
</g>
<g style="mix-blend-mode:multiply">
<path d="M24.0776 31.5317C28.6962 31.5317 32.4403 27.86 32.4403 23.3307C32.4403 18.8014 28.6962 15.1296 24.0776 15.1296C19.4591 15.1296 15.715 18.8014 15.715 23.3307C15.715 27.86 19.4591 31.5317 24.0776 31.5317Z" fill="#FFDDAB"/>
</g>
<g style="mix-blend-mode:multiply">
<path d="M24.0776 31.4364C28.6425 31.4364 32.343 27.8074 32.343 23.3307C32.343 18.8541 28.6425 15.2251 24.0776 15.2251C19.5128 15.2251 15.8123 18.8541 15.8123 23.3307C15.8123 27.8074 19.5128 31.4364 24.0776 31.4364Z" fill="#FFDCA8"/>
</g>
<g style="mix-blend-mode:multiply">
<path d="M24.0777 31.343C28.59 31.343 32.248 27.7558 32.248 23.3306C32.248 18.9055 28.59 15.3182 24.0777 15.3182C19.5653 15.3182 15.9074 18.9055 15.9074 23.3306C15.9074 27.7558 19.5653 31.343 24.0777 31.343Z" fill="#FFDBA6"/>
</g>
<g style="mix-blend-mode:multiply">
<path d="M24.0777 31.2477C28.5363 31.2477 32.1507 27.7031 32.1507 23.3307C32.1507 18.9582 28.5363 15.4137 24.0777 15.4137C19.6191 15.4137 16.0047 18.9582 16.0047 23.3307C16.0047 27.7031 19.6191 31.2477 24.0777 31.2477Z" fill="#FFDAA3"/>
</g>
<g style="mix-blend-mode:multiply">
<path d="M24.0776 31.1523C28.4825 31.1523 32.0533 27.6505 32.0533 23.3307C32.0533 19.011 28.4825 15.5091 24.0776 15.5091C19.6728 15.5091 16.1019 19.011 16.1019 23.3307C16.1019 27.6505 19.6728 31.1523 24.0776 31.1523Z" fill="#FFD9A1"/>
</g>
<g style="mix-blend-mode:multiply">
<path d="M24.0777 31.0568C28.4288 31.0568 31.9561 27.5977 31.9561 23.3307C31.9561 19.0636 28.4288 15.6045 24.0777 15.6045C19.7266 15.6045 16.1993 19.0636 16.1993 23.3307C16.1993 27.5977 19.7266 31.0568 24.0777 31.0568Z" fill="#FFD89E"/>
</g>
<g style="mix-blend-mode:multiply">
<path d="M24.0776 30.9636C28.3762 30.9636 31.8609 27.5462 31.8609 23.3307C31.8609 19.1151 28.3762 15.6977 24.0776 15.6977C19.779 15.6977 16.2943 19.1151 16.2943 23.3307C16.2943 27.5462 19.779 30.9636 24.0776 30.9636Z" fill="#FFD79C"/>
</g>
<g style="mix-blend-mode:multiply">
<path d="M24.0776 30.8682C28.3225 30.8682 31.7637 27.4936 31.7637 23.3307C31.7637 19.1679 28.3225 15.7932 24.0776 15.7932C19.8327 15.7932 16.3916 19.1679 16.3916 23.3307C16.3916 27.4936 19.8327 30.8682 24.0776 30.8682Z" fill="#FFD699"/>
</g>
<g style="mix-blend-mode:multiply">
<path d="M24.0776 30.7728C28.2688 30.7728 31.6664 27.4408 31.6664 23.3307C31.6664 19.2205 28.2688 15.8885 24.0776 15.8885C19.8865 15.8885 16.4889 19.2205 16.4889 23.3307C16.4889 27.4408 19.8865 30.7728 24.0776 30.7728Z" fill="#FFD597"/>
</g>
<g style="mix-blend-mode:multiply">
<path d="M24.0775 30.6774C28.215 30.6774 31.569 27.3882 31.569 23.3307C31.569 19.2732 28.215 15.984 24.0775 15.984C19.9401 15.984 16.5861 19.2732 16.5861 23.3307C16.5861 27.3882 19.9401 30.6774 24.0775 30.6774Z" fill="#FFD494"/>
</g>
<g style="mix-blend-mode:multiply">
<path d="M24.0776 30.5842C28.1625 30.5842 31.474 27.3367 31.474 23.3307C31.474 19.3247 28.1625 16.0773 24.0776 16.0773C19.9927 16.0773 16.6812 19.3247 16.6812 23.3307C16.6812 27.3367 19.9927 30.5842 24.0776 30.5842Z" fill="#FFD392"/>
</g>
<g style="mix-blend-mode:multiply">
<path d="M24.0776 30.4887C28.1088 30.4887 31.3767 27.2839 31.3767 23.3306C31.3767 19.3774 28.1088 16.1726 24.0776 16.1726C20.0465 16.1726 16.7786 19.3774 16.7786 23.3306C16.7786 27.2839 20.0465 30.4887 24.0776 30.4887Z" fill="#FFD28F"/>
</g>
<g style="mix-blend-mode:multiply">
<path d="M24.0777 30.3933C28.0551 30.3933 31.2795 27.2313 31.2795 23.3307C31.2795 19.4301 28.0551 16.2681 24.0777 16.2681C20.1002 16.2681 16.8759 19.4301 16.8759 23.3307C16.8759 27.2313 20.1002 30.3933 24.0777 30.3933Z" fill="#FFD18D"/>
</g>
<g style="mix-blend-mode:multiply">
<path d="M24.0777 30.2977C28.0014 30.2977 31.1822 27.1784 31.1822 23.3305C31.1822 19.4826 28.0014 16.3633 24.0777 16.3633C20.154 16.3633 16.9732 19.4826 16.9732 23.3305C16.9732 27.1784 20.154 30.2977 24.0777 30.2977Z" fill="#FFD08A"/>
</g>
<g style="mix-blend-mode:multiply">
<path d="M24.0776 30.2046C27.9488 30.2046 31.0871 27.127 31.0871 23.3306C31.0871 19.5342 27.9488 16.4567 24.0776 16.4567C20.2064 16.4567 17.0682 19.5342 17.0682 23.3306C17.0682 27.127 20.2064 30.2046 24.0776 30.2046Z" fill="#FFCF88"/>
</g>
<g style="mix-blend-mode:multiply">
<path d="M24.0776 30.1093C27.8951 30.1093 30.9897 27.0744 30.9897 23.3307C30.9897 19.587 27.8951 16.5521 24.0776 16.5521C20.2601 16.5521 17.1655 19.587 17.1655 23.3307C17.1655 27.0744 20.2601 30.1093 24.0776 30.1093Z" fill="#FFCE85"/>
</g>
<g style="mix-blend-mode:screen">
<g style="mix-blend-mode:multiply" opacity="0.4">
<path d="M24.0776 38.6594C32.7103 38.6594 39.7084 31.7965 39.7084 23.3307C39.7084 14.8648 32.7103 8.00191 24.0776 8.00191C15.445 8.00191 8.44682 14.8648 8.44682 23.3307C8.44682 31.7965 15.445 38.6594 24.0776 38.6594Z" fill="black"/>
</g>
<g style="mix-blend-mode:multiply" opacity="0.44">
<path d="M24.0776 38.2951C32.5051 38.2951 39.3369 31.5953 39.3369 23.3306C39.3369 15.066 32.5051 8.36618 24.0776 8.36618C15.6501 8.36618 8.81829 15.066 8.81829 23.3306C8.81829 31.5953 15.6501 38.2951 24.0776 38.2951Z" fill="#0C0A03"/>
</g>
<g style="mix-blend-mode:multiply" opacity="0.48">
<path d="M24.0776 37.9309C32.2999 37.9309 38.9654 31.3942 38.9654 23.3307C38.9654 15.2673 32.2999 8.73057 24.0776 8.73057C15.8553 8.73057 9.18976 15.2673 9.18976 23.3307C9.18976 31.3942 15.8553 37.9309 24.0776 37.9309Z" fill="#171405"/>
</g>
<g style="mix-blend-mode:multiply" opacity="0.51">
<path d="M24.0776 37.5644C32.0935 37.5644 38.5917 31.1918 38.5917 23.3307C38.5917 15.4697 32.0935 9.09706 24.0776 9.09706C16.0616 9.09706 9.56344 15.4697 9.56344 23.3307C9.56344 31.1918 16.0616 37.5644 24.0776 37.5644Z" fill="#231E08"/>
</g>
<g style="mix-blend-mode:multiply" opacity="0.55">
<path d="M24.0775 37.2001C31.8883 37.2001 38.2202 30.9906 38.2202 23.3307C38.2202 15.6709 31.8883 9.46133 24.0775 9.46133C16.2667 9.46133 9.93485 15.6709 9.93485 23.3307C9.93485 30.9906 16.2667 37.2001 24.0775 37.2001Z" fill="#2E280A"/>
</g>
<g style="mix-blend-mode:multiply" opacity="0.59">
<path d="M24.0776 36.8356C31.6832 36.8356 37.8488 30.7892 37.8488 23.3306C37.8488 15.8719 31.6832 9.82548 24.0776 9.82548C16.472 9.82548 10.3064 15.8719 10.3064 23.3306C10.3064 30.7892 16.472 36.8356 24.0776 36.8356Z" fill="#3A320D"/>
</g>
<g style="mix-blend-mode:multiply" opacity="0.62">
<path d="M24.0776 36.4692C31.4769 36.4692 37.4751 30.5868 37.4751 23.3306C37.4751 16.0743 31.4769 10.192 24.0776 10.192C16.6784 10.192 10.6801 16.0743 10.6801 23.3306C10.6801 30.5868 16.6784 36.4692 24.0776 36.4692Z" fill="#453C0F"/>
</g>
<g style="mix-blend-mode:multiply" opacity="0.66">
<path d="M24.0776 36.105C31.2717 36.105 37.1036 30.3857 37.1036 23.3307C37.1036 16.2756 31.2717 10.5564 24.0776 10.5564C16.8835 10.5564 11.0516 16.2756 11.0516 23.3307C11.0516 30.3857 16.8835 36.105 24.0776 36.105Z" fill="#514612"/>
</g>
<g style="mix-blend-mode:multiply" opacity="0.7">
<path d="M36.4 26.178C38.0019 19.5066 33.7856 12.8249 26.9828 11.254C20.1799 9.68304 13.3665 13.8178 11.7647 20.4892C10.1628 27.1606 14.3791 33.8423 21.1819 35.4132C27.9848 36.9842 34.7982 32.8494 36.4 26.178Z" fill="#5C5014"/>
</g>
<g style="mix-blend-mode:multiply" opacity="0.74">
<path d="M24.0776 35.3742C30.8601 35.3742 36.3585 29.9821 36.3585 23.3307C36.3585 16.6792 30.8601 11.2871 24.0776 11.2871C17.2951 11.2871 11.7967 16.6792 11.7967 23.3307C11.7967 29.9821 17.2951 35.3742 24.0776 35.3742Z" fill="#685916"/>
</g>
<g style="mix-blend-mode:multiply" opacity="0.78">
<path d="M24.0777 35.0099C30.655 35.0099 35.987 29.7809 35.987 23.3306C35.987 16.8804 30.655 11.6514 24.0777 11.6514C17.5003 11.6514 12.1683 16.8804 12.1683 23.3306C12.1683 29.7809 17.5003 35.0099 24.0777 35.0099Z" fill="#736319"/>
</g>
<g style="mix-blend-mode:multiply" opacity="0.81">
<path d="M24.0776 34.6457C30.4499 34.6457 35.6155 29.5798 35.6155 23.3307C35.6155 17.0817 30.4499 12.0158 24.0776 12.0158C17.7054 12.0158 12.5397 17.0817 12.5397 23.3307C12.5397 29.5798 17.7054 34.6457 24.0776 34.6457Z" fill="#7F6D1C"/>
</g>
<g style="mix-blend-mode:multiply" opacity="0.85">
<path d="M24.0776 34.2792C30.2434 34.2792 35.2418 29.3774 35.2418 23.3308C35.2418 17.2841 30.2434 12.3823 24.0776 12.3823C17.9117 12.3823 12.9134 17.2841 12.9134 23.3308C12.9134 29.3774 17.9117 34.2792 24.0776 34.2792Z" fill="#8A771E"/>
</g>
<g style="mix-blend-mode:multiply" opacity="0.89">
<path d="M24.0776 33.9148C30.0383 33.9148 34.8704 29.1761 34.8704 23.3306C34.8704 17.4851 30.0383 12.7464 24.0776 12.7464C18.117 12.7464 13.2849 17.4851 13.2849 23.3306C13.2849 29.1761 18.117 33.9148 24.0776 33.9148Z" fill="#968121"/>
</g>
<g style="mix-blend-mode:multiply" opacity="0.93">
<path d="M24.0776 33.5505C29.8331 33.5505 34.4989 28.9749 34.4989 23.3306C34.4989 17.6863 29.8331 13.1107 24.0776 13.1107C18.3221 13.1107 13.6564 17.6863 13.6564 23.3306C13.6564 28.9749 18.3221 33.5505 24.0776 33.5505Z" fill="#A18B23"/>
</g>
<g style="mix-blend-mode:multiply" opacity="0.96">
<path d="M24.0776 33.184C29.6267 33.184 34.1252 28.7725 34.1252 23.3306C34.1252 17.8887 29.6267 13.4772 24.0776 13.4772C18.5285 13.4772 14.03 17.8887 14.03 23.3306C14.03 28.7725 18.5285 33.184 24.0776 33.184Z" fill="#AD9526"/>
</g>
<g style="mix-blend-mode:multiply">
<path d="M24.0776 32.8198C29.4216 32.8198 33.7537 28.5714 33.7537 23.3307C33.7537 18.09 29.4216 13.8416 24.0776 13.8416C18.7336 13.8416 14.4015 18.09 14.4015 23.3307C14.4015 28.5714 18.7336 32.8198 24.0776 32.8198Z" fill="#B89F28"/>
</g>
<g style="mix-blend-mode:multiply">
<path d="M24.0776 32.6356C29.3178 32.6356 33.5658 28.4697 33.5658 23.3308C33.5658 18.1919 29.3178 14.026 24.0776 14.026C18.8375 14.026 14.5895 18.1919 14.5895 23.3308C14.5895 28.4697 18.8375 32.6356 24.0776 32.6356Z" fill="#BCA026"/>
</g>
<g style="mix-blend-mode:multiply">
<path d="M27.4826 31.8232C32.2636 29.9791 34.6151 24.6832 32.7347 19.9945C30.8542 15.3058 25.454 12.9998 20.6729 14.8439C15.8919 16.688 13.5404 21.9839 15.4208 26.6726C17.3013 31.3612 22.7015 33.6673 27.4826 31.8232Z" fill="#C1A023"/>
</g>
<g style="mix-blend-mode:multiply">
<path d="M27.4139 31.6518C32.0984 29.8449 34.4023 24.6561 32.5599 20.0621C30.7175 15.4682 25.4263 13.2087 20.7419 15.0156C16.0574 16.8224 13.7534 22.0113 15.5959 26.6052C17.4383 31.1992 22.7294 33.4586 27.4139 31.6518Z" fill="#C5A121"/>
</g>
<g style="mix-blend-mode:multiply">
<path d="M27.3451 31.4801C31.9329 29.7106 34.1894 24.6287 32.3849 20.1295C30.5805 15.6302 25.3985 13.4174 20.8106 15.187C16.2227 16.9566 13.9663 22.0384 15.7707 26.5377C17.5752 31.0369 22.7572 33.2497 27.3451 31.4801Z" fill="#CAA21E"/>
</g>
<g style="mix-blend-mode:multiply">
<path d="M27.2237 31.3182C31.7274 29.614 33.9696 24.652 32.2317 20.2352C30.4939 15.8185 25.4341 13.6197 20.9304 15.3239C16.4266 17.0282 14.1844 21.9902 15.9223 26.4069C17.6601 30.8236 22.7199 33.0225 27.2237 31.3182Z" fill="#CEA21C"/>
</g>
<g style="mix-blend-mode:multiply">
<path d="M27.2795 31.0985C31.6597 29.3647 33.7774 24.4769 32.0094 20.1813C30.2415 15.8857 25.2574 13.8089 20.8771 15.5427C16.4969 17.2765 14.3792 22.1643 16.1471 26.4599C17.9151 30.7555 22.8992 32.8323 27.2795 31.0985Z" fill="#D3A319"/>
</g>
<g style="mix-blend-mode:multiply">
<path d="M27.962 30.5903C32.0535 28.4865 33.6311 23.5282 31.4858 19.5158C29.3405 15.5034 24.2846 13.9563 20.1931 16.0602C16.1016 18.164 14.524 23.1223 16.6693 27.1347C18.8147 31.1471 23.8706 32.6942 27.962 30.5903Z" fill="#D7A416"/>
</g>
<g style="mix-blend-mode:multiply">
<path d="M27.8886 30.431C31.8844 28.3675 33.418 23.5181 31.3139 19.5994C29.2098 15.6808 24.2648 14.1768 20.2689 16.2403C16.2731 18.3037 14.7395 23.1532 16.8436 27.0718C18.9477 30.9905 23.8927 32.4944 27.8886 30.431Z" fill="#DCA414"/>
</g>
<g style="mix-blend-mode:multiply">
<path d="M25.5721 31.0183C29.9079 30.2103 32.7548 26.1083 31.9308 21.8563C31.1069 17.6042 26.924 14.8123 22.5882 15.6204C18.2524 16.4284 15.4055 20.5304 16.2295 24.7824C17.0534 29.0345 21.2363 31.8264 25.5721 31.0183Z" fill="#E0A512"/>
</g>
<g style="mix-blend-mode:multiply">
<path d="M27.0193 30.4142C31.0109 28.8208 32.9295 24.3557 31.3046 20.4413C29.6797 16.5269 25.1267 14.6454 21.1352 16.2388C17.1436 17.8323 15.225 22.2973 16.8499 26.2117C18.4748 30.1262 23.0278 32.0077 27.0193 30.4142Z" fill="#E4A60F"/>
</g>
<g style="mix-blend-mode:multiply">
<path d="M26.9725 30.2511C30.8629 28.684 32.7213 24.3207 31.1234 20.5055C29.5254 16.6903 25.0762 14.8678 21.1858 16.4348C17.2954 18.0019 15.437 22.3652 17.0349 26.1804C18.6329 29.9956 23.0821 31.8181 26.9725 30.2511Z" fill="#E9A70D"/>
</g>
<g style="mix-blend-mode:multiply">
<path d="M26.8903 30.0646C30.6883 28.5415 32.5082 24.2875 30.9552 20.563C29.4022 16.8384 25.0643 15.0536 21.2663 16.5767C17.4684 18.0997 15.6485 22.3537 17.2015 26.0782C18.7545 29.8028 23.0923 31.5876 26.8903 30.0646Z" fill="#EDA70A"/>
</g>
<g style="mix-blend-mode:multiply">
<path d="M26.8192 29.894C30.5211 28.4095 32.295 24.2631 30.7812 20.6327C29.2675 17.0024 25.0394 15.2628 21.3375 16.7473C17.6356 18.2318 15.8618 22.3782 17.3755 26.0085C18.8892 29.6389 23.1173 31.3785 26.8192 29.894Z" fill="#F2A808"/>
</g>
<g style="mix-blend-mode:multiply">
<path d="M26.7481 29.7233C30.3539 28.2773 32.0817 24.2386 30.6073 20.7024C29.1328 17.1663 25.0145 15.4719 21.4087 16.9178C17.8028 18.3638 16.075 22.4025 17.5495 25.9387C19.0239 29.4748 23.1423 31.1692 26.7481 29.7233Z" fill="#F6A905"/>
</g>
<g style="mix-blend-mode:multiply">
<path d="M30.9456 23.3306C30.9456 27.0495 27.872 30.0658 24.0777 30.0658C20.2833 30.0658 17.2098 27.0517 17.2098 23.3306C17.2098 19.6096 20.2833 16.5954 24.0777 16.5954C27.872 16.5954 30.9456 19.6096 30.9456 23.3306Z" fill="#FBA903"/>
</g>
<g style="mix-blend-mode:multiply">
<path d="M30.7575 23.3307C30.7575 26.9477 27.7658 29.8816 24.0776 29.8816C20.3893 29.8816 17.3976 26.9499 17.3976 23.3307C17.3976 19.7116 20.3893 16.7798 24.0776 16.7798C27.7658 16.7798 30.7575 19.7116 30.7575 23.3307Z" fill="#FFAA00"/>
</g>
</g>
<g style="mix-blend-mode:screen">
<path d="M34.4414 23.8359C30.5342 23.1312 27.0273 25.2519 25.663 28.4677C25.4706 28.9187 24.9731 29.1443 24.4845 29.0619C23.7415 28.9361 22.9455 28.9665 22.1207 29.2115C20.2744 29.7579 18.8415 31.3105 18.5143 33.1732C17.946 36.3869 20.4557 39.1777 23.6265 39.1777H32.9466C37.8245 39.1777 41.6675 34.8386 40.6835 29.8815C40.0777 26.837 37.5569 24.3954 34.4458 23.8359H34.4414Z" fill="#6686BA"/>
<path opacity="0.95" d="M34.2489 23.6386C30.3418 22.9338 26.8348 25.0546 25.4705 28.2704C25.2782 28.7214 24.7807 28.9469 24.2898 28.8645C23.5468 28.7388 22.7508 28.7691 21.926 29.0142C20.0797 29.5606 18.6469 31.1132 18.3196 32.9759C17.7513 36.1896 20.261 38.9803 23.4318 38.9803H32.7519C37.6298 38.9803 41.4728 34.6413 40.4888 29.6842C39.883 26.6397 37.3622 24.198 34.2511 23.6386H34.2489Z" fill="#607EAE"/>
<path opacity="0.9" d="M34.0567 23.4413C30.1495 22.7365 26.6426 24.8572 25.2783 28.0731C25.0859 28.5241 24.5884 28.7518 24.0998 28.6672C23.3568 28.5414 22.5608 28.5718 21.736 28.8168C19.8897 29.3633 18.4568 30.9159 18.1296 32.7786C17.5613 35.9922 20.071 38.783 23.244 38.783H32.5641C37.442 38.783 41.285 34.4439 40.301 29.4869C39.6952 26.4424 37.1744 24.0007 34.0633 23.4413H34.0567Z" fill="#5975A3"/>
<path opacity="0.85" d="M33.8643 23.246C29.9571 22.5413 26.4502 24.662 25.0859 27.8778C24.8935 28.3289 24.396 28.5565 23.9074 28.472C23.1644 28.3462 22.3684 28.3766 21.5436 28.6216C19.6973 29.168 18.2644 30.7206 17.9372 32.5833C17.3689 35.797 19.8786 38.5878 23.0516 38.5878H32.3717C37.2496 38.5878 41.0926 34.2487 40.1086 29.2916C39.5028 26.2471 36.982 23.8055 33.8709 23.246H33.8643Z" fill="#536D97"/>
<path opacity="0.8" d="M33.6718 23.0487C29.7647 22.3439 26.2577 24.4647 24.8934 27.6805C24.7011 28.1315 24.2036 28.3592 23.7149 28.2746C22.9719 28.1489 22.1759 28.1792 21.3511 28.4243C19.5048 28.9707 18.072 30.5233 17.7447 32.386C17.1764 35.5997 19.6861 38.3904 22.8592 38.3904H32.1793C37.0571 38.3904 40.9001 34.0514 39.9162 29.0943C39.3103 26.0498 36.7896 23.6081 33.6784 23.0487H33.6718Z" fill="#4D658B"/>
<path opacity="0.75" d="M33.4796 22.8515C29.5724 22.1467 26.0655 24.2675 24.7012 27.4833C24.5088 27.9343 24.0113 28.162 23.5227 28.0774C22.7797 27.9517 21.9837 27.982 21.1589 28.2271C19.3126 28.7735 17.8797 30.3261 17.5525 32.1888C16.9842 35.4024 19.4939 38.1932 22.6669 38.1932H31.987C36.8649 38.1932 40.7079 33.8542 39.7239 28.8971C39.1181 25.8526 36.5973 23.4109 33.4862 22.8515H33.4796Z" fill="#465C80"/>
<path opacity="0.7" d="M33.2894 22.6541C29.3822 21.9494 25.8753 24.0701 24.511 27.286C24.3187 27.737 23.8211 27.9647 23.3325 27.8801C22.5895 27.7543 21.7935 27.7847 20.9687 28.0297C19.1224 28.5762 17.6896 30.1288 17.3623 31.9915C16.794 35.2051 19.3037 37.9959 22.4767 37.9959H31.7968C36.6747 37.9959 40.5177 33.6569 39.5337 28.6998C38.9279 25.6553 36.4071 23.2136 33.296 22.6541H33.2894Z" fill="#405474"/>
<path opacity="0.65" d="M33.097 22.4568C29.1899 21.7521 25.683 23.8728 24.3187 27.0886C24.1263 27.5397 23.6288 27.7673 23.1401 27.6828C22.3972 27.557 21.6011 27.5874 20.7764 27.8324C18.93 28.3788 17.4972 29.9315 17.17 31.7941C16.6017 35.0078 19.1114 37.7986 22.2844 37.7986H31.6045C36.4824 37.7986 40.3254 33.4595 39.3414 28.5024C38.7355 25.458 36.2148 23.0163 33.1037 22.4568H33.097Z" fill="#394B69"/>
<path opacity="0.6" d="M32.9046 22.2594C28.9975 21.5546 25.4906 23.6754 24.1263 26.8912C23.9339 27.3422 23.4364 27.5699 22.9477 27.4853C22.2048 27.3596 21.4087 27.3899 20.584 27.6349C18.7376 28.1814 17.3048 29.734 16.9775 31.5967C16.4093 34.8103 18.919 37.6011 22.092 37.6011H31.4121C36.2899 37.6011 40.133 33.2621 39.149 28.305C38.5431 25.2605 36.0224 22.8188 32.9113 22.2594H32.9046Z" fill="#33435D"/>
<path opacity="0.55" d="M32.7123 22.062C28.8051 21.3573 25.2982 23.478 23.9339 26.6938C23.7416 27.1449 23.244 27.3726 22.7554 27.288C22.0124 27.1622 21.2164 27.1926 20.3916 27.4376C18.5453 27.9841 17.1124 29.5367 16.7852 31.3994C16.2169 34.613 18.7266 37.4038 21.8996 37.4038H31.2197C36.0976 37.4038 39.9406 33.0647 38.9566 28.1077C38.3508 25.0632 35.83 22.6215 32.7189 22.062H32.7123Z" fill="#2D3B51"/>
<path opacity="0.5" d="M32.5199 21.8648C28.6127 21.1601 25.1058 23.2808 23.7415 26.4966C23.5491 26.9477 23.0516 27.1754 22.563 27.0908C21.82 26.965 21.024 26.9954 20.1992 27.2404C18.3529 27.7869 16.92 29.3395 16.5928 31.2022C16.0245 34.4158 18.5342 37.2066 21.7072 37.2066H31.0273C35.9052 37.2066 39.7482 32.8675 38.7642 27.9105C38.1584 24.866 35.6376 22.4243 32.5265 21.8648H32.5199Z" fill="#263246"/>
<path opacity="0.45" d="M32.3275 21.6675C28.4204 20.9628 24.9135 23.0835 23.5492 26.2993C23.3568 26.7503 22.8593 26.978 22.3706 26.8935C21.6277 26.7677 20.8316 26.798 20.0069 27.0431C18.1605 27.5895 16.7277 29.1421 16.4004 31.0048C15.8322 34.2185 18.3419 37.0093 21.5149 37.0093H30.835C35.7128 37.0093 39.5558 32.6702 38.5719 27.7131C37.966 24.6686 35.4453 22.227 32.3342 21.6675H32.3275Z" fill="#202A3A"/>
<path opacity="0.4" d="M32.1352 21.4701C28.228 20.7653 24.7211 22.886 23.3568 26.1019C23.1644 26.5529 22.6669 26.7806 22.1783 26.696C21.4353 26.5702 20.6393 26.6006 19.8145 26.8456C17.9682 27.3921 16.5353 28.9447 16.2081 30.8074C15.6398 34.021 18.1495 36.8118 21.3225 36.8118H30.6426C35.5205 36.8118 39.3635 32.4728 38.3795 27.5157C37.7737 24.4712 35.2529 22.0295 32.1418 21.4701H32.1352Z" fill="#1A222F"/>
<path opacity="0.35" d="M31.9449 21.2727C28.0378 20.568 24.5309 22.6887 23.1666 25.9045C22.9742 26.3556 22.4767 26.5832 21.988 26.4987C21.2451 26.3729 20.449 26.4033 19.6243 26.6483C17.7779 27.1948 16.3451 28.7474 16.0178 30.6101C15.4496 33.8237 17.9593 36.6145 21.1323 36.6145H30.4524C35.3302 36.6145 39.1733 32.2754 38.1893 27.3184C37.5834 24.2739 35.0627 21.8322 31.9516 21.2727H31.9449Z" fill="#131923"/>
<path opacity="0.3" d="M31.7526 21.0755C27.8454 20.3708 24.3385 22.4915 22.9742 25.7073C22.7819 26.1584 22.2843 26.386 21.7957 26.3015C21.0527 26.1757 20.2567 26.2061 19.4319 26.4511C17.5856 26.9975 16.1527 28.5502 15.8255 30.4129C15.2572 33.6265 17.7669 36.4173 20.9399 36.4173H30.26C35.1379 36.4173 38.9809 32.0782 37.9969 27.1211C37.3911 24.0766 34.8703 21.635 31.7592 21.0755H31.7526Z" fill="#0D1117"/>
<path opacity="0.25" d="M31.5602 20.8782C27.6531 20.1734 24.1462 22.2942 22.7819 25.51C22.5895 25.961 22.092 26.1887 21.6033 26.1041C20.8604 25.9784 20.0643 26.0087 19.2396 26.2538C17.3932 26.798 15.9604 28.3528 15.6331 30.2155C15.0649 33.4292 17.5746 36.2199 20.7476 36.2199H30.0677C34.9456 36.2199 38.7886 31.8809 37.8046 26.9238C37.1987 23.8793 34.678 21.4376 31.5669 20.8782H31.5602Z" fill="#06080C"/>
<path opacity="0.2" d="M31.3679 20.6807C27.4607 19.976 23.9538 22.0967 22.5895 25.3125C22.3972 25.7636 21.8996 25.9913 21.4088 25.9067C20.6658 25.7809 19.8698 25.8113 19.045 26.0563C17.1987 26.6006 15.7658 28.1554 15.4386 30.0181C14.8703 33.2317 17.38 36.0225 20.553 36.0225H29.8731C34.751 36.0225 38.594 31.6834 37.61 26.7264C37.0042 23.6819 34.4834 21.2402 31.3723 20.6807H31.3679Z" fill="black"/>
</g>
<path style="mix-blend-mode:screen" d="M25.3689 36.6861C31.7985 36.6861 37.0107 32.3173 37.0107 26.9281C37.0107 21.5389 31.7985 17.1701 25.3689 17.1701C18.9393 17.1701 13.727 21.5389 13.727 26.9281C13.727 32.3173 18.9393 36.6861 25.3689 36.6861Z" fill="url(#paint7_radial_259_5280)"/>
</g>
<defs>
<filter id="filter0_f_259_5280" x="-2.11446e-05" y="4.03669e-05" width="51.4342" height="49.9999" filterUnits="userSpaceOnUse" color-interpolation-filters="sRGB">
<feFlood flood-opacity="0" result="BackgroundImageFix"/>
<feBlend mode="normal" in="SourceGraphic" in2="BackgroundImageFix" result="shape"/>
<feGaussianBlur stdDeviation="4.40318" result="effect1_foregroundBlur_259_5280"/>
</filter>
<linearGradient id="paint0_linear_259_5280" x1="24.7702" y1="9.93782" x2="21.4881" y2="37.4634" gradientUnits="userSpaceOnUse">
<stop stop-color="#FFF9E3"/>
<stop offset="1" stop-color="#F5B767"/>
</linearGradient>
<linearGradient id="paint1_linear_259_5280" x1="23.1023" y1="13.4356" x2="23.1023" y2="31.9406" gradientUnits="userSpaceOnUse">
<stop stop-color="#FFD461"/>
<stop offset="1" stop-color="#FF9822"/>
</linearGradient>
<linearGradient id="paint2_linear_259_5280" x1="29.8931" y1="24.8472" x2="29.8931" y2="41.2503" gradientUnits="userSpaceOnUse">
<stop stop-color="#EDF9FF"/>
<stop offset="0.19" stop-color="#E5F4FC"/>
<stop offset="0.47" stop-color="#D0E6F7"/>
<stop offset="0.82" stop-color="#ADD1ED"/>
<stop offset="1" stop-color="#99C4E8"/>
</linearGradient>
<radialGradient id="paint3_radial_259_5280" cx="0" cy="0" r="1" gradientUnits="userSpaceOnUse" gradientTransform="translate(25.7555 27.077) scale(12.9698 10.8276)">
<stop offset="0.09" stop-color="#FFCC00"/>
<stop offset="0.28" stop-color="#FFB030"/>
<stop offset="0.36" stop-color="#D69428"/>
<stop offset="0.49" stop-color="#96671C"/>
<stop offset="0.62" stop-color="#604212"/>
<stop offset="0.74" stop-color="#36250A"/>
<stop offset="0.84" stop-color="#181104"/>
<stop offset="0.94" stop-color="#060401"/>
<stop offset="1"/>
</radialGradient>
<linearGradient id="paint4_linear_259_5280" x1="25.0234" y1="11.3102" x2="22.0708" y2="36.0723" gradientUnits="userSpaceOnUse">
<stop stop-color="#FFF9E3"/>
<stop offset="1" stop-color="#F5B767"/>
</linearGradient>
<linearGradient id="paint5_linear_259_5280" x1="23.523" y1="14.457" x2="23.523" y2="31.1042" gradientUnits="userSpaceOnUse">
<stop stop-color="#FFD461"/>
<stop offset="1" stop-color="#FF9822"/>
</linearGradient>
<linearGradient id="paint6_linear_259_5280" x1="29.6321" y1="24.7228" x2="29.6321" y2="39.4791" gradientUnits="userSpaceOnUse">
<stop stop-color="#EDF9FF"/>
<stop offset="0.19" stop-color="#E5F4FC"/>
<stop offset="0.47" stop-color="#D0E6F7"/>
<stop offset="0.82" stop-color="#ADD1ED"/>
<stop offset="1" stop-color="#99C4E8"/>
</linearGradient>
<radialGradient id="paint7_radial_259_5280" cx="0" cy="0" r="1" gradientUnits="userSpaceOnUse" gradientTransform="translate(25.9098 26.7288) scale(11.6677 9.74057)">
<stop offset="0.09" stop-color="#FFCC00"/>
<stop offset="0.28" stop-color="#FFB030"/>
<stop offset="0.36" stop-color="#D69428"/>
<stop offset="0.49" stop-color="#96671C"/>
<stop offset="0.62" stop-color="#604212"/>
<stop offset="0.74" stop-color="#36250A"/>
<stop offset="0.84" stop-color="#181104"/>
<stop offset="0.94" stop-color="#060401"/>
<stop offset="1"/>
</radialGradient>
</defs>
</svg>
