<svg width="71" height="61" viewBox="0 0 71 61" fill="none" xmlns="http://www.w3.org/2000/svg">
<mask id="mask0_259_2231" style="mask-type:alpha" maskUnits="userSpaceOnUse" x="0" y="0" width="71" height="61">
<path d="M62.125 61L71 14.7581L2.95833 0L0 44.2742L62.125 61Z" fill="white"/>
</mask>
<g mask="url(#mask0_259_2231)">
<line x1="-25.6835" y1="74.8158" x2="5.11594" y2="-40.1294" stroke="white" stroke-opacity="0.5"/>
<line x1="-19.8841" y1="74.8158" x2="10.9154" y2="-40.1294" stroke="white" stroke-opacity="0.5"/>
<line x1="-14.0845" y1="74.8158" x2="16.7149" y2="-40.1294" stroke="white" stroke-opacity="0.5"/>
<line x1="-8.28509" y1="74.8158" x2="22.5144" y2="-40.1294" stroke="white" stroke-opacity="0.5"/>
<line x1="-2.48565" y1="74.8158" x2="28.3138" y2="-40.1294" stroke="white" stroke-opacity="0.5"/>
<line x1="3.31379" y1="74.8158" x2="34.1133" y2="-40.1294" stroke="white" stroke-opacity="0.5"/>
<line x1="9.11335" y1="74.8158" x2="39.9128" y2="-40.1294" stroke="white" stroke-opacity="0.5"/>
<line x1="14.9128" y1="74.8158" x2="45.7123" y2="-40.1294" stroke="white" stroke-opacity="0.5"/>
<line x1="20.7122" y1="74.8158" x2="51.5117" y2="-40.1294" stroke="white" stroke-opacity="0.5"/>
<line x1="26.5117" y1="74.8158" x2="57.3111" y2="-40.1294" stroke="white" stroke-opacity="0.5"/>
<line x1="32.3112" y1="74.8158" x2="63.1107" y2="-40.1294" stroke="white" stroke-opacity="0.5"/>
<line x1="38.1107" y1="74.8158" x2="68.9101" y2="-40.1294" stroke="white" stroke-opacity="0.5"/>
<line x1="43.9101" y1="74.8158" x2="74.7096" y2="-40.1294" stroke="white" stroke-opacity="0.5"/>
<line x1="49.7095" y1="74.8158" x2="80.509" y2="-40.1294" stroke="white" stroke-opacity="0.5"/>
<line x1="55.5091" y1="74.8158" x2="86.3086" y2="-40.1294" stroke="white" stroke-opacity="0.5"/>
<line x1="61.3085" y1="74.8158" x2="92.108" y2="-40.1294" stroke="white" stroke-opacity="0.5"/>
<line x1="67.108" y1="74.8158" x2="97.9074" y2="-40.1294" stroke="white" stroke-opacity="0.5"/>
</g>
</svg>
