<svg width="11" height="15" viewBox="0 0 11 15" fill="none" xmlns="http://www.w3.org/2000/svg">
<mask id="mask0_259_5594" style="mask-type:alpha" maskUnits="userSpaceOnUse" x="-5" y="-3" width="21" height="21">
<rect x="-4.6539" y="-2.46918" width="20.3077" height="20.3077" fill="#D9D9D9"/>
</mask>
<g mask="url(#mask0_259_5594)">
<path d="M5.49999 14.877C3.96932 14.877 2.66999 14.343 1.602 13.275C0.534001 12.207 0 10.9076 0 9.37697C0 8.1327 0.371011 7.0205 1.11303 6.04037C1.85504 5.06024 2.8254 4.40583 4.0241 4.07714C3.74205 4.01205 3.4657 3.91523 3.19504 3.78667C2.92438 3.65813 2.68599 3.49079 2.47987 3.28467C2.05789 2.86269 1.78534 2.36206 1.66221 1.78277C1.53908 1.20347 1.49921 0.614966 1.54261 0.0172421C2.12948 -0.0261515 2.7085 0.0123621 3.27966 0.132784C3.8508 0.253192 4.34736 0.51897 4.76936 0.930117C5.09372 1.2382 5.32722 1.59537 5.46987 2.00162C5.61253 2.40789 5.7023 2.83395 5.73918 3.27981C5.91708 2.85348 6.13242 2.45048 6.3852 2.0708C6.63796 1.69111 6.92652 1.33909 7.25087 1.01473C7.36803 0.897568 7.51664 0.838986 7.69671 0.838986C7.87679 0.838986 8.0254 0.897568 8.14255 1.01473C8.25972 1.13188 8.3183 1.2805 8.3183 1.46057C8.3183 1.64065 8.25972 1.78927 8.14255 1.90643C7.83773 2.21126 7.56816 2.54375 7.33384 2.9039C7.09951 3.26407 6.9178 3.64755 6.78871 4.05435C8.02973 4.34617 9.04187 4.98728 9.82511 5.97771C10.6084 6.96815 11 8.10123 11 9.37697C11 10.9076 10.466 12.207 9.39797 13.275C8.32998 14.343 7.03066 14.877 5.49999 14.877ZM5.49999 13.6077C6.6705 13.6077 7.66826 13.1952 8.49326 12.3702C9.31827 11.5452 9.73077 10.5475 9.73077 9.37697C9.73077 8.20645 9.31827 7.2087 8.49326 6.38369C7.66826 5.55869 6.6705 5.14619 5.49999 5.14619C4.32947 5.14619 3.33172 5.55869 2.50671 6.38369C1.68171 7.2087 1.26921 8.20645 1.26921 9.37697C1.26921 10.5475 1.68171 11.5452 2.50671 12.3702C3.33172 13.1952 4.32947 13.6077 5.49999 13.6077Z" fill="#1C1B1F"/>
</g>
</svg>
