<svg width="13" height="15" viewBox="0 0 13 15" fill="none" xmlns="http://www.w3.org/2000/svg">
<mask id="mask0_259_5620" style="mask-type:alpha" maskUnits="userSpaceOnUse" x="-4" y="-3" width="21" height="21">
<rect x="-3.7905" y="-2.68901" width="20.216" height="20.216" fill="#D9D9D9"/>
</mask>
<g mask="url(#mask0_259_5620)">
<path d="M6.31748 15C4.56701 15 3.07648 14.3955 1.84589 13.1865C0.615297 11.9775 0 10.5056 0 8.77099C0 7.94309 0.163883 7.15117 0.491649 6.39523C0.819401 5.63929 1.27215 4.96867 1.84989 4.38336L6.31748 0L10.7851 4.38336C11.3628 4.96867 11.8156 5.63941 12.1433 6.39557C12.4711 7.15172 12.635 7.94403 12.635 8.77251C12.635 10.5084 12.0197 11.9803 10.7891 13.1881C9.55848 14.396 8.06795 15 6.31748 15ZM6.31748 13.7365C7.72137 13.7365 8.91468 13.257 9.8974 12.298C10.8801 11.3391 11.3715 10.1641 11.3715 8.77295C11.3715 8.11253 11.2451 7.48373 10.9924 6.88654C10.7397 6.28936 10.3747 5.76595 9.8974 5.31631L6.31748 1.77535L2.73756 5.31631C2.26024 5.76595 1.89523 6.28936 1.64253 6.88654C1.38983 7.48373 1.26348 8.11253 1.26348 8.77295C1.26348 10.1641 1.75484 11.3391 2.73756 12.298C3.72029 13.257 4.91359 13.7365 6.31748 13.7365Z" fill="#1C1B1F"/>
</g>
</svg>
