<svg width="287" height="8" viewBox="0 0 287 8" fill="none" xmlns="http://www.w3.org/2000/svg">
<path fill-rule="evenodd" clip-rule="evenodd" d="M5.04916 2.41318C5.19616 2.50768 5.26966 2.55493 5.34879 2.58838C5.41903 2.61807 5.49244 2.63963 5.56758 2.65264C5.65224 2.66729 5.73961 2.66729 5.91437 2.66729H286C286.552 2.66729 287 3.11501 287 3.66729C287 4.21958 286.552 4.66729 286 4.66729H5.91436C5.73961 4.66729 5.65224 4.66729 5.56758 4.68194C5.49244 4.69495 5.41903 4.71651 5.34879 4.74621C5.26966 4.77966 5.19616 4.82691 5.04916 4.92141L2.46521 6.58251C1.66225 7.0987 1.26077 7.3568 0.928758 7.33309C0.639426 7.31242 0.373325 7.16714 0.199484 6.93494C0 6.66848 0 6.1912 0 5.23663V2.09796C0 1.14339 0 0.666102 0.199484 0.399646C0.373325 0.167442 0.639426 0.0221635 0.928758 0.00149833C1.26077 -0.022215 1.66225 0.23588 2.46521 0.752071L5.04916 2.41318Z" fill="#427662"/>
</svg>
