<svg width="82" height="65" viewBox="0 0 82 65" fill="none" xmlns="http://www.w3.org/2000/svg">
<mask id="mask0_259_2262" style="mask-type:alpha" maskUnits="userSpaceOnUse" x="0" y="0" width="82" height="65">
<path d="M65 16L1.45831 0L0 26L2 46L77 65L81.5 41L61 34L65 16Z" fill="white"/>
</mask>
<g mask="url(#mask0_259_2262)">
<line x1="-24.983" y1="85.8158" x2="5.8165" y2="-29.1294" stroke="white" stroke-opacity="0.5"/>
<line x1="-19.1835" y1="85.8158" x2="11.6159" y2="-29.1294" stroke="white" stroke-opacity="0.5"/>
<line x1="-13.3841" y1="85.8158" x2="17.4154" y2="-29.1294" stroke="white" stroke-opacity="0.5"/>
<line x1="-7.58453" y1="85.8158" x2="23.2149" y2="-29.1294" stroke="white" stroke-opacity="0.5"/>
<line x1="-1.78509" y1="85.8158" x2="29.0144" y2="-29.1294" stroke="white" stroke-opacity="0.5"/>
<line x1="4.01435" y1="85.8158" x2="34.8138" y2="-29.1294" stroke="white" stroke-opacity="0.5"/>
<line x1="9.81379" y1="85.8158" x2="40.6133" y2="-29.1294" stroke="white" stroke-opacity="0.5"/>
<line x1="15.6134" y1="85.8158" x2="46.4128" y2="-29.1294" stroke="white" stroke-opacity="0.5"/>
<line x1="21.4128" y1="85.8158" x2="52.2123" y2="-29.1294" stroke="white" stroke-opacity="0.5"/>
<line x1="27.2122" y1="85.8158" x2="58.0117" y2="-29.1294" stroke="white" stroke-opacity="0.5"/>
<line x1="33.0117" y1="85.8158" x2="63.8111" y2="-29.1294" stroke="white" stroke-opacity="0.5"/>
<line x1="38.8112" y1="85.8158" x2="69.6107" y2="-29.1294" stroke="white" stroke-opacity="0.5"/>
<line x1="44.6107" y1="85.8158" x2="75.4101" y2="-29.1294" stroke="white" stroke-opacity="0.5"/>
<line x1="50.4101" y1="85.8158" x2="81.2096" y2="-29.1294" stroke="white" stroke-opacity="0.5"/>
<line x1="56.2095" y1="85.8158" x2="87.009" y2="-29.1294" stroke="white" stroke-opacity="0.5"/>
<line x1="62.0091" y1="85.8158" x2="92.8086" y2="-29.1294" stroke="white" stroke-opacity="0.5"/>
<line x1="67.8085" y1="85.8158" x2="98.608" y2="-29.1294" stroke="white" stroke-opacity="0.5"/>
<line x1="73.608" y1="85.8158" x2="104.407" y2="-29.1294" stroke="white" stroke-opacity="0.5"/>
</g>
</svg>
